<ttFont>
<head>
    <!-- Most of this table will be recalculated by the compiler -->
    <tableVersion value="1.0"/>
    <fontRevision value="1.0"/>
    <checkSumAdjustment value="0x75b4ae65"/>
    <magicNumber value="0x5f0f3cf5"/>
    <flags value="00000000 00000011"/>
    <unitsPerEm value="2048"/>
    <created value="Thu Aug 15 19:10:58 2019"/>
    <modified value="Fri Aug 16 02:19:16 2019"/>
    <xMin value="-511"/>
    <yMin value="-505"/>
    <xMax value="3805"/>
    <yMax value="2032"/>
<macStyle value="00000000 00000011"/>
    <lowestRecPPEM value="3"/>
    <fontDirectionHint value="2"/>
    <indexToLocFormat value="0"/>
    <glyphDataFormat value="0"/>
  </head>
          <CharString index="0">
            -296 -391 -438 -5 return
          </CharString>
          <CharString index="1">
            rmoveto
            -251 130 -130 160 return
          </CharString>
          <CharString index="2">
            rmoveto
            486 301 391 438 363 -232 310 -445 -486 return
          </CharString>
          <CharString index="3">
            -225 -47 93 -151 213 hhcurveto
            151 127 89 159 return
          </CharString>
          <CharString index="4">
            rmoveto
            -38 callsubr
            36 callsubr
            endchar
          </CharString>
          <CharString index="5">
            85 -17 callgsubr
            57 -70 121 hhcurveto
            return
          </CharString>
          <CharString index="6">
            -81 callsubr
            39 callsubr
            endchar
          </CharString>
          <CharString index="7">
            hvcurveto
            149 callsubr
            endchar
          </CharString>
          <CharString index="8">
            115 121 -43 callsubr
            -26 return
          </CharString>
          <CharString index="9">
            1867 rmoveto
            -212 -307 116 0 return
          </CharString>
          <CharString index="10">
            rmoveto
            342 249 279 336 268 113 callsubr
            155 callsubr
            endchar
          </CharString>
          <CharString index="11">
            rmoveto
            -479 -58 -23 -106 80 -16 return
          </CharString>
          <CharString index="12">
            rlineto
            52 -13 10 -18 -12 -52 -115 return
          </CharString>
          <CharString index="13">
            rmoveto
            -1138 hlineto
            -11 callsubr
            9 callsubr
            1176 40 callsubr
            endchar
          </CharString>
          <CharString index="14">
            -542 rcurveline
            -170 -37 63 -83 141 hhcurveto
            return
          </CharString>
          <CharString index="15">
            6 callsubr
            endchar
          </CharString>
          <CharString index="16">
            rmoveto
            65 callgsubr
            return
          </CharString>
          <CharString index="17">
            31 callsubr
            endchar
          </CharString>
          <CharString index="18">
            rmoveto
            331 240 203 379 83 hvcurveto
            143 653 20 90 23 19 134 22 rlinecurve
            23 110 -472 0 81 callsubr
            rlineto
            125 -22 15 -19 -19 -90 -125 -588 rcurveline
            -22 callsubr
            endchar
          </CharString>
          <CharString index="19">
            rmoveto
            95 callsubr
            143 -14 13 -22 -18 -85 rlinecurve
            -61 callgsubr
            114 callsubr
            endchar
          </CharString>
          <CharString index="20">
            1572 rmoveto
            -238 -396 return
          </CharString>
          <CharString index="21">
            -33 -46 -11 -33 hhcurveto
            -49 return
          </CharString>
          <CharString index="22">
            rmoveto
            -80 -67 -65 -81 -74 return
          </CharString>
          <CharString index="23">
            -166 -777 316 0 return
          </CharString>
          <CharString index="24">
            382 295 rlineto
            11 vlineto
            return
          </CharString>
          <CharString index="25">
            -15 35 65 14 hvcurveto
            endchar
          </CharString>
          <CharString index="26">
            151 120 89 159 68 vhcurveto
            -2 -8 -5 -29 -9 vvcurveto
            -126 -16 return
          </CharString>
          <CharString index="27">
            rmoveto
            89 71 69 85 hvcurveto
            79 -1 -63 62 -85 hhcurveto
            -89 -72 -69 -86 hvcurveto
            -79 1 63 -61 86 hhcurveto
            endchar
          </CharString>
          <CharString index="28">
            1585 rmoveto
            73 61 return
          </CharString>
          <CharString index="29">
            139 0 450 383 rlineto
            13 vlineto
            return
          </CharString>
          <CharString index="30">
            183 357 -106 callsubr
            return
          </CharString>
          <CharString index="31">
            rmoveto
            -430 -57 -21 -108 67 -13 58 -14 15 -16 3 -48 rlinecurve
            53 -891 -111 -97 -188 -137 -144 -90 rlinecurve
            -31 339 vlineto
            93 100 83 95 77 89 68 77 66 77 61 75 rrcurveto
            310 383 163 294 147 vvcurveto
            103 -74 71 -100 -96 -76 -69 -92 -86 70 -71 87 -2 vhcurveto
            -56 -180 -130 -195 -166 -203 rrcurveto
            endchar
          </CharString>
          <CharString index="32">
            -94 -451 rlineto
            -170 -35 61 -83 141 hhcurveto
            -99 callsubr
            -34 -46 -11 -32 hhcurveto
            -50 -15 35 65 14 hvcurveto
            86 404 rlineto
            226 49 -83 228 callsubr
            return
          </CharString>
          <CharString index="33">
            rmoveto
            193 -542 -80 -377 -18 -85 -22 -18 -167 -19 rlinecurve
            -23 -109 703 0 135 callsubr
            26 -27 50 -141 rlinecurve
            endchar
          </CharString>
          <CharString index="34">
            1176 rmoveto
            237 193 152 -193 130 0 -129 -99 callgsubr
            return
          </CharString>
          <CharString index="35">
            61 75 1 hvcurveto
            69 -52 54 -72 -74 -61 -60 -76 -69 52 -54 72 vhcurveto
            return
          </CharString>
          <CharString index="36">
            58 -59 78 81 67 65 82 74 -58 58 -79 hvcurveto
            endchar
          </CharString>
          <CharString index="37">
            -19 -91 rlineto
            30 hlineto
            80 41 -28 -48 -44 return
          </CharString>
          <CharString index="38">
            56 -70 119 hhcurveto
            113 119 51 68 60 hvcurveto
            24 112 rlineto
            -26 -86 callsubr
            -16 35 65 15 hvcurveto
            return
          </CharString>
          <CharString index="39">
            277 0 31 146 -278 -11 51 238 -329 -44 -44 -199 -160 -30 -21 -100 154 0 return
          </CharString>
          <CharString index="40">
            0 128 610 rlineto
            157 33 105 99 88 hhcurveto
            76 45 -62 -118 -25 hvcurveto
            return
          </CharString>
          <CharString index="41">
            1883 rmoveto
            -208 -142 -147 142 -125 0 return
          </CharString>
          <CharString index="42">
            1560 rmoveto
            207 142 144 -142 117 0 return
          </CharString>
          <CharString index="43">
            -464 -58 -23 -106 80 -16 52 -13 9 -18 -10 -52 rlinecurve
            return
          </CharString>
          <CharString index="44">
            61 75 69 -52 54 -71 -74 -61 -60 -76 -1 hvcurveto
            -69 return
          </CharString>
          <CharString index="45">
            rmoveto
            603 hlineto
            34 163 rlineto
            -602 hlineto
            endchar
          </CharString>
          <CharString index="46">
            381 295 rlineto
            11 vlineto
            return
          </CharString>
          <CharString index="47">
            -18 83 callgsubr
            33 -101 351 98 153 146 69 322 rlinecurve
            endchar
          </CharString>
          <CharString index="48">
            -481 -59 -23 -105 81 -17 53 -12 9 -19 -11 -51 rlinecurve
            -263 -1240 return
          </CharString>
          <CharString index="49">
            rmoveto
            219 174 143 -174 121 0 -123 357 return
          </CharString>
          <CharString index="50">
            -377 41 121 callsubr
            -72 callgsubr
            return
          </CharString>
          <CharString index="51">
            rmoveto
            89 71 69 85 -1 hvcurveto
            79 return
          </CharString>
          <CharString index="52">
            rmoveto
            310 250 131 214 154 -109 102 -205 34 hvcurveto
            -202 34 -94 16 -23 25 -1 32 rlinecurve
            33 31 26 45 15 vhcurveto
            -8 40 44 -4 48 hhcurveto
            299 174 176 212 58 -15 57 -34 49 hvcurveto
            223 -39 30 152 -372 -12 rlineto
            33 -67 -88 20 -113 hhcurveto
            -293 -1 -178 -162 -218 vvcurveto
            -123 70 -111 144 -55 vhcurveto
            -150 -38 -83 -77 1 -100 1 -67 35 -58 80 -36 rrcurveto
            -181 -31 -106 -85 -99 vvcurveto
            -158 205 -91 284 vhcurveto
            5 1104 rmoveto
            132 59 152 112 86 43 -78 -99 -137 -60 -147 -113 -85 -42 79 98 vhcurveto
            -251 -816 rmoveto
            65 50 50 91 32 vhcurveto
            3 -1 3 0 4 -1 196 -32 rcurveline
            134 -21 44 -42 -62 vvcurveto
            -88 -117 -56 -148 -163 -97 63 93 vhcurveto
            endchar
          </CharString>
          <CharString index="53">
            61 75 hvcurveto
            69 1 -52 54 -72 hhcurveto
            -74 -61 -60 -76 hvcurveto
            -69 -1 53 -54 72 hhcurveto
            return
          </CharString>
          <CharString index="54">
            rmoveto
            -24 callgsubr
            104 -114 -215 7 vhcurveto
            94 callsubr
            -4 hvcurveto
            return
          </CharString>
          <CharString index="55">
            1867 rmoveto
            -267 -11 hlineto
            268 -296 rlineto
            104 hlineto
            return
          </CharString>
          <CharString index="56">
            1182 rmoveto
            207 136 138 245 9 hvcurveto
            return
          </CharString>
          <CharString index="57">
            -111 -523 rlineto
            -223 -47 93 -133 211 hhcurveto
            return
          </CharString>
          <CharString index="58">
            57 -59 79 81 67 65 82 74 -58 58 -79 hvcurveto
            endchar
          </CharString>
          <CharString index="59">
            128 -308 229 0 255 308 rlineto
            return
          </CharString>
          <CharString index="60">
            1586 rmoveto
            93 76 -90 callgsubr
            return
          </CharString>
          <CharString index="61">
            140 0 450 383 rlineto
            13 vlineto
            return
          </CharString>
          <CharString index="62">
            rmoveto
            201 157 109 175 return
          </CharString>
          <CharString index="63">
            1205 rmoveto
            110 89 76 return
          </CharString>
          <CharString index="64">
            50 69 60 hvcurveto
            24 112 rlineto
            return
          </CharString>
          <CharString index="65">
            -57 58 -79 23 callsubr
            return
          </CharString>
          <CharString index="66">
            128 603 rlineto
            157 return
          </CharString>
          <CharString index="67">
            rmoveto
            -4 -444 312 -239 387 -1 rrcurveto
            196 198 58 69 97 hvcurveto
            84 390 18 84 17 20 131 14 rlinecurve
            24 110 -613 0 -23 -110 rlineto
            150 -16 12 -17 -18 -83 -68 -328 rcurveline
            -26 -39 -66 -14 -61 hhcurveto
            -219 -143 180 285 -24 callgsubr
            103 -114 -215 8 hvcurveto
            94 callsubr
            -5 hvcurveto
            endchar
          </CharString>
          <CharString index="68">
            rmoveto
            -428 -57 -23 -108 68 -13 rlineto
            56 -13 16 -17 2 -43 45 -791 rcurveline
            240 hlineto
            122 151 116 189 74 168 19 -508 rcurveline
            233 hlineto
            259 246 309 425 206 vvcurveto
            103 -73 71 -100 -97 -75 -69 -92 -8 callgsubr
            endchar
          </CharString>
          <CharString index="69">
            -149 1136 -287 0 -632 -1132 -91 -161 -28 -25 -126 -16 rlinecurve
            -23 -110 481 0 23 110 -145 21 -12 28 81 151 rlinecurve
            82 153 455 0 17 -153 return
          </CharString>
          <CharString index="70">
            1381 1639 1444 rmoveto
            -1283 hlineto
            -93 -392 rlineto
            99 hlineto
            59 callsubr
            108 callsubr
            -100 callgsubr
            96 callsubr
            return
          </CharString>
          <CharString index="71">
            -445 -5 310 -239 384 hhcurveto
            185 164 48 67 91 hvcurveto
            74 344 rlineto
            51 callgsubr
          </CharString>
          <CharString index="72">
            112 474 rlineto
            -99 hlineto
            -131 -293 -82 -41 -200 -7 rrcurveto
            -181 -7 return
          </CharString>
          <CharString index="73">
            1572 rmoveto
            -236 -192 -153 192 -130 0 129 -396 return
          </CharString>
          <CharString index="74">
            61 callsubr
            -68 69 -91 -96 -78 -77 -96 -87 68 -68 92 hvcurveto
            return
          </CharString>
          <CharString index="75">
            rmoveto
            353 60 callsubr
            -70 0 -331 -148 rlineto
            return
          </CharString>
          <CharString index="76">
            rmoveto
            206 157 92 150 24 hvcurveto
            -126 hlineto
            -57 -16 return
          </CharString>
          <CharString index="77">
            90 73 72 89 83 -64 64 -86 65 callsubr
            return
          </CharString>
          <CharString index="78">
            1284 692 1042 -91 callsubr
            return
          </CharString>
          <CharString index="79">
            -127 307 -211 0 -254 -307 rlineto
            return
          </CharString>
          <CharString index="80">
            rmoveto
            602 hlineto
            35 163 rlineto
            -603 hlineto
            endchar
          </CharString>
          <CharString index="81">
            1217 rmoveto
            90 72 72 89 83 -63 64 return
          </CharString>
          <CharString index="82">
            1199 rmoveto
            101 80 116 callgsubr
            return
          </CharString>
          <CharString index="83">
            1667 827 37 callsubr
            return
          </CharString>
          <CharString index="84">
            -492 rmoveto
            189 113 84 123 return
          </CharString>
          <CharString index="85">
            -431 -91 244 -216 336 hhcurveto
            return
          </CharString>
          <CharString index="86">
            794 1503 35 callsubr
            return
          </CharString>
          <CharString index="87">
            113 84 123 -13 callsubr
            return
          </CharString>
          <CharString index="88">
            -86 callsubr
            -15 35 65 14 hvcurveto
            return
          </CharString>
          <CharString index="89">
            -53 -37 44 124 -4 hvcurveto
            225 -2 return
          </CharString>
          <CharString index="90">
            1573 rmoveto
            80 67 66 81 74 return
          </CharString>
          <CharString index="91">
            rmoveto
            187 97 73 124 114 return
          </CharString>
          <CharString index="92">
            -17 callsubr
            -58 58 -78 return
          </CharString>
          <CharString index="93">
            13 -42 41 -63 hhcurveto
            -16 hlineto
            -63 return
          </CharString>
          <CharString index="94">
            102 -77 71 -125 14 hvcurveto
            return
          </CharString>
          <CharString index="95">
            63 59 40 56 12 hvcurveto
            56 return
          </CharString>
          <CharString index="96">
            -23 -110 143 -18 14 return
          </CharString>
          <CharString index="97">
            -66 -63 -48 -67 -14 hvcurveto
            -66 return
          </CharString>
          <CharString index="98">
            rmoveto
            115 96 82 151 return
          </CharString>
          <CharString index="99">
            rmoveto
            94 441 126 0 238 -672 402 0 23 104 -66 25 -35 44 -81 220 rlinecurve
            -191 517 204 184 199 177 57 41 138 22 rlinecurve
            23 110 -534 0 -23 -110 137 -14 14 -39 -118 -117 rlinecurve
            -364 -360 -122 0 87 409 18 85 22 20 135 16 rlinecurve
            24 110 -655 0 -23 -110 -81 callgsubr
            -61 callgsubr
            227 callsubr
            endchar
          </CharString>
          <CharString index="100">
            -22 -18 -142 -16 rlinecurve
            -23 69 callsubr
            -142 17 -16 19 19 88 rlinecurve
            208 976 19 88 24 19 149 -31 callgsubr
            134 -16 15 -18 -19 -87 rlinecurve
            -87 -409 -548 0 87 409 18 85 24 19 140 17 rlinecurve
            24 110 -664 0 -22 -110 142 -18 15 -20 -18 -86 rlinecurve
            -208 -976 -18 -86 -23 -20 -151 -18 rlinecurve
            -24 -110 return
          </CharString>
          <CharString index="101">
            rmoveto
            99 -1136 281 0 508 997 69 -997 287 0 580 1133 83 162 34 23 124 16 rlinecurve
            23 110 -476 0 -23 -110 139 -15 7 -30 -71 -148 rlinecurve
            -402 -841 -50 834 -9 153 16 26 153 21 rlinecurve
            23 110 -644 0 -23 -110 140 -15 5 -9 callgsubr
            endchar
          </CharString>
          <CharString index="102">
            231 1087 18 85 22 17 161 20 rlinecurve
            24 109 -681 0 -23 -110 rlineto
            143 -18 13 -17 -18 -86 -208 -982 rcurveline
            -18 -85 -22 -17 -151 -19 -23 -110 rcurveline
            return
          </CharString>
          <CharString index="103">
            1572 rmoveto
            -279 -9 hlineto
            238 -387 rlineto
            136 hlineto
            314 396 rmoveto
            -261 -9 hlineto
            117 -387 rlineto
            return
          </CharString>
          <CharString index="104">
            261 1227 -480 -59 -23 -105 80 -17 rlineto
            53 -12 8 -19 -10 -51 -58 -270 rcurveline
            117 callgsubr
            return
          </CharString>
          <CharString index="105">
            1572 rmoveto
            -237 -192 -152 192 -130 0 129 -396 234 0 294 396 rlineto
            return
          </CharString>
          <CharString index="106">
            1560 rmoveto
            206 142 144 -142 117 0 -126 307 -211 0 -254 -307 rlineto
            return
          </CharString>
          <CharString index="107">
            rmoveto
            153 144 232 callsubr
            199 callsubr
            -313 214 -145 212 vhcurveto
            endchar
          </CharString>
          <CharString index="108">
            -27 -23 13 24 -26 hvcurveto
            -32 27 rlineto
            42 -51 -52 26 -64 hhcurveto
            -109 -90 -76 -269 -32 hvcurveto
            return
          </CharString>
          <CharString index="109">
            1665 607 231 rmoveto
            93 438 549 0 -93 -438 -19 -87 return
          </CharString>
          <CharString index="110">
            102 431 rlineto
            -99 hlineto
            -111 87 callsubr
            113 callgsubr
            endchar
          </CharString>
          <CharString index="111">
            rmoveto
            -459 124 callsubr
            -84 callsubr
            142 callsubr
            endchar
          </CharString>
          <CharString index="112">
            1218 1166 hmoveto
            -35 callsubr
            -5 callsubr
            return
          </CharString>
          <CharString index="113">
            108 122 50 69 59 hvcurveto
            24 112 rlineto
            205 callsubr
            return
          </CharString>
          <CharString index="114">
            1619 rmoveto
            584 hlineto
            35 164 rlineto
            -583 hlineto
            return
          </CharString>
          <CharString index="115">
            269 33 hvcurveto
            -124 hlineto
            -114 -17 -28 -28 -39 hhcurveto
            return
          </CharString>
          <CharString index="116">
            -18 -18 -85 rlinecurve
            -209 -982 -19 -18 callgsubr
            return
          </CharString>
          <CharString index="117">
            1364 rmoveto
            -132 115 -84 160 198 return
          </CharString>
          <CharString index="118">
            rmoveto
            186 98 73 124 114 -87 72 -108 return
          </CharString>
          <CharString index="119">
            rmoveto
            102 82 69 241 29 hvcurveto
            -115 hlineto
            -102 return
          </CharString>
          <CharString index="120">
            63 48 66 14 hvcurveto
            67 15 -44 48 -66 hhcurveto
            return
          </CharString>
          <CharString index="121">
            32 hvcurveto
            -124 hlineto
            -51 -11 -29 -22 -42 hhcurveto
            return
          </CharString>
          <CharString index="122">
            -26 -41 -43 -42 -26 -72 102 callgsubr
          </CharString>
          <CharString index="123">
            rmoveto
            655 hlineto
            31 147 rlineto
            -655 hlineto
            return
          </CharString>
          <CharString index="124">
            rmoveto
            66 64 48 66 14 hvcurveto
            67 14 -43 48 return
          </CharString>
          <CharString index="125">
            810 503 -19 89 callsubr
            return
          </CharString>
          <CharString index="126">
            174 0 301 393 rlineto
            13 vlineto
            return
          </CharString>
          <CharString index="127">
            -106 -72 65 80 8 1 8 1 6 hvcurveto
            return
          </CharString>
          <CharString index="128">
            -218 0 -271 -357 rlineto
            endchar
          </CharString>
          <CharString index="129">
            128 -159 -96 callsubr
            return
          </CharString>
          <CharString index="130">
            -81 -67 -64 -83 -73 58 -59 79 hvcurveto
            return
          </CharString>
          <CharString index="131">
            1572 rmoveto
            -163 -406 return
          </CharString>
          <CharString index="132">
            rmoveto
            -143 -162 -44 -26 -132 -16 rrcurveto
            -23 -110 500 0 23 110 -141 21 -2 31 110 130 rlinecurve
            246 293 126 -291 56 -130 -16 -30 -151 -22 rlinecurve
            -23 -110 693 0 24 110 -101 25 -36 25 -51 117 rlinecurve
            -205 473 334 383 137 157 45 26 132 16 rlinecurve
            24 110 -499 0 -23 -110 141 -21 2 -30 -110 -131 rlinecurve
            -234 -283 -122 283 -57 130 16 31 151 21 rlinecurve
            24 110 -694 0 -23 -110 rlineto
            103 -24 33 -25 51 -118 202 -464 rcurveline
            endchar
          </CharString>
          <CharString index="133">
            370 hlineto
            22 104 rlineto
            -70 19 -34 43 -79 197 -119 298 rcurveline
            203 67 155 131 210 vvcurveto
            240 -207 135 -375 vhcurveto
            -604 hlineto
            -24 93 callgsubr
            -20 -19 -153 -15 rlinecurve
            -23 -110 658 0 23 110 rlineto
            -129 16 -13 19 19 86 79 374 rcurveline
            125 hlineto
            18 18 1 17 hhcurveto
            327 449 rmoveto
            -187 -134 -126 -239 -7 vhcurveto
            -104 -3 123 583 81 -2 rlineto
            178 -6 95 -89 -163 vvcurveto
            return
          </CharString>
          <CharString index="134">
            rmoveto
            -362 -5 236 -310 446 hhcurveto
            485 302 391 439 228 -92 209 -179 121 hvcurveto
            -7 40 43 -4 46 hhcurveto
            187 148 81 153 94 -53 88 -74 51 hvcurveto
            -105 hlineto
            9 -18 5 -32 -31 vvcurveto
            -157 -102 -133 -170 vhcurveto
            -129 -90 29 -161 hhcurveto
            -486 -296 -391 -439 -5 hvcurveto
            363 -85 rmoveto
            -85 callgsubr
            -64 callgsubr
            -178 -116 140 300 vhcurveto
            endchar
          </CharString>
          <CharString index="135">
            23 110 rlineto
            -165 17 -13 25 17 82 65 304 rcurveline
            160 hlineto
            416 297 169 316 262 -185 159 -415 hvcurveto
            -591 hlineto
            -23 -110 rlineto
            147 -15 14 -22 -19 -83 -209 -984 rcurveline
            -18 -83 -22 -22 -154 -15 -23 -110 rcurveline
            790 1317 rmoveto
            72 -3 rlineto
            169 -8 111 -87 -180 vvcurveto
            -246 -167 -118 -227 -7 vhcurveto
            -97 -3 rlineto
            endchar
          </CharString>
          <CharString index="136">
            rmoveto
            -268 159 -192 289 342 249 276 331 151 -52 130 -105 83 vhcurveto
            -11 42 49 -6 48 hhcurveto
            197 131 80 150 97 -50 78 -67 44 hvcurveto
            -95 hlineto
            7 -16 4 -28 -29 vvcurveto
            -157 -124 -123 -158 vhcurveto
            -82 -68 25 -116 hhcurveto
            -343 -257 -263 -352 hvcurveto
            319 -88 rmoveto
            100 callsubr
            -87 -54 75 155 vhcurveto
            endchar
          </CharString>
          <CharString index="137">
            rmoveto
            -479 -60 -22 -106 80 -16 rlineto
            52 -12 9 -18 -11 -53 -90 -425 rcurveline
            -104 callsubr
            84 -17 callgsubr
            58 -70 121 hhcurveto
            107 123 50 69 59 hvcurveto
            24 112 rlineto
            -27 -36 -44 -88 callgsubr
            188 callsubr
            endchar
          </CharString>
          <CharString index="138">
            rmoveto
            152 142 60 99 74 hvcurveto
            24 114 rlineto
            140 callsubr
            -313 209 -145 217 vhcurveto
            139 939 rmoveto
            61 31 -42 -68 -123 -118 -90 -172 -54 hvcurveto
            -40 -14 rlineto
            238 9 103 153 126 hhcurveto
            return
          </CharString>
          <CharString index="139">
            rmoveto
            -545 hlineto
            -23 -110 138 -16 10 -30 -24 -103 rlinecurve
            -217 -947 -20 -88 -23 -22 -145 -18 rlinecurve
            -23 -110 479 0 23 110 -139 18 189 callsubr
            endchar
          </CharString>
          <CharString index="140">
            -66 hhcurveto
            -16 hlineto
            -67 -63 -48 -67 -14 hvcurveto
            -66 -14 43 -48 66 hhcurveto
            396 hmoveto
            -22 callgsubr
            -66 hhcurveto
            -16 hlineto
            return
          </CharString>
          <CharString index="141">
            rmoveto
            63 59 40 56 11 hvcurveto
            56 -21 callgsubr
            -56 -12 hvcurveto
            -56 -12 41 -40 63 hhcurveto
            377 hmoveto
            -12 callsubr
            12 -41 41 -64 hhcurveto
            -15 hlineto
            -63 -59 -41 -56 return
          </CharString>
          <CharString index="142">
            rmoveto
            -480 -59 -23 -105 81 -17 rlineto
            52 -12 9 -19 -11 -51 -214 -1005 rcurveline
            -170 -37 63 -83 141 hhcurveto
            -99 callsubr
            -19 callsubr
            return
          </CharString>
          <CharString index="143">
            16 -150 -24 -29 -155 -21 rlinecurve
            -23 -110 676 0 -35 callgsubr
            -754 289 rmoveto
            305 569 63 -569 rlineto
            return
          </CharString>
          <CharString index="144">
            rmoveto
            36 callgsubr
            -209 -982 rcurveline
            -19 -85 -21 -77 callgsubr
            594 hlineto
            593 428 336 491 -1 hvcurveto
            return
          </CharString>
          <CharString index="145">
            64 hhcurveto
            376 hmoveto
            64 59 40 56 11 hvcurveto
            56 -14 callsubr
            -58 -41 -56 -13 hvcurveto
            -56 -12 41 -40 64 hhcurveto
            return
          </CharString>
          <CharString index="146">
            55 -70 118 hhcurveto
            114 119 51 68 60 hvcurveto
            23 112 rlineto
            -26 -33 -46 -11 -11 callgsubr
            return
          </CharString>
          <CharString index="147">
            0 103 431 rlineto
            -99 hlineto
            -112 -262 -57 -25 202 callsubr
            45 -36 7 -214 rlinecurve
            99 hlineto
            return
          </CharString>
          <CharString index="148">
            rmoveto
            92 -90 143 -82 callgsubr
            132 78 -30 98 -105 callgsubr
            -1 callgsubr
            endchar
          </CharString>
          <CharString index="149">
            124 hlineto
            114 17 28 28 38 hhcurveto
            27 23 -13 -23 27 hvcurveto
            31 -28 rlineto
            -42 50 54 -26 63 hhcurveto
            return
          </CharString>
          <CharString index="150">
            -69 -241 -28 hvcurveto
            115 hlineto
            102 15 26 25 36 hhcurveto
            25 21 -12 -21 25 hvcurveto
            return
          </CharString>
          <CharString index="151">
            hhcurveto
            -119 -79 39 57 9 hvcurveto
            -126 hlineto
            -150 -40 118 -92 206 hhcurveto
            return
          </CharString>
          <CharString index="152">
            93 438 549 0 -93 -438 -19 -87 -7 callsubr
            return
          </CharString>
          <CharString index="153">
            -13 -24 -23 -31 hhcurveto
            -22 -18 10 19 -21 hvcurveto
            -25 22 rlineto
            34 -43 return
          </CharString>
          <CharString index="154">
            rmoveto
            -163 -406 173 0 302 392 rlineto
            14 vlineto
            endchar
          </CharString>
          <CharString index="155">
            rmoveto
            349 105 304 -105 24 112 -256 174 -69 0 return
          </CharString>
          <CharString index="156">
            1619 rmoveto
            583 hlineto
            35 164 rlineto
            -583 hlineto
            return
          </CharString>
          <CharString index="157">
            1264 rmoveto
            648 hlineto
            38 181 rlineto
            -648 hlineto
            return
          </CharString>
          <CharString index="158">
            127 -308 229 0 255 308 rlineto
            return
          </CharString>
          <CharString index="159">
            -42 48 -67 hhcurveto
            -16 hlineto
            -10 callsubr
            -14 return
          </CharString>
          <CharString index="160">
            -72 -69 -86 1 vhcurveto
            -79 1 63 -61 86 hhcurveto
            endchar
          </CharString>
          <CharString index="161">
            1235 1270 671 rmoveto
            250 return
          </CharString>
          <CharString index="162">
            -86 65 callsubr
            -107 callgsubr
            return
          </CharString>
          <CharString index="163">
            hvcurveto
            -124 hlineto
            -175 -45 111 -109 return
          </CharString>
          <CharString index="164">
            -121 hlineto
            -106 -18 -82 -61 -120 hhcurveto
            return
          </CharString>
          <CharString index="165">
            155 218 135 81 378 rlinecurve
            return
          </CharString>
          <CharString index="166">
            90 224 63 32 239 8 rrcurveto
            46 return
          </CharString>
          <CharString index="167">
            89 316 -89 20 94 -269 148 return
          </CharString>
          <CharString index="168">
            1207 rmoveto
            96 77 77 95 87 return
          </CharString>
          <CharString index="169">
            -25 rlineto
            -37 47 50 -24 59 hhcurveto
            endchar
          </CharString>
          <CharString index="170">
            -59 -41 -56 -12 hvcurveto
            -56 -12 41 -40 return
          </CharString>
          <CharString index="171">
            -86 72 -109 122 callgsubr
            return
          </CharString>
          <CharString index="172">
            -90 -73 -72 -90 -82 63 -64 87 hvcurveto
            return
          </CharString>
          <CharString index="173">
            -90 -74 -72 -90 -82 64 -64 87 hvcurveto
            return
          </CharString>
          <CharString index="174">
            rmoveto
            67 63 48 66 14 hvcurveto
            67 14 return
          </CharString>
          <CharString index="175">
            1578 60 callgsubr
            return
          </CharString>
          <CharString index="176">
            -110 663 0 23 110 return
          </CharString>
          <CharString index="177">
            235 0 294 396 rlineto
            return
          </CharString>
          <CharString index="178">
            rmoveto
            -86 61 -66 92 102 67 60 204 120 vhcurveto
            49 85 34 -97 rlineto
            -176 59 73 -74 134 hhcurveto
            105 90 47 68 46 hvcurveto
            23 112 rlineto
            -22 -29 -31 -13 -37 hhcurveto
            -57 -44 35 134 -45 hvcurveto
            -79 227 93 141 31 47 26 35 22 27 rlinecurve
            -43 25 47 -28 55 hhcurveto
            88 66 69 84 86 -61 66 -92 -102 -70 -60 -204 -116 hvcurveto
            -55 -97 -123 349 -380 -54 -22 -108 72 -12 62 -12 16 -16 20 -57 rlinecurve
            113 -330 -87 -131 -32 -46 -25 -35 -23 -27 rlinecurve
            43 -25 -47 29 -55 hhcurveto
            -88 -66 -70 -84 hvcurveto
            endchar
          </CharString>
          <CharString index="179">
            rmoveto
            330 251 188 284 168 -84 121 -196 117 hvcurveto
            -77 46 rlineto
            -139 84 -55 66 94 vvcurveto
            115 101 74 136 176 105 -103 -201 10 vhcurveto
            99 hlineto
            55 331 rlineto
            63 -77 -172 61 -201 hhcurveto
            -374 -188 -208 -235 -173 89 -118 200 -120 hvcurveto
            77 -46 rlineto
            140 -85 45 -67 -99 vvcurveto
            -128 -111 -79 -145 -184 -133 112 197 -8 vhcurveto
            -99 hlineto
            -54 -340 rlineto
            -62 87 198 -57 198 hhcurveto
            return
          </CharString>
          <CharString index="180">
            rmoveto
            309 258 240 401 59 hvcurveto
            289 40 -88 145 -159 hhcurveto
            -113 -84 -106 -145 12 hvcurveto
            171 -34 53 -142 -28 -168 rrcurveto
            -181 -31 -117 -119 -137 hhcurveto
            -133 -44 81 145 31 hvcurveto
            10 45 55 229 17 83 rrcurveto
            215 46 -76 88 -178 hhcurveto
            -94 -87 -33 -30 -55 hvcurveto
            -22 -106 rlineto
            4 10 17 4 21 hhcurveto
            68 36 -36 -101 -21 hvcurveto
            -21 -96 -51 -219 -15 -70 rrcurveto
            -231 -49 113 -152 277 hhcurveto
            endchar
          </CharString>
          <CharString index="181">
            rmoveto
            -62 71 145 -47 162 hhcurveto
            311 145 164 171 1 hvcurveto
            131 -59 90 -146 80 vhcurveto
            -82 43 -93 52 -35 38 1 60 rlinecurve
            67 52 44 91 123 79 -74 -128 6 vhcurveto
            99 hlineto
            49 259 rlineto
            46 -75 -119 32 -162 hhcurveto
            -273 -172 -134 -191 -132 71 -90 143 -76 hvcurveto
            81 -43 92 -52 28 -39 -1 -63 rlinecurve
            -71 -55 -49 -100 -123 -100 81 153 -9 vhcurveto
            -99 hlineto
            return
          </CharString>
          <CharString index="182">
            rmoveto
            -480 hlineto
            -23 -110 140 -14 7 -32 -23 -103 rlinecurve
            -207 -943 -21 -93 -24 -19 -132 -20 rlinecurve
            -24 -110 473 0 23 110 -145 22 -12 17 19 93 rlinecurve
            171 859 461 -1101 318 0 266 1203 20 92 23 20 134 19 rlinecurve
            23 110 -473 0 -23 -110 rlineto
            145 -21 11 -18 -18 -92 -170 -856 rcurveline
            return
          </CharString>
          <CharString index="183">
            -146 -117 -82 -149 -69 vhcurveto
            51 220 -464 124 callsubr
            -219 -1028 -13 -60 -21 -15 -133 -23 rlinecurve
            -23 -111 663 0 24 111 rlineto
            -175 25 -18 11 12 62 63 311 rcurveline
            -49 45 74 -35 103 16 callgsubr
            89 412 rlineto
            166 35 82 89 86 hhcurveto
            74 46 -59 -153 -1 hvcurveto
            endchar
          </CharString>
          <CharString index="184">
            1653 931 -31 rmoveto
            446 347 342 468 390 -297 308 -397 -443 -351 -343 -467 -392 303 -306 392 hvcurveto
            -1 92 rmoveto
            -330 -260 263 343 422 317 296 373 335 255 -264 -342 -423 -312 -295 -378 hvcurveto
            return
          </CharString>
          <CharString index="185">
            -129 130 -160 -138 -112 -75 -137 -71 vhcurveto
            153 664 -480 -59 -23 -105 81 -17 53 -12 9 -19 -11 -51 rlinecurve
            -264 -1240 177 0 115 106 rlineto
            -71 38 83 -59 135 16 callgsubr
            88 412 rlineto
            166 36 82 89 86 hhcurveto
            74 46 -59 -153 -1 hvcurveto
            return
          </CharString>
          <CharString index="186">
            1541 807 -32 rmoveto
            331 240 203 379 83 hvcurveto
            143 653 20 90 23 19 134 22 rlinecurve
            23 110 -472 0 81 callsubr
            rlineto
            125 -22 15 -19 -19 -90 -125 -588 rcurveline
            -22 callsubr
            return
          </CharString>
          <CharString index="187">
            34 95 106 86 hhcurveto
            73 41 -62 -107 -23 hvcurveto
            -145 -697 314 0 -41 callsubr
            33 94 106 88 hhcurveto
            72 41 -65 callgsubr
            -99 callsubr
            -34 -46 -11 -33 hhcurveto
            -49 -15 35 65 14 hvcurveto
            87 406 rlineto
            227 211 callsubr
            endchar
          </CharString>
          <CharString index="188">
            -24 -110 rlineto
            146 -23 12 -18 -19 -90 -131 -633 rcurveline
            -272 -57 -160 -116 -178 hhcurveto
            -201 -128 131 304 65 hvcurveto
            126 586 20 90 23 18 152 23 rlinecurve
            22 110 -655 0 -23 -110 return
          </CharString>
          <CharString index="189">
            rmoveto
            158 -116 136 -233 31 vhcurveto
            226 25 179 111 2 196 rrcurveto
            207 2 -184 128 -402 hhcurveto
            -580 -34 callgsubr
            -209 -981 rcurveline
            -19 -85 -21 -18 -150 -18 184 callsubr
            endchar
          </CharString>
          <CharString index="190">
            780 1445 rmoveto
            -99 hlineto
            -297 -122 -16 -75 147 23 8 1 3 -4 -1 -7 rlinecurve
            -100 -472 -12 -58 -34 -14 -123 -11 rlinecurve
            -16 -76 518 0 16 76 -117 11 -29 15 13 57 rlinecurve
            return
          </CharString>
          <CharString index="191">
            606 612 rmoveto
            123 callsubr
            -104 170 -210 -264 -148 -242 -251 2 vhcurveto
            -189 103 -170 211 vhcurveto
            return
          </CharString>
          <CharString index="192">
            rmoveto
            -137 -708 rlineto
            -241 -46 103 -102 191 hhcurveto
            134 131 54 74 76 hvcurveto
            23 108 rlineto
            -26 -43 -53 -11 -56 hhcurveto
            -120 -56 60 136 34 hvcurveto
            165 656 rlineto
            endchar
          </CharString>
          <CharString index="193">
            rmoveto
            200 939 18 86 22 17 150 19 rlinecurve
            24 110 -670 0 -23 -110 142 159 callsubr
            421 58 callsubr
            endchar
          </CharString>
          <CharString index="194">
            -262 -75 -24 -249 -9 rrcurveto
            -264 -10 965 1214 22 104 -1053 0 -93 -392 rlineto
            99 hlineto
            92 211 54 37 return
          </CharString>
          <CharString index="195">
            30 hvcurveto
            -124 hlineto
            -67 -17 -94 -45 -117 hhcurveto
            -116 -75 46 66 11 56 callsubr
            202 hhcurveto
            endchar
          </CharString>
          <CharString index="196">
            rmoveto
            128 142 59 74 58 hvcurveto
            24 112 rlineto
            -33 -41 -59 -19 -64 hhcurveto
            -99 -48 58 147 31 hvcurveto
            return
          </CharString>
          <CharString index="197">
            -7 hlineto
            192 -300 rlineto
            109 hlineto
            249 307 rmoveto
            -209 -7 hlineto
            96 -300 rlineto
            100 hlineto
            return
          </CharString>
          <CharString index="198">
            rmoveto
            218 174 143 -174 121 0 -122 357 -218 0 -272 -357 rlineto
            endchar
          </CharString>
          <CharString index="199">
            -95 -66 56 70 8 1 -78 callgsubr
            -7 -34 -32 vvcurveto
            -139 2 115 -101 158 hhcurveto
            return
          </CharString>
          <CharString index="200">
            1294 700 1040 rmoveto
            -64 callsubr
            -84 callsubr
            157 callsubr
            return
          </CharString>
          <CharString index="201">
            99 -4 59 331 rlineto
            79 -99 -199 73 -223 hhcurveto
            -486 -343 -343 -481 return
          </CharString>
          <CharString index="202">
            208 982 18 85 22 18 151 18 rlinecurve
            23 110 -670 0 -23 -110 return
          </CharString>
          <CharString index="203">
            18 18 85 rlinecurve
            231 1087 46 -2 235 -8 50 -32 -6 -224 rlinecurve
            100 hlineto
            return
          </CharString>
          <CharString index="204">
            -40 -27 -73 -1 hvcurveto
            -57 1 -47 15 -34 20 -23 -102 rcurveline
            -34 52 71 -23 85 hhcurveto
            endchar
          </CharString>
          <CharString index="205">
            hvcurveto
            124 hlineto
            51 11 30 22 42 hhcurveto
            25 26 -8 -14 34 hvcurveto
            33 -14 rlineto
            -17 43 return
          </CharString>
          <CharString index="206">
            -40 -27 -72 -1 hvcurveto
            -58 1 -47 15 -34 20 -23 -102 rcurveline
            -34 52 71 -23 86 hhcurveto
            return
          </CharString>
          <CharString index="207">
            231 86 330 174 87 54 -75 -155 -231 -86 -330 -174 return
          </CharString>
          <CharString index="208">
            -121 hlineto
            -11 -28 -7 -39 -38 vvcurveto
            -160 128 -118 176 vhcurveto
            return
          </CharString>
          <CharString index="209">
            73 54 108 hhcurveto
            95 65 -57 -70 -8 -1 -8 -1 -5 hvcurveto
            108 hlineto
            return
          </CharString>
          <CharString index="210">
            0 658 1559 rmoveto
            40 186 -693 -174 -22 -107 rlineto
            return
          </CharString>
          <CharString index="211">
            -2444 rmoveto
            216 hlineto
            519 2444 rlineto
            -216 hlineto
            return
          </CharString>
          <CharString index="212">
            1572 rmoveto
            -332 -13 hlineto
            307 -383 rlineto
            129 hlineto
            return
          </CharString>
          <CharString index="213">
            126 hlineto
            43 9 30 20 43 hhcurveto
            26 27 -7 -12 35 hvcurveto
            35 return
          </CharString>
          <CharString index="214">
            12 rlineto
            15 -45 -45 11 -54 hhcurveto
            -117 -97 -70 -128 -26 hvcurveto
            return
          </CharString>
          <CharString index="215">
            2 -230 -1087 -18 -85 -24 -18 -166 -19 rlinecurve
            -23 -109 return
          </CharString>
          <CharString index="216">
            -86 rlineto
            16 35 60 14 50 hhcurveto
            75 33 -26 -40 -8 hvcurveto
            -9 -39 return
          </CharString>
          <CharString index="217">
            -15 hlineto
            -67 -63 -48 -67 -14 hvcurveto
            -66 -14 43 -48 66 hhcurveto
            endchar
          </CharString>
          <CharString index="218">
            1559 rmoveto
            40 186 -693 -174 -23 -107 rlineto
            return
          </CharString>
          <CharString index="219">
            1559 rmoveto
            39 186 -693 -174 -22 -107 rlineto
            return
          </CharString>
          <CharString index="220">
            -159 192 -289 -342 -249 -279 -336 return
          </CharString>
          <CharString index="221">
            670 0 23 110 -143 18 -13 18 18 85 rlinecurve
            return
          </CharString>
          <CharString index="222">
            72 72 89 83 -64 64 -86 -90 -73 -72 -90 -82 64 -64 return
          </CharString>
          <CharString index="223">
            -40 callgsubr
            -124 0 51 callsubr
            return
          </CharString>
          <CharString index="224">
            1572 rmoveto
            -333 -13 hlineto
            -83 callgsubr
            return
          </CharString>
          <CharString index="225">
            1572 rmoveto
            -237 -396 -78 callsubr
            return
          </CharString>
          <CharString index="226">
            1554 831 1444 75 callsubr
            return
          </CharString>
          <CharString index="227">
            -20 -89 rlineto
            5 18 34 5 28 -74 callgsubr
            return
          </CharString>
          <CharString index="228">
            rmoveto
            -438 -266 -282 -359 -18 vhcurveto
            -79 -4 return
          </CharString>
          <CharString index="229">
            -126 307 -211 0 -255 -307 rlineto
            return
          </CharString>
          <CharString index="230">
            264 148 242 251 -2 hvcurveto
            189 return
          </CharString>
          <CharString index="231">
            -58 -22 -106 79 -16 52 -13 9 -18 -10 -52 rlinecurve
            return
          </CharString>
          <CharString index="232">
            -67 69 -92 -96 -78 -77 -96 -87 68 -68 92 hvcurveto
            return
          </CharString>
          <CharString index="233">
            1577 rmoveto
            -108 -87 -36 -46 -46 hvcurveto
            return
          </CharString>
          <CharString index="234">
            1573 rmoveto
            81 66 66 81 74 -57 58 return
          </CharString>
          <CharString index="235">
            1572 rmoveto
            -133 -406 165 0 return
          </CharString>
          <CharString index="236">
            1186 1005 -18 133 callsubr
            return
          </CharString>
          <CharString index="237">
            rmoveto
            -78 66 -60 83 87 70 64 78 36 -14 33 -22 25 vhcurveto
            9 30 35 6 36 hhcurveto
            136 85 -84 -210 -31 hvcurveto
            -4 -25 -154 -13 rlineto
            -338 -27 -183 -117 -195 vvcurveto
            -162 131 -97 172 189 136 114 169 45 vhcurveto
            -188 56 149 -95 176 hhcurveto
            161 135 65 90 70 hvcurveto
            25 113 rlineto
            -51 -64 -82 -27 -84 hhcurveto
            -157 -99 106 208 -2 hvcurveto
            42 2 rlineto
            414 24 135 133 159 vvcurveto
            155 -133 98 -210 -129 -117 -46 -85 -94 vhcurveto
            84 -70 -113 47 -157 hhcurveto
            -238 -169 -111 -147 hvcurveto
            1068 120 rmoveto
            65 38 -40 -67 -99 -82 -98 -222 -18 hvcurveto
            -22 -2 rlineto
            195 23 87 129 113 hhcurveto
            -882 -627 rmoveto
            100 79 62 188 19 vhcurveto
            87 9 -3 -23 rlineto
            -212 -30 -80 -82 -111 hhcurveto
            -77 -53 44 83 hvcurveto
            endchar
          </CharString>
          <CharString index="238">
            rmoveto
            -1132 hlineto
            -785 -1142 -106 -154 -41 -25 -122 -13 rlinecurve
            -23 -110 497 0 23 110 -143 19 -10 32 93 140 rlinecurve
            161 244 444 0 -55 -289 -21 -111 -15 -18 -156 -17 rlinecurve
            -23 -110 1170 0 105 431 rlineto
            -97 hlineto
            -107 -251 -69 -34 -241 -10 rrcurveto
            -231 -10 104 545 rlineto
            192 hlineto
            68 17 -27 -167 -7 hvcurveto
            96 hlineto
            107 519 rlineto
            -96 hlineto
            -167 -65 -27 -26 -67 hhcurveto
            -193 hlineto
            98 515 211 -9 235 -9 29 -36 12 -211 rlinecurve
            98 hlineto
            -1006 259 rmoveto
            80 hlineto
            -120 -631 rlineto
            -379 hlineto
            endchar
          </CharString>
          <CharString index="239">
            1465 608 231 rmoveto
            94 441 126 0 238 -672 402 0 23 104 -66 25 -35 44 -81 220 rlinecurve
            -191 517 204 184 199 177 57 41 138 22 rlinecurve
            23 110 -534 0 -23 -110 137 -14 14 -39 -118 -117 rlinecurve
            -364 -360 -122 0 87 409 18 85 22 20 135 16 rlinecurve
            24 110 -655 0 -23 -110 -81 callgsubr
            -61 callgsubr
            227 callsubr
            return
          </CharString>
          <CharString index="240">
            rmoveto
            102 84 48 66 48 hvcurveto
            24 112 rlineto
            -21 -24 -30 -12 -33 hhcurveto
            -52 -43 35 142 -48 hvcurveto
            -109 317 93 74 168 133 78 42 102 19 rlinecurve
            19 90 -483 0 -19 -90 130 -14 15 -28 -118 -100 rlinecurve
            -300 -254 204 962 -480 -59 -23 -105 81 -17 53 -12 9 -19 -11 -51 rlinecurve
            -264 -1240 316 0 87 407 91 71 65 -208 rlineto
            -198 62 76 -90 130 hhcurveto
            return
          </CharString>
          <CharString index="241">
            -146 -612 -46 callgsubr
            -1109 -732 rmoveto
            -18 callsubr
            75 260 116 85 callgsubr
            1049 -731 rmoveto
            123 callsubr
            -103 171 -210 -264 -149 222 callsubr
            return
          </CharString>
          <CharString index="242">
            23 109 -158 19 -15 18 18 85 rlinecurve
            80 381 427 545 108 138 34 23 117 16 rlinecurve
            23 110 -467 0 -23 -110 143 -17 1 -32 -100 -132 rlinecurve
            -299 -404 -132 404 -43 132 16 32 150 17 rlinecurve
            23 110 -672 0 -23 -110 107 -16 return
          </CharString>
          <CharString index="243">
            rmoveto
            -116 3 117 -75 160 hhcurveto
            198 113 97 109 -5 hvcurveto
            117 -3 -117 75 -160 hhcurveto
            -198 -113 -97 -110 5 hvcurveto
            195 -5 rmoveto
            65 -3 51 40 59 hhcurveto
            52 34 -31 -49 3 hvcurveto
            -65 3 -51 -40 -59 hhcurveto
            -52 return
          </CharString>
          <CharString index="244">
            rmoveto
            118 96 70 129 26 hvcurveto
            -127 hlineto
            -43 -8 -30 -20 -42 hhcurveto
            -27 -27 7 12 -35 hvcurveto
            -34 107 callsubr
            127 hlineto
            43 9 29 20 43 hhcurveto
            27 26 -7 -12 35 hvcurveto
            35 -11 rlineto
            -16 45 45 -12 53 hhcurveto
            endchar
          </CharString>
          <CharString index="245">
            rmoveto
            196 107 67 83 83 hvcurveto
            25 111 rlineto
            -56 -78 -108 -35 -120 hhcurveto
            -105 -67 41 71 70 36 46 143 49 hvcurveto
            41 13 rlineto
            203 68 117 86 187 vvcurveto
            171 return
          </CharString>
          <CharString index="246">
            31 hvcurveto
            -124 hlineto
            -51 -10 -30 -22 -41 hhcurveto
            -26 -26 8 14 -35 hvcurveto
            -31 13 rlineto
            18 -44 -44 14 -52 hhcurveto
            -114 -97 -82 -151 -32 98 callsubr
            43 -14 53 hhcurveto
            endchar
          </CharString>
          <CharString index="247">
            -61 -67 -92 -21 -73 hhcurveto
            -131 -99 79 163 -24 hvcurveto
            58 17 rlineto
            321 94 201 103 191 vvcurveto
            143 -132 94 -198 -309 -273 -254 -363 return
          </CharString>
          <CharString index="248">
            1909 rmoveto
            -187 -120 -120 -211 -6 hvcurveto
            108 hlineto
            94 16 102 callsubr
            10 24 6 34 33 vvcurveto
            139 -1 -116 101 -157 hhcurveto
            return
          </CharString>
          <CharString index="249">
            129 656 rlineto
            98 65 114 54 130 hhcurveto
            44 40 -6 -12 29 hvcurveto
            10 23 12 44 44 vvcurveto
            88 -38 57 -79 -104 -78 -87 -212 -131 vhcurveto
            return
          </CharString>
          <CharString index="250">
            26 121 -257 0 36 154 -320 -24 -28 -130 -157 0 -25 -121 157 0 -254 -1193 317 -67 callsubr
            return
          </CharString>
          <CharString index="251">
            -20 -95 rlineto
            19 30 52 15 53 hhcurveto
            79 39 -30 -49 -60 -60 -59 -105 -65 hvcurveto
            133 hlineto
            166 69 92 63 100 vvcurveto
            100 -93 74 -125 vhcurveto
            return
          </CharString>
          <CharString index="252">
            -45 20 -53 hhcurveto
            -93 -76 -62 -220 -26 hvcurveto
            109 hlineto
            91 14 23 23 31 hhcurveto
            22 19 -10 -19 20 hvcurveto
            25 -22 rlineto
            -34 44 44 -20 53 hhcurveto
            return
          </CharString>
          <CharString index="253">
            20 81 61 120 hhcurveto
            107 71 -65 -79 -9 0 -9 -1 -5 hvcurveto
            120 hlineto
            11 28 7 39 38 vvcurveto
            161 -128 117 -175 vhcurveto
            return
          </CharString>
          <CharString index="254">
            1311 1498 1444 rmoveto
            -1138 hlineto
            -11 callsubr
            9 callsubr
            1176 40 callsubr
            return
          </CharString>
          <CharString index="255">
            rmoveto
            349 105 305 -105 23 112 -255 174 -70 0 -328 -174 rlineto
            147 -1277 -97 callsubr
          </CharString>
          <CharString index="256">
            -363 -4 235 -310 446 hhcurveto
            -21 147 rmoveto
            -177 -116 -38 callgsubr
            75 callgsubr
            return
          </CharString>
          <CharString index="257">
            rmoveto
            -200 -138 -169 -280 -8 vhcurveto
            -97 -3 134 633 rlineto
            107 hlineto
            170 104 -80 -173 hvcurveto
            endchar
          </CharString>
          <CharString index="258">
            0 228 1075 19 89 21 15 144 17 rlinecurve
            -89 callgsubr
            138 -16 19 -16 -19 -89 rlinecurve
            endchar
          </CharString>
          <CharString index="259">
            rmoveto
            -357 hlineto
            -16 -76 81 -10 5 -18 -14 -58 rlinecurve
            -116 -507 -11 -46 -14 -13 -84 -10 rlinecurve
            -17 -76 return
          </CharString>
          <CharString index="260">
            1578 rmoveto
            186 121 120 211 6 hvcurveto
            -108 hlineto
            -94 -17 -72 -53 -108 hhcurveto
            -95 return
          </CharString>
          <CharString index="261">
            hvcurveto
            -17 -81 rlineto
            17 27 45 12 48 -104 callgsubr
            115 hlineto
            145 58 81 55 85 vvcurveto
            84 return
          </CharString>
          <CharString index="262">
            -268 158 -192 290 hvcurveto
            12 142 rmoveto
            -87 -54 75 155 100 callsubr
            hvcurveto
            return
          </CharString>
          <CharString index="263">
            922 695 1040 rmoveto
            -459 124 callsubr
            -84 callsubr
            142 callsubr
            return
          </CharString>
          <CharString index="264">
            127 599 rlineto
            162 34 103 105 91 hhcurveto
            76 45 -62 -118 -25 hvcurveto
            -75 callsubr
            return
          </CharString>
          <CharString index="265">
            1534 rmoveto
            635 -97 23 108 -619 174 rlineto
            -111 -525 rmoveto
            655 hlineto
            return
          </CharString>
          <CharString index="266">
            -19 15 -17 -18 -86 rlinecurve
            -196 -920 -71 -332 -105 -122 -238 -143 rlinecurve
            30 -90 return
          </CharString>
          <CharString index="267">
            -53 hhcurveto
            -93 -19 callgsubr
            14 23 23 31 hhcurveto
            22 18 -10 -19 21 hvcurveto
            25 -22 rlineto
            -34 return
          </CharString>
          <CharString index="268">
            -103 171 -210 -264 -148 -243 -251 2 vhcurveto
            -188 103 -171 210 vhcurveto
            return
          </CharString>
          <CharString index="269">
            473 1213 rmoveto
            -208 -982 rlineto
            -19 -89 -24 -15 -147 -17 -24 -110 rcurveline
            return
          </CharString>
          <CharString index="270">
            1573 rmoveto
            80 66 66 81 74 -57 58 -78 -82 -66 -64 -83 -73 58 -59 79 hvcurveto
            return
          </CharString>
          <CharString index="271">
            1180 rmoveto
            187 172 102 209 64 hvcurveto
            -116 34 rlineto
            -144 -50 return
          </CharString>
          <CharString index="272">
            116 106 131 132 -116 85 -160 -198 -115 -107 -131 vhcurveto
            return
          </CharString>
          <CharString index="273">
            19 87 22 15 149 19 rlinecurve
            23 110 -662 0 -23 -110 133 -17 return
          </CharString>
          <CharString index="274">
            -43 -27 -94 -20 rrcurveto
            82 -66 141 33 92 55 22 98 rlinecurve
            97 20 -88 57 return
          </CharString>
          <CharString index="275">
            rmoveto
            279 3 191 162 228 vvcurveto
            140 -84 26 callgsubr
          </CharString>
          <CharString index="276">
            rmoveto
            486 301 392 438 155 -43 146 -84 115 hvcurveto
            169 163 -87 92 -166 -161 rlineto
            101 -112 -156 61 -198 hhcurveto
            -486 -107 callsubr
            hvcurveto
            -2 -156 43 -146 85 -117 rrcurveto
            -168 -161 87 -92 166 160 rlineto
            -100 112 156 -61 198 hhcurveto
            -314 587 rmoveto
            -85 callgsubr
            119 92 -63 -133 47 vhcurveto
            -697 -671 rlineto
            -3 31 -2 33 35 vvcurveto
            294 -440 rmoveto
            -119 -92 63 132 -47 hvcurveto
            697 672 rlineto
            3 -31 1 -32 -35 vvcurveto
            -387 -179 -382 -264 vhcurveto
            endchar
          </CharString>
          <CharString index="277">
            rmoveto
            -251 -21 130 -170 235 hhcurveto
            164 114 89 172 59 hvcurveto
            -157 6 121 -104 177 hhcurveto
            317 201 286 343 19 hvcurveto
            280 15 -113 166 -159 hhcurveto
            -117 -81 -109 -142 12 hvcurveto
            173 -31 95 -129 -10 -171 rrcurveto
            -175 -9 -107 -137 -129 hhcurveto
            -137 -80 102 292 73 hvcurveto
            47 198 -266 0 -44 -207 rlineto
            -291 -61 -66 -94 -105 hhcurveto
            -96 -43 72 168 11 hvcurveto
            13 242 104 210 154 119 rrcurveto
            -48 76 -307 -81 -219 -263 -22 -303 rlinecurve
            endchar
          </CharString>
          <CharString index="278">
            rmoveto
            161 119 91 160 103 hvcurveto
            -167 20 63 -78 131 hhcurveto
            73 84 44 43 39 hvcurveto
            23 109 rlineto
            -8 -11 -28 -6 -23 hhcurveto
            -81 -41 21 225 -39 hvcurveto
            -12 63 329 553 rlineto
            -305 hlineto
            -15 -62 -46 -123 -43 -109 rrcurveto
            213 -27 -95 106 -189 hhcurveto
            -268 -217 -261 -370 -24 hvcurveto
            -269 -24 123 -175 220 hhcurveto
            7 484 rmoveto
            275 14 95 156 112 hhcurveto
            94 21 -97 -343 24 hvcurveto
            3 -34 rlineto
            -168 -84 -81 -72 -83 hhcurveto
            -88 -41 88 195 14 hvcurveto
            endchar
          </CharString>
          <CharString index="279">
            718 1221 rmoveto
            2 -109 -163 -22 -120 -7 -17 -84 rcurveline
            2 15 17 2 27 hhcurveto
            108 68 -49 -80 hvcurveto
            -110 2 -84 -53 -85 hhcurveto
            -36 -30 6 12 -23 hvcurveto
            17 16 10 23 26 vvcurveto
            51 -36 38 -53 -54 -39 -40 -54 -113 139 -64 131 175 179 94 179 vhcurveto
            -2 93 -63 72 -110 32 121 13 115 66 -2 113 rrcurveto
            128 -129 61 -129 -147 -127 -84 -151 -49 vhcurveto
            64 -25 rlineto
            75 39 59 41 77 hhcurveto
            87 45 -49 -49 1 hvcurveto
            return
          </CharString>
          <CharString index="280">
            rmoveto
            229 184 76 119 102 hvcurveto
            18 114 rlineto
            -66 -77 -154 -53 -149 hhcurveto
            -144 -72 52 79 115 106 45 204 hvcurveto
            56 hlineto
            10 195 rlineto
            -71 hlineto
            -187 -50 49 73 85 73 63 161 70 58 -11 -18 44 hvcurveto
            -28 -25 -16 -39 -36 vvcurveto
            -69 1 53 -57 84 hhcurveto
            78 58 61 80 126 -112 117 -305 -330 -186 -134 -188 -107 70 -86 145 -28 hvcurveto
            -185 -22 -137 -91 -162 vvcurveto
            -151 138 -106 261 vhcurveto
            endchar
          </CharString>
          <CharString index="281">
            rmoveto
            341 245 281 333 102 -23 91 -44 73 hvcurveto
            118 115 -82 87 -114 -109 rlineto
            63 -74 -100 36 -125 hhcurveto
            -341 -245 -280 -333 -104 24 -92 46 -75 hvcurveto
            -112 -107 83 -88 107 104 rlineto
            -62 74 99 -35 123 hhcurveto
            131 934 rmoveto
            66 47 -43 -88 20 hvcurveto
            -395 -381 rlineto
            227 11 86 285 165 hhcurveto
            -120 -796 rmoveto
            -65 -47 42 85 -20 hvcurveto
            393 379 rlineto
            -226 -12 -85 -280 -164 hhcurveto
            endchar
          </CharString>
          <CharString index="282">
            rmoveto
            -94 72 -75 115 180 141 109 323 233 vhcurveto
            568 787 81 111 30 20 133 16 rlinecurve
            23 110 -501 0 -23 -110 168 -19 -3 -12 -78 -115 rlinecurve
            -380 -565 -147 565 -30 113 3 14 177 19 rlinecurve
            23 110 -699 0 -23 -110 126 -16 22 -20 34 -111 rlinecurve
            267 -884 -64 -86 -59 -59 -65 -32 rlinecurve
            4 1 5 5 vvcurveto
            94 -71 67 -87 -94 -73 -74 -90 vhcurveto
            endchar
          </CharString>
          <CharString index="283">
            rmoveto
            -10 -55 -151 -25 -21 -100 154 0 -143 -868 -38 -231 -52 -88 -69 -26 rlinecurve
            7 16 4 18 19 vvcurveto
            76 -58 60 -71 -75 -61 -60 -80 -107 85 -79 142 254 195 204 613 106 vhcurveto
            94 533 247 0 32 146 -262 -8 19 112 31 199 58 82 86 5 rlinecurve
            -15 -22 -8 -26 -29 vvcurveto
            -77 60 -58 73 78 63 61 79 113 -107 87 -180 -252 -158 -179 -305 -57 vhcurveto
            endchar
          </CharString>
          <CharString index="284">
            rmoveto
            88 71 29 37 39 hvcurveto
            23 107 rlineto
            -15 -19 -27 -10 -30 hhcurveto
            -63 -40 58 84 60 22 59 45 51 hvcurveto
            471 13 291 385 431 vvcurveto
            362 -232 310 -445 -486 -107 callsubr
            vhcurveto
            -4 -332 198 -289 377 -45 rrcurveto
            -137 -78 -83 -97 -103 vvcurveto
            -110 100 -78 142 vhcurveto
            64 606 rmoveto
            -178 -116 140 300 -85 callgsubr
            -64 callgsubr
            hvcurveto
            endchar
          </CharString>
          <CharString index="285">
            320 hlineto
            121 578 rlineto
            210 45 95 78 93 hhcurveto
            79 55 -62 -149 -31 hvcurveto
            -16 -79 -191 -890 -31 -146 rrcurveto
            325 hlineto
            233 1144 rlineto
            251 51 -112 116 -197 hhcurveto
            -170 -118 -98 -161 -78 hvcurveto
            179 15 -68 70 -143 hhcurveto
            -84 -83 -25 -37 -67 hvcurveto
            -22 -105 rlineto
            3 11 15 4 24 hhcurveto
            64 45 -35 -109 -19 hvcurveto
            -14 -84 -126 -567 -21 -86 rrcurveto
            endchar
          </CharString>
          <CharString index="286">
            663 hlineto
            23 110 -133 17 -17 18 18 86 rlinecurve
            6 26 710 692 -152 -718 -19 -89 -21 -15 -144 -17 -16 callgsubr
            -138 16 -18 16 19 89 rlinecurve
            208 982 19 89 24 15 146 17 rlinecurve
            -89 callgsubr
            136 -17 15 -15 -19 -89 rlinecurve
            -7 -33 -710 -692 153 725 19 87 22 16 143 18 rlinecurve
            -89 callgsubr
            54 callgsubr
            endchar
          </CharString>
          <CharString index="287">
            rmoveto
            100 91 60 59 47 hvcurveto
            24 113 rlineto
            -23 -38 -29 -10 -32 hhcurveto
            -52 -45 28 73 -35 hvcurveto
            -171 339 65 69 47 52 36 40 31 32 rlinecurve
            -52 25 50 -34 63 hhcurveto
            88 77 73 91 -1 hvcurveto
            84 -1 -61 75 -101 hhcurveto
            -107 -72 -75 -155 -133 hvcurveto
            -250 -308 113 527 64 callgsubr
            103 478 150 -300 rlineto
            -133 55 64 -63 122 hhcurveto
            endchar
          </CharString>
          <CharString index="288">
            1143 -298 rmoveto
            92 -90 144 155 0 1 51 -34 rlineto
            -88 132 78 -30 99 hhcurveto
            136 139 86 219 108 hvcurveto
            -74 64 rlineto
            -82 -54 -60 -30 -51 hhcurveto
            -79 1 -58 25 -103 61 rrcurveto
            -52 31 542 572 23 107 -793 0 -94 -356 rlineto
            99 hlineto
            101 39 24 16 82 hhcurveto
            303 hlineto
            -1491 -414 2 callgsubr
          </CharString>
          <CharString index="289">
            rmoveto
            -479 -60 -23 -106 85 -18 rlineto
            45 -9 12 -20 -11 -50 -73 -345 rcurveline
            -284 -60 134 -174 336 hhcurveto
            314 236 155 228 213 -176 96 -230 -78 -72 -10 -13 -43 hvcurveto
            -58 -281 rmoveto
            32 153 rlineto
            10 28 44 7 42 hhcurveto
            123 61 -69 -119 -143 -84 -96 -118 -111 -55 76 181 38 hvcurveto
            endchar
          </CharString>
          <CharString index="290">
            rmoveto
            85 85 28 38 41 hvcurveto
            22 107 rlineto
            -14 -18 -29 -11 -31 hhcurveto
            -61 -44 52 89 64 24 66 38 49 hvcurveto
            306 34 217 264 313 vvcurveto
            268 113 callsubr
            -242 130 -180 238 -33 vhcurveto
            -130 -76 -72 -97 -105 vvcurveto
            -109 92 -82 146 vhcurveto
            56 606 rmoveto
            -87 -54 75 155 100 callsubr
            hvcurveto
            endchar
          </CharString>
          <CharString index="291">
            -23 -110 rcurveline
            611 hlineto
            494 307 166 286 hvcurveto
            -296 639 rmoveto
            -167 -121 -109 -198 vhcurveto
            -120 hlineto
            107 503 81 -3 rlineto
            161 -5 90 -71 -148 vvcurveto
            -75 -651 rmoveto
            -196 -141 -110 -288 -6 vhcurveto
            -82 -2 121 563 120 -1 rlineto
            166 -2 104 -86 -160 vvcurveto
            return
          </CharString>
          <CharString index="292">
            -20 -18 -152 -18 rlinecurve
            -23 -110 686 0 24 109 rlineto
            -158 19 -15 18 18 85 92 434 rcurveline
            177 hlineto
            68 17 -26 -170 -7 hvcurveto
            93 hlineto
            110 518 rlineto
            -94 hlineto
            -170 -67 -26 -25 -67 hhcurveto
            -177 hlineto
            111 526 188 -7 221 -8 47 -35 7 -216 rlinecurve
            99 hlineto
            endchar
          </CharString>
          <CharString index="293">
            149 -1136 286 0 633 1132 91 161 28 25 126 16 rlinecurve
            23 110 -480 0 -24 -110 144 -21 14 -28 -82 -151 rlinecurve
            -459 -858 -94 858 -17 150 24 29 155 21 rlinecurve
            24 110 -677 0 -23 -110 115 -16 23 -24 21 -158 rlinecurve
            return
          </CharString>
          <CharString index="294">
            1205 rmoveto
            109 89 76 8 callsubr
            -26 -23 13 24 -27 hvcurveto
            -32 27 rlineto
            42 -50 -53 26 -64 hhcurveto
            -108 -90 -76 -269 -33 hvcurveto
            124 hlineto
            114 17 28 28 39 104 callgsubr
            return
          </CharString>
          <CharString index="295">
            144 681 rlineto
            -2 14 15 -1 16 hhcurveto
            140 102 75 136 92 -50 76 -67 44 hvcurveto
            -95 hlineto
            6 -16 5 -28 -30 vvcurveto
            -154 -104 -114 -296 -38 vhcurveto
            -139 -19 -22 -101 72 -16 rlineto
            50 -15 11 -16 -11 -53 -79 -365 rcurveline
            -152 -32 -90 -93 -99 hhcurveto
            -79 -47 58 117 25 hvcurveto
            return
          </CharString>
          <CharString index="296">
            -10 22 18 88 rlinecurve
            186 904 163 -1142 180 0 235 439 396 702 -178 -914 -16 -83 -21 -19 -152 -15 -16 callgsubr
            -141 15 -16 19 17 83 rlinecurve
            196 989 16 84 20 19 153 15 rlinecurve
            23 110 -563 0 -528 -990 rlineto
            return
          </CharString>
          <CharString index="297">
            123 204 vvcurveto
            370 186 226 260 216 135 -142 -242 -317 -145 -234 -241 -65 vhcurveto
            -69 -324 634 0 119 365 rlineto
            -88 hlineto
            -103 -148 -92 -37 -308 -4 13 61 rcurveline
            393 80 236 281 315 vvcurveto
            319 -257 239 return
          </CharString>
          <CharString index="298">
            331 239 203 379 84 hvcurveto
            180 809 rlineto
            -2 13 13 0 14 hhcurveto
            173 113 83 144 95 -52 88 -63 48 hvcurveto
            -105 hlineto
            10 -18 4 -32 -31 vvcurveto
            -156 -105 -134 -212 vhcurveto
            -112 hlineto
            81 callsubr
            125 -22 15 -19 -19 -90 rlinecurve
            return
          </CharString>
          <CharString index="299">
            1457 1466 452 rmoveto
            158 -116 136 -233 31 vhcurveto
            226 25 179 111 2 196 rrcurveto
            207 2 -184 128 -402 hhcurveto
            -580 -34 callgsubr
            -209 -981 rcurveline
            -19 -85 -21 -18 -150 -18 184 callsubr
            return
          </CharString>
          <CharString index="300">
            1240 1028 1488 rmoveto
            115 95 82 151 32 hvcurveto
            -123 hlineto
            -51 -11 -29 -22 -42 hhcurveto
            -26 -26 8 14 -34 hvcurveto
            -33 13 rlineto
            18 -42 -45 13 -52 hhcurveto
            -114 -97 -82 -150 -32 hvcurveto
            124 hlineto
            50 11 30 22 41 hhcurveto
            26 235 callsubr
            return
          </CharString>
          <CharString index="301">
            rmoveto
            349 220 283 327 268 -172 197 -291 -348 -221 -283 -327 -268 173 -197 290 hvcurveto
            -3 142 rmoveto
            -91 -48 77 158 221 87 335 164 91 48 -77 -158 -221 -86 -335 -165 hvcurveto
            endchar
          </CharString>
          <CharString index="302">
            rmoveto
            -1121 hlineto
            -23 -110 141 -18 16 -17 -19 -86 rlinecurve
            -208 -982 -18 -86 -21 -16 -151 -19 rlinecurve
            -24 -110 695 0 23 110 -165 20 -16 16 18 85 rlinecurve
            230 1087 195 -9 237 -9 31 -36 10 -212 rlinecurve
            97 hlineto
            endchar
          </CharString>
          <CharString index="303">
            -348 rmoveto
            147 110 63 97 20 hvcurveto
            97 20 -82 64 -147 hhcurveto
            -90 hlineto
            -146 -111 -64 -97 -20 hvcurveto
            -97 -21 84 -63 145 hhcurveto
            95 104 rmoveto
            -55 hlineto
            -45 -21 23 33 7 hvcurveto
            34 7 32 23 44 hhcurveto
            56 hlineto
            45 20 -23 -34 -7 hvcurveto
            -33 -7 return
          </CharString>
          <CharString index="304">
            -428 -57 -23 -108 69 -13 rlineto
            56 -13 14 -17 3 -43 52 -791 rcurveline
            240 hlineto
            257 246 316 421 210 vvcurveto
            103 -73 71 -100 -97 -75 -69 -92 -84 66 -69 84 -6 vhcurveto
            -60 -183 -126 -178 -141 -155 rrcurveto
            return
          </CharString>
          <CharString index="305">
            124 0 164 324 1 0 182 293 -90 -475 -9 -45 -12 -13 -89 -8 rlinecurve
            -16 -76 418 0 16 76 -83 8 -8 12 9 46 rlinecurve
            104 529 9 45 12 13 89 9 rlinecurve
            16 75 -368 1 -268 -485 rlineto
            return
          </CharString>
          <CharString index="306">
            -156 -107 113 206 251 128 180 162 20 18 -2 -4 17 hvcurveto
            -48 -25 -31 -50 -57 vvcurveto
            -83 66 -62 84 92 71 66 92 145 -123 114 -208 vhcurveto
            -331 -1 -246 -267 -349 vvcurveto
            return
          </CharString>
          <CharString index="307">
            -492 rmoveto
            86 89 29 37 35 hvcurveto
            23 107 rlineto
            -15 -25 -31 -9 -41 hhcurveto
            -61 -42 29 63 77 53 73 134 79 hvcurveto
            107 62 -122 0 -141 -66 rlineto
            -209 -103 -78 -89 -107 vvcurveto
            -96 89 -71 134 vhcurveto
            endchar
          </CharString>
          <CharString index="308">
            18 -18 -19 -86 rlinecurve
            -228 -1075 -487 0 229 1078 18 87 18 18 139 13 rlinecurve
            23 110 -643 0 -23 -110 130 -12 14 -19 -18 -87 rlinecurve
            -229 -1078 -488 151 callsubr
          </CharString>
          <CharString index="309">
            -250 -9 rrcurveto
            -228 -9 116 548 rlineto
            202 hlineto
            67 18 -27 -169 -8 hvcurveto
            95 hlineto
            110 518 rlineto
            -94 hlineto
            -169 -68 -27 -27 -66 hhcurveto
            -203 hlineto
            110 518 216 -8 219 -8 return
          </CharString>
          <CharString index="310">
            -91 -392 rlineto
            99 hlineto
            98 232 53 23 205 8 rrcurveto
            71 3 -231 -1087 -18 -85 -21 -17 -166 -19 rlinecurve
            -23 -110 699 0 24 110 rlineto
            -157 19 -15 17 18 85 90 422 rcurveline
            return
          </CharString>
          <CharString index="311">
            -325 -44 -124 -586 rlineto
            -146 -30 -92 -104 -103 hhcurveto
            -73 -34 59 106 23 hvcurveto
            150 715 -326 -41 -123 -589 rlineto
            -145 -31 -91 -105 -101 hhcurveto
            -73 -33 60 105 21 hvcurveto
            147 return
          </CharString>
          <CharString index="312">
            -26 -36 -43 -11 -34 hhcurveto
            -50 -14 35 65 13 hvcurveto
            164 766 -473 -64 -21 -101 72 -16 rlineto
            50 -15 11 -17 -12 -52 -79 -366 rcurveline
            -151 -32 -89 -93 -99 hhcurveto
            -79 -47 58 117 24 hvcurveto
            return
          </CharString>
          <CharString index="313">
            23 110 -682 0 -23 -110 rlineto
            139 -18 17 -17 -18 -86 -208 -982 rcurveline
            -19 -86 -21 -16 -150 -19 -24 -110 rcurveline
            695 hlineto
            412 303 197 315 hvcurveto
            return
          </CharString>
          <CharString index="314">
            -96 -451 rcurveline
            -196 -42 70 -153 207 hhcurveto
            127 140 62 177 91 hvcurveto
            -140 -2 81 -99 178 hhcurveto
            130 144 74 183 89 hvcurveto
            -2 -8 -7 -37 -9 vvcurveto
            return
          </CharString>
          <CharString index="315">
            vvcurveto
            197 141 82 142 29 26 -3 -5 24 vhcurveto
            -28 -23 -19 -34 -45 vvcurveto
            -76 54 -62 84 80 62 62 81 138 -141 106 -240 -289 -241 -167 -298 -2 vhcurveto
            return
          </CharString>
          <CharString index="316">
            1072 194 281 rmoveto
            72 -51 128 -36 155 -8 rrcurveto
            -40 -186 92 0 39 185 rlineto
            324 8 143 158 178 vvcurveto
            124 -63 93 -178 80 vhcurveto
            return
          </CharString>
          <CharString index="317">
            803 1476 rmoveto
            -280 -2 -191 -162 -228 vvcurveto
            -140 83 -79 104 125 76 109 126 3 vhcurveto
            -86 13 -58 44 72 vvcurveto
            78 79 56 121 6 vhcurveto
            return
          </CharString>
          <CharString index="318">
            49 -85 142 -213 hhcurveto
            -158 -121 -110 -147 -60 hvcurveto
            144 9 -81 113 -191 hhcurveto
            -154 -117 -90 -171 -78 hvcurveto
            54 250 -64 callsubr
            return
          </CharString>
          <CharString index="319">
            1874 rmoveto
            34 158 -704 -148 -19 -91 rlineto
            -45 -210 -103 callgsubr
            return
          </CharString>
          <CharString index="320">
            hmoveto
            -229 -396 151 0 380 387 rlineto
            9 vlineto
            return
          </CharString>
          <CharString index="321">
            rmoveto
            -182 -138 -152 -280 -8 vhcurveto
            -98 -3 124 return
          </CharString>
          <CharString index="322">
            rmoveto
            193 125 124 220 7 hvcurveto
            -112 hlineto
            -96 return
          </CharString>
          <CharString index="323">
            1909 rmoveto
            -186 -120 -120 -211 -6 hvcurveto
            return
          </CharString>
          <CharString index="324">
            1849 rmoveto
            672 hlineto
            26 125 rlineto
            -671 hlineto
            return
          </CharString>
          <CharString index="325">
            1565 rmoveto
            -207 -137 -139 -244 -9 hvcurveto
            return
          </CharString>
          <CharString index="326">
            1559 rmoveto
            635 -95 22 107 -618 174 rlineto
            return
          </CharString>
          <CharString index="327">
            1464 439 1136 rmoveto
            186 callsubr
            return
          </CharString>
          <CharString index="328">
            1264 rmoveto
            647 hlineto
            39 181 rlineto
            -648 hlineto
            return
          </CharString>
          <CharString index="329">
            -243 -251 2 vhcurveto
            -188 103 -171 211 vhcurveto
            return
          </CharString>
          <CharString index="330">
            -183 hlineto
            67 318 19 87 27 13 158 21 rlinecurve
            return
          </CharString>
          <CharString index="331">
            -147 -120 -112 -151 -138 111 -109 return
          </CharString>
          <CharString index="332">
            -127 hhcurveto
            -693 -598 rmoveto
            349 105 305 -105 return
          </CharString>
          <CharString index="333">
            1024 800 1472 rmoveto
            -87 -35 -69 -106 12 hvcurveto
            return
          </CharString>
          <CharString index="334">
            655 0 22 110 -128 16 -12 20 18 85 rlinecurve
            return
          </CharString>
          <CharString index="335">
            145 -216 hhcurveto
            -161 -121 -93 -168 -83 hvcurveto
            return
          </CharString>
          <CharString index="336">
            103 97 118 121 -104 76 -143 -178 -104 -98 return
          </CharString>
          <CharString index="337">
            78 rmoveto
            -52 hlineto
            -44 -19 16 26 5 hvcurveto
            26 5 28 16 return
          </CharString>
          <CharString index="338">
            71 hhcurveto
            81 48 -46 -59 1 hvcurveto
            2 -77 -45 -53 -159 return
          </CharString>
          <CharString index="339">
            61 98 72 hvcurveto
            25 114 rlineto
            -61 -69 -89 -21 -70 hhcurveto
            return
          </CharString>
          <CharString index="340">
            61 -78 -97 -62 -74 -93 -137 122 -97 166 vhcurveto
            return
          </CharString>
          <CharString index="341">
            44 124 -3 hvcurveto
            225 -2 75 261 116 hhcurveto
            return
          </CharString>
          <CharString index="342">
            26 -7 -15 34 hvcurveto
            33 -13 rlineto
            -18 43 44 -13 52 hhcurveto
            return
          </CharString>
          <CharString index="343">
            24 112 -256 174 -69 0 -329 -174 rlineto
            return
          </CharString>
          <CharString index="344">
            rmoveto
            -81 -66 -65 -81 -74 57 -59 79 81 66 65 82 74 return
          </CharString>
          <CharString index="345">
            rmoveto
            -95 -307 112 0 198 300 rlineto
            7 vlineto
            return
          </CharString>
        <CharString name=".notdef">
          2048 -8 -494 rmoveto
          216 hlineto
          519 2444 rlineto
          -216 hlineto
          -109 104 callsubr
          -110 104 callsubr
          -109 104 callsubr
          -110 104 callsubr
          endchar
        </CharString>
        <CharString name=".null">
          0 endchar
        </CharString>
        <CharString name="A">
          1464 1332 308 -103 callsubr
        </CharString>
        <CharString name="AE">
          2040 2201 1444 131 callsubr
        </CharString>
        <CharString name="AEacute">
          2040 1602 -98 callsubr
          -61 callsubr
          314 -422 131 callsubr
        </CharString>
        <CharString name="AEmacron">
          2040 1224 49 callsubr
          942 -339 131 callsubr
        </CharString>
        <CharString name="Aacute">
          1464 1135 -98 callsubr
          -61 callsubr
          -88 -1558 -103 callsubr
        </CharString>
        <CharString name="Abreve">
          1464 1079 68 callsubr
          92 callsubr
          253 -1270 -103 callsubr
        </CharString>
        <CharString name="Abreveacute">
          1464 1437 -54 callgsubr
          279 -267 -31 callsubr
          -95 -39 -119 44 callsubr
          304 -1217 -103 callsubr
        </CharString>
        <CharString name="Abrevecyrillic">
          1464 1028 1573 rmoveto
          187 38 callgsubr
          39 callgsubr
          304 -1265 -103 callsubr
        </CharString>
        <CharString name="Abrevedotbelow">
          1464 1079 68 callsubr
          92 callsubr
          253 -1270 rmoveto
          -38 callsubr
          36 callsubr
          -355 -758 -15 callgsubr
        </CharString>
        <CharString name="Abrevegrave">
          1464 766 1873 rmoveto
          655 -81 19 91 -641 149 rlineto
          229 -507 -31 callsubr
          -95 -39 -119 44 callsubr
          304 -1217 -103 callsubr
        </CharString>
        <CharString name="Abrevehookabove">
          1464 1113 2030 rmoveto
          -85 -86 -26 -31 -55 59 callgsubr
          -96 -17 rrcurveto
          87 32 callgsubr
          -95 -39 -119 44 callsubr
          304 -1217 -103 callsubr
        </CharString>
        <CharString name="Abrevetilde">
          1464 1228 1815 -55 callgsubr
          -19 -43 hhcurveto
          -27 -27 7 12 -35 hvcurveto
          -34 11 rlineto
          15 -45 -45 12 -53 hhcurveto
          -118 -96 -70 -128 -76 callgsubr
          19 42 hhcurveto
          27 27 -7 -11 35 hvcurveto
          34 -12 rlineto
          -15 45 45 -12 54 hhcurveto
          -200 -290 -31 callsubr
          -95 -39 -119 44 callsubr
          304 -1217 -103 callsubr
        </CharString>
        <CharString name="Acaron">
          1464 1286 72 callgsubr
          -85 -1575 -103 callsubr
        </CharString>
        <CharString name="Acircumflex">
          1464 864 -1 callsubr
          592 -1252 -103 callsubr
        </CharString>
        <CharString name="Acircumflexacute">
          1464 1433 1854 rmoveto
          34 158 -704 -149 -19 -91 rlineto
          -58 -281 rmoveto
          354 60 callsubr
          -71 0 -330 -148 rlineto
          626 -1277 -103 callsubr
        </CharString>
        <CharString name="Acircumflexdotbelow">
          1464 864 -1 callsubr
          592 -1252 rmoveto
          -38 callsubr
          36 callsubr
          -355 -758 -15 callgsubr
        </CharString>
        <CharString name="Acircumflexgrave">
          1464 762 1854 rmoveto
          654 -82 20 91 -642 149 rlineto
          -108 -521 rmoveto
          354 60 callsubr
          -71 0 -330 -148 rlineto
          626 -1277 -103 callsubr
        </CharString>
        <CharString name="Acircumflexhookabove">
          1464 1403 61 callgsubr
          73 33 11 callgsubr
          -717 -492 rmoveto
          354 60 callsubr
          -71 0 -330 -148 rlineto
          626 -1277 -103 callsubr
        </CharString>
        <CharString name="Acircumflextilde">
          1464 1224 -33 callgsubr
          -27 -27 7 12 -35 hvcurveto
          -34 12 rlineto
          15 -45 -45 12 -53 hhcurveto
          -118 -96 -70 -129 -76 callgsubr
          67 callgsubr
          -538 -305 rmoveto
          354 60 callsubr
          -71 0 -330 -148 rlineto
          626 -1277 -103 callsubr
        </CharString>
        <CharString name="Acyrillic">
          1464 1332 308 -103 callsubr
        </CharString>
        <CharString name="Adblgrave">
          1464 895 1867 rmoveto
          -222 90 callsubr
          122 -1252 -103 callsubr
        </CharString>
        <CharString name="Adieresis">
          1464 884 -79 callsubr
          -54 callsubr
          359 hmoveto
          73 61 -72 callsubr
          89 -1277 -103 callsubr
        </CharString>
        <CharString name="Adieresismacron">
          1464 761 217 callsubr
          63 -425 rmoveto
          -12 callsubr
          -21 callgsubr
          -56 -13 hvcurveto
          -56 -11 41 -40 63 hhcurveto
          376 hmoveto
          64 59 40 56 12 hvcurveto
          56 12 -41 41 -64 hhcurveto
          -15 hlineto
          -63 -59 -41 -56 -13 hvcurveto
          -56 -11 40 -40 64 hhcurveto
          135 -1241 -103 callsubr
        </CharString>
        <CharString name="Adotaccent">
          1464 1063 -17 callsubr
          -57 58 -79 -81 -66 -64 -83 -73 57 -59 79 hvcurveto
          269 -1265 -103 callsubr
        </CharString>
        <CharString name="Adotbelow">
          1464 1332 308 rmoveto
          -38 callsubr
          36 callsubr
          -355 -758 -15 callgsubr
        </CharString>
        <CharString name="Adotmacron">
          1464 755 1822 rmoveto
          672 hlineto
          26 126 rlineto
          -671 hlineto
          30 callgsubr
          55 -44 69 vhcurveto
          275 -1232 -103 callsubr
        </CharString>
        <CharString name="Agrave">
          1464 1013 -52 callsubr
          214 -1252 -103 callsubr
        </CharString>
        <CharString name="Ahookabove">
          1464 1103 1902 rmoveto
          -94 -75 -31 -39 -41 154 callsubr
          -80 63 -113 vhcurveto
          229 -1594 -103 callsubr
        </CharString>
        <CharString name="Ainvertedbreve">
          1464 1068 141 callsubr
          264 -1601 -103 callsubr
        </CharString>
        <CharString name="Alphagreek">
          1464 1332 308 -103 callsubr
        </CharString>
        <CharString name="Alphatonosgreek">
          1464 1332 308 rmoveto
          -38 callsubr
          16 -150 -24 -29 -155 -21 rlinecurve
          -23 -110 676 0 -35 callgsubr
          -912 1136 rmoveto
          -163 -406 174 0 301 392 rlineto
          14 vlineto
          -154 -847 rmoveto
          305 569 63 -569 rlineto
          endchar
        </CharString>
        <CharString name="Amacron">
          1464 756 7 callsubr
          540 -1475 -103 callsubr
        </CharString>
        <CharString name="Aogonek">
          1464 1095 90 callgsubr
          -29 hhcurveto
          -63 -41 60 88 68 26 68 54 56 hvcurveto
          251 hlineto
          -35 callgsubr
          -38 callsubr
          rlineto
          16 -150 -24 -29 -155 -21 -23 -110 rcurveline
          295 107 callgsubr
          -517 1085 rmoveto
          305 569 63 -569 rlineto
          endchar
        </CharString>
        <CharString name="Aring">
          1464 813 1752 rmoveto
          -121 104 -76 144 178 229 callsubr
          92 callgsubr
          -47 -46 -54 -47 -30 34 55 vhcurveto
          343 -1439 -103 callsubr
        </CharString>
        <CharString name="Aringacute">
          1464 1433 1857 rmoveto
          34 158 -703 -148 -19 -91 rlineto
          322 -267 rmoveto
          140 101 48 72 15 hvcurveto
          73 16 -81 48 -140 hhcurveto
          -86 hlineto
          -139 -102 -48 -73 -15 hvcurveto
          -72 -15 82 -48 138 hhcurveto
          86 230 callsubr
          43 hhcurveto
          52 hlineto
          44 20 -16 -26 -5 hvcurveto
          -26 -5 -29 -16 -43 hhcurveto
          265 -1279 -103 callsubr
        </CharString>
        <CharString name="Aringbelow">
          1464 1332 308 rmoveto
          -38 callsubr
          36 callsubr
          -657 -905 136 callsubr
          -35 31 49 -2 hvcurveto
          endchar
        </CharString>
        <CharString name="Atilde">
          1464 1175 -47 callsubr
          -13 -24 101 callgsubr
          160 callsubr
          44 44 -20 53 hhcurveto
          157 -1278 -103 callsubr
        </CharString>
        <CharString name="B">
          1457 1466 452 82 callsubr
        </CharString>
        <CharString name="Bdotaccent">
          1457 1042 -15 callsubr
          23 callsubr
          424 -1121 82 callsubr
        </CharString>
        <CharString name="Bdotbelow">
          192 callsubr
          -447 -601 -85 callsubr
          -71 callsubr
        </CharString>
        <CharString name="Becyrillic">
          1450 1471 476 rmoveto
          217 -169 157 -362 vhcurveto
          -192 hlineto
          97 465 238 -8 239 -9 33 -36 15 -210 rlinecurve
          101 hlineto
          72 392 -1185 0 -23 -110 rlineto
          151 -19 16 -16 -19 -86 -208 -982 rcurveline
          -18 -86 -24 -16 -158 -19 -24 -110 rcurveline
          705 hlineto
          413 302 184 292 hvcurveto
          -361 -2 214 callsubr
          587 rlineto
          117 hlineto
          170 105 -76 -166 hvcurveto
          endchar
        </CharString>
        <CharString name="Betagreek">
          1457 1466 452 82 callsubr
        </CharString>
        <CharString name="Blinebelow">
          192 callsubr
          -770 -822 -62 callsubr
        </CharString>
        <CharString name="C">
          1440 614 584 -53 callsubr
          -36 callsubr
        </CharString>
        <CharString name="Cacute">
          1440 1252 -98 callsubr
          -83 callsubr
          -924 -1282 -53 callsubr
          -36 callsubr
        </CharString>
        <CharString name="Ccaron">
          1440 1403 -66 callsubr
          -48 callsubr
          -921 -1299 -53 callsubr
          -36 callsubr
        </CharString>
        <CharString name="Ccedilla">
          1440 614 584 -53 callsubr
          -4 -398 247 -234 327 -44 rrcurveto
          -102 -106 -70 callsubr
          99 callsubr
          189 -20 callsubr
          56 callgsubr
        </CharString>
        <CharString name="Ccedillaacute">
          1440 1252 -98 callsubr
          -83 callsubr
          -924 -1282 -53 callsubr
          -4 -398 247 -234 327 -44 rrcurveto
          -102 -106 -70 callsubr
          99 callsubr
          189 -20 callsubr
          56 callgsubr
        </CharString>
        <CharString name="Ccircumflex">
          1440 981 -65 callsubr
          -28 callsubr
          -243 -976 -53 callsubr
          -36 callsubr
        </CharString>
        <CharString name="Cdotaccent">
          1440 1181 163 callsubr
          -567 -989 -53 callsubr
          -36 callsubr
        </CharString>
        <CharString name="Checyrillic">
          1634 1127 231 rmoveto
          -19 -90 -25 -12 -159 -19 rrcurveto
          -23 -110 682 0 23 110 -139 16 -18 16 19 89 rlinecurve
          -58 callgsubr
          -662 0 -23 -110 rlineto
          135 -17 15 -15 -19 -89 -97 -459 rcurveline
          -25 -91 -81 -17 -96 hhcurveto
          -171 -79 102 230 50 hvcurveto
          37 172 19 85 18 21 134 12 rlinecurve
          23 110 -649 0 -24 -110 rlineto
          142 -14 14 -19 -18 -85 -38 -179 rcurveline
          -333 -71 162 -150 362 hhcurveto
          141 87 28 30 99 hvcurveto
          endchar
        </CharString>
        <CharString name="Chigreek">
          1431 346 314 25 callsubr
        </CharString>
        <CharString name="D">
          1605 -24 callsubr
          -57 callsubr
          endchar
        </CharString>
        <CharString name="Dbar">
          1605 198 679 rmoveto
          164 hlineto
          -95 -448 rlineto
          -19 -85 -21 -77 callgsubr
          594 hlineto
          594 427 336 491 -1 hvcurveto
          36 callgsubr
          -88 -412 rcurveline
          -164 hlineto
          1066 67 121 callsubr
          117 553 233 0 26 122 -233 0 109 517 62 -4 rlineto
          253 -15 137 -177 -254 vvcurveto
          endchar
        </CharString>
        <CharString name="Dcaron">
          1605 1242 116 callsubr
          294 -1056 37 callsubr
          -57 callsubr
          endchar
        </CharString>
        <CharString name="Dcircumflexbelow">
          1605 -24 callsubr
          -57 callsubr
          -898 -1347 -58 callsubr
          21 callsubr
        </CharString>
        <CharString name="Dcommaaccent">
          1605 -24 callsubr
          -57 callsubr
          -722 -1360 11 callsubr
          -93 callgsubr
          19 34 -48 callgsubr
          -21 -94 rlineto
          -24 42 68 -20 81 hhcurveto
          endchar
        </CharString>
        <CharString name="Ddotaccent">
          1605 1019 -15 callsubr
          23 callsubr
          648 -746 37 callsubr
          -57 callsubr
          endchar
        </CharString>
        <CharString name="Ddotbelow">
          1605 -24 callsubr
          -57 callsubr
          -679 -1029 -85 callsubr
          -49 callsubr
        </CharString>
        <CharString name="Decyrillic">
          1549 655 754 rmoveto
          51 187 50 195 40 167 rrcurveto
          450 hlineto
          -248 -1162 rlineto
          -598 hlineto
          97 123 69 172 89 318 rrcurveto
          901 -613 rmoveto
          -216 hlineto
          228 1072 18 87 25 16 147 18 rlinecurve
          23 110 -1298 0 -24 -110 rlineto
          159 -18 17 -26 -35 -150 -31 -131 -35 -129 -36 -124 -84 -293 -79 -200 -127 -122 rrcurveto
          -146 hlineto
          -103 -449 rlineto
          113 hlineto
          262 125 49 46 200 hhcurveto
          667 hlineto
          203 31 -46 -262 13 hvcurveto
          113 hlineto
          endchar
        </CharString>
        <CharString name="Deltagreek">
          1265 16 1 rmoveto
          1234 hlineto
          20 99 -203 1345 -273 0 -757 -1345 rlineto
          187 32 rmoveto
          547 1019 131 -1019 rlineto
          endchar
        </CharString>
        <CharString name="Djecyrillic">
          1766 1777 420 rmoveto
          277 -184 137 -307 -111 -80 -15 -22 -76 vhcurveto
          77 callgsubr
          75 392 -1294 0 203 callsubr
          16 64 64 8 74 hhcurveto
          154 91 -81 -178 -293 -144 -274 -301 -154 hvcurveto
          32 -91 rlineto
          494 161 260 299 354 vvcurveto
          endchar
        </CharString>
        <CharString name="Dlinebelow">
          1605 -24 callsubr
          -57 callsubr
          -1002 -1250 -62 callsubr
        </CharString>
        <CharString name="Dzecyrillic">
          1199 623 -32 72 callsubr
          endchar
        </CharString>
        <CharString name="Dzhecyrillic">
          1653 162 callsubr
          540 hlineto
          107 19 -24 -284 -12 hvcurveto
          112 hlineto
          284 109 28 24 107 hhcurveto
          541 hlineto
          22 110 -140 18 -17 17 18 86 rlinecurve
          208 982 19 87 22 15 151 19 rlinecurve
          23 110 -663 0 -22 -110 131 -17 17 -18 -18 -86 rlinecurve
          -229 -1075 -539 151 callsubr
        </CharString>
        <CharString name="E">
          1311 1498 1444 -94 callsubr
        </CharString>
        <CharString name="Eacute">
          1311 1069 -98 callsubr
          -61 callsubr
          144 -422 -94 callsubr
        </CharString>
        <CharString name="Ebreve">
          1311 1013 68 callsubr
          92 callsubr
          485 -134 -94 callsubr
        </CharString>
        <CharString name="Ecaron">
          1311 1220 72 callgsubr
          147 -439 -94 callsubr
        </CharString>
        <CharString name="Ecedilla">
          1311 568 -492 rmoveto
          190 -20 callsubr
          96 98 464 40 callsubr
          -23 callgsubr
          143 -18 14 9 callsubr
          574 0 -125 -130 -70 callsubr
          97 callsubr
        </CharString>
        <CharString name="Ecedillabreve">
          1311 1013 68 callsubr
          92 callsubr
          -445 -2070 rmoveto
          190 -20 callsubr
          96 98 464 40 callsubr
          -23 callgsubr
          143 -18 14 9 callsubr
          574 0 -125 -130 -70 callsubr
          97 callsubr
        </CharString>
        <CharString name="Ecircumflex">
          1311 798 -1 callsubr
          824 -116 -94 callsubr
        </CharString>
        <CharString name="Ecircumflexacute">
          1311 1366 1854 -101 callgsubr
          -58 -281 rmoveto
          354 89 315 -89 20 94 -269 148 -70 0 -331 -148 rlineto
          859 -141 -94 callsubr
        </CharString>
        <CharString name="Ecircumflexbelow">
          147 callsubr
          -1027 -1531 91 callsubr
        </CharString>
        <CharString name="Ecircumflexdotbelow">
          1311 798 -1 callsubr
          824 -116 rmoveto
          -1138 hlineto
          -11 callsubr
          9 callsubr
          1176 40 callsubr
          -808 -1213 -15 callgsubr
        </CharString>
        <CharString name="Ecircumflexgrave">
          1311 695 1854 rmoveto
          655 -82 19 91 -641 149 rlineto
          -108 -521 rmoveto
          354 89 315 -89 20 94 -269 148 -70 0 -331 -148 rlineto
          859 -141 -94 callsubr
        </CharString>
        <CharString name="Ecircumflexhookabove">
          1311 1336 1983 rmoveto
          -81 -82 -26 -31 -54 hvcurveto
          -15 -73 rlineto
          14 33 10 callgsubr
          18 -88 49 -124 hhcurveto
          -716 -492 rmoveto
          354 89 315 -89 20 94 -269 148 -70 0 -331 -148 rlineto
          859 -141 -94 callsubr
        </CharString>
        <CharString name="Ecircumflextilde">
          1311 1157 1796 rmoveto
          118 96 70 128 26 hvcurveto
          -127 hlineto
          -43 -8 -30 -20 -43 hhcurveto
          -26 -27 7 12 -35 hvcurveto
          -34 12 -27 callgsubr
          -129 -26 hvcurveto
          127 hlineto
          43 9 29 20 43 hhcurveto
          26 27 -7 -12 35 hvcurveto
          35 -12 rlineto
          -15 45 45 -11 53 hhcurveto
          -537 -305 rmoveto
          354 89 315 -89 20 94 -269 148 -70 0 -331 -148 rlineto
          859 -141 -94 callsubr
        </CharString>
        <CharString name="Ecyrillic">
          1445 614 584 rmoveto
          27 1 28 3 26 vhcurveto
          586 -5 32 151 -597 -5 rlineto
          297 66 196 223 233 hhcurveto
          194 104 -114 -215 7 hvcurveto
          94 callsubr
          -4 hvcurveto
          -36 callsubr
        </CharString>
        <CharString name="Edblgrave">
          1311 829 1867 rmoveto
          -222 90 callsubr
          354 -116 -94 callsubr
        </CharString>
        <CharString name="Edieresis">
          1311 818 -79 callsubr
          -54 callsubr
          359 hmoveto
          73 61 -72 callsubr
          321 -141 -94 callsubr
        </CharString>
        <CharString name="Edotaccent">
          1311 997 -17 callsubr
          -42 callsubr
          501 -129 -94 callsubr
        </CharString>
        <CharString name="Edotbelow">
          147 callsubr
          -808 -1213 -15 callgsubr
        </CharString>
        <CharString name="Efcyrillic">
          1986 200 683 rmoveto
          -266 223 -169 449 -30 vhcurveto
          -4 -20 -18 -81 -20 -17 -156 -15 rlinecurve
          -23 -110 668 0 23 110 rlineto
          -145 15 -17 17 17 81 4 17 rcurveline
          643 28 242 232 286 vvcurveto
          266 -223 169 -449 31 vhcurveto
          4 19 17 81 23 17 153 15 rlinecurve
          23 110 -667 0 -23 -110 rlineto
          146 -15 16 -17 -17 -81 -4 -17 rcurveline
          -644 -29 -241 -231 -286 vvcurveto
          375 -7 rmoveto
          233 112 151 369 28 vhcurveto
          -154 -728 rlineto
          -236 33 -91 113 170 vvcurveto
          1137 92 rmoveto
          -1 -233 -112 -151 -369 -28 rrcurveto
          154 728 236 -33 91 -113 1 -170 rlinecurve
          endchar
        </CharString>
        <CharString name="Egrave">
          1311 947 -52 callsubr
          446 -116 -94 callsubr
        </CharString>
        <CharString name="Ehookabove">
          1311 1037 1902 rmoveto
          -94 -76 -31 -39 -40 154 callsubr
          -81 63 -112 vhcurveto
          461 -458 -94 callsubr
        </CharString>
        <CharString name="Einvertedbreve">
          1311 1001 216 callsubr
          108 hlineto
          94 16 102 callsubr
          10 24 6 34 33 vvcurveto
          139 -1 -116 101 -158 hhcurveto
          497 -465 -94 callsubr
        </CharString>
        <CharString name="Elcyrillic">
          1587 234 -32 rmoveto
          222 125 197 496 133 hvcurveto
          80 298 45 179 39 168 rrcurveto
          432 hlineto
          66 callgsubr
          23 110 -139 16 -18 16 19 89 rlinecurve
          -58 callgsubr
          -1280 -12 callgsubr
          -102 67 -72 116 hvcurveto
          endchar
        </CharString>
        <CharString name="Emacron">
          1311 690 7 callsubr
          772 -339 -94 callsubr
        </CharString>
        <CharString name="Emacronacute">
          1311 1371 212 callsubr
          834 -265 -94 callsubr
        </CharString>
        <CharString name="Emacrongrave">
          1311 700 -10 callgsubr
          834 -265 -94 callsubr
        </CharString>
        <CharString name="Emcyrillic">
          1890 913 1444 32 callsubr
        </CharString>
        <CharString name="Encyrillic">
          2 callsubr
          -7 callsubr
          -51 callgsubr
          endchar
        </CharString>
        <CharString name="Eogonek">
          1311 953 -488 rmoveto
          89 70 29 37 40 hvcurveto
          21 107 rlineto
          -15 -18 -27 -10 -30 hhcurveto
          -62 -42 60 88 68 27 68 54 56 hvcurveto
          154 hlineto
          103 431 rlineto
          -99 hlineto
          -112 -262 -57 -25 202 callsubr
          46 -36 6 -214 rlinecurve
          99 hlineto
          -23 callgsubr
          rlineto
          143 -18 14 -18 -18 -85 -209 -982 rcurveline
          -19 -85 -21 -77 callgsubr
          892 107 callgsubr
          endchar
        </CharString>
        <CharString name="Epsilongreek">
          1311 1498 1444 -94 callsubr
        </CharString>
        <CharString name="Epsilontonosgreek">
          1714 1901 1444 rmoveto
          -1138 hlineto
          -11 callsubr
          -18 -18 -85 rlinecurve
          -209 -982 -18 -85 -21 -18 -151 -18 rlinecurve
          -24 -110 1177 0 103 431 rlineto
          -100 hlineto
          -112 -262 -57 -25 -249 -9 rrcurveto
          -229 -9 116 548 rlineto
          202 hlineto
          68 17 -27 -169 -7 hvcurveto
          94 hlineto
          110 518 rlineto
          -94 hlineto
          -169 -67 -28 -27 -66 hhcurveto
          -202 hlineto
          110 518 215 -8 219 -8 46 -36 7 -214 rlinecurve
          98 hlineto
          -1443 392 47 callsubr
        </CharString>
        <CharString name="Ercyrillic">
          1417 748 hmoveto
          28 callsubr
        </CharString>
        <CharString name="Ereversedcyrillic">
          1486 428 1343 rmoveto
          -78 -338 rlineto
          100 hlineto
          228 95 129 96 164 hhcurveto
          233 110 -205 -303 hvcurveto
          -6 -1 -5 -5 vvcurveto
          -576 5 -32 -152 597 5 rlineto
          -309 -45 -178 -242 -274 hhcurveto
          -203 -123 108 214 -3 hvcurveto
          -100 hlineto
          -50 -337 rlineto
          -58 65 218 -71 219 hhcurveto
          513 344 351 459 451 -308 247 -383 -163 -167 -50 -83 -103 hvcurveto
          endchar
        </CharString>
        <CharString name="Escyrillic">
          1440 614 584 -53 callsubr
          -36 callsubr
        </CharString>
        <CharString name="Etagreek">
          2 callsubr
          -7 callsubr
          -51 callgsubr
          endchar
        </CharString>
        <CharString name="Etatonosgreek">
          2068 1011 231 rmoveto
          93 438 548 0 -93 -438 -18 -87 -23 -18 -141 -16 rlinecurve
          -24 69 callsubr
          -142 17 -16 19 19 88 rlinecurve
          208 976 19 88 24 19 149 -31 callgsubr
          135 -16 14 -18 -18 -87 rlinecurve
          -87 -409 -549 0 87 409 18 85 24 19 141 -31 callgsubr
          143 -18 14 -20 -18 -86 rlinecurve
          -208 -976 -18 -86 -23 -20 -151 -18 rlinecurve
          -23 69 callsubr
          -132 17 -16 19 18 85 rlinecurve
          -627 1213 47 callsubr
        </CharString>
        <CharString name="Etilde">
          1311 1109 -47 callsubr
          -13 -24 101 callgsubr
          160 callsubr
          44 44 -20 53 hhcurveto
          389 -142 -94 callsubr
        </CharString>
        <CharString name="Etildebelow">
          147 callsubr
          -694 -1504 12 callsubr
          -15 -27 -25 -36 hhcurveto
          -24 -22 12 21 -24 hvcurveto
          -31 25 rlineto
          38 -47 -49 23 -59 hhcurveto
          -101 -84 43 callsubr
          30 62 callsubr
        </CharString>
        <CharString name="F">
          1216 1474 1444 rmoveto
          -1114 hlineto
          -11 callsubr
          -18 -18 -85 rlinecurve
          -209 -982 -19 -85 185 callsubr
        </CharString>
        <CharString name="Fdotaccent">
          1216 1019 -15 callsubr
          23 callsubr
          455 -129 rmoveto
          -1114 hlineto
          -11 callsubr
          -18 -18 -85 rlinecurve
          -209 -982 -19 -85 185 callsubr
        </CharString>
        <CharString name="G">
          1591 246 652 -40 callsubr
        </CharString>
        <CharString name="Gacute">
          1591 1240 -98 callsubr
          -83 callsubr
          -1280 -1214 -40 callsubr
        </CharString>
        <CharString name="Gammagreek">
          1254 1507 1444 rmoveto
          -1142 hlineto
          -23 -110 151 -19 16 -16 -18 -86 rlinecurve
          -208 -982 -19 -86 -23 -16 -159 -19 rlinecurve
          -23 -110 705 0 23 110 -166 20 -16 16 18 85 rlinecurve
          231 1087 205 -9 237 -9 31 -36 9 -212 rlinecurve
          98 hlineto
          endchar
        </CharString>
        <CharString name="Gbreve">
          1591 1184 153 callsubr
          -65 56 70 8 0 -78 callgsubr
          -43 callgsubr
          -938 -926 -40 callsubr
        </CharString>
        <CharString name="Gcaron">
          1591 1391 -66 callsubr
          -48 callsubr
          -1277 -1231 -40 callsubr
        </CharString>
        <CharString name="Gcircumflex">
          1591 969 -65 callsubr
          -28 callsubr
          -599 -908 -40 callsubr
        </CharString>
        <CharString name="Gcommaaccent">
          1591 246 652 rmoveto
          -4 -444 312 -239 387 -1 rrcurveto
          196 198 58 69 97 hvcurveto
          84 390 18 84 17 20 131 14 rlinecurve
          24 110 -613 0 -23 -110 rlineto
          150 -16 12 -17 -18 -83 -68 -328 rcurveline
          -26 -39 -66 -14 -61 hhcurveto
          -219 -143 180 285 -24 callgsubr
          103 -114 -215 8 hvcurveto
          94 callsubr
          -5 hvcurveto
          564 -1144 rmoveto
          186 97 73 124 114 -86 72 -86 callgsubr
          120 callsubr
          -72 -44 -44 14 15 -34 hvcurveto
          -21 -94 rlineto
          -24 41 68 -20 82 hhcurveto
          endchar
        </CharString>
        <CharString name="Gdotaccent">
          1591 1169 -15 callsubr
          -82 -66 -64 -83 -73 58 -59 79 hvcurveto
          -923 -921 -40 callsubr
        </CharString>
        <CharString name="Geacutecyrillic">
          1227 1047 -98 callsubr
          -83 callsubr
          146 -422 195 callsubr
        </CharString>
        <CharString name="Gecyrillic">
          1227 1479 1444 195 callsubr
        </CharString>
        <CharString name="Germandbls">
          1613 580 hmoveto
          275 1318 163 -6 rlineto
          238 -10 87 -81 -145 vvcurveto
          -124 -95 -85 -163 -19 vhcurveto
          -45 -205 rlineto
          177 -70 81 -118 -143 vvcurveto
          -131 -74 -71 -112 -127 -79 104 198 7 vhcurveto
          -101 hlineto
          -64 -329 rlineto
          -67 77 138 -48 160 hhcurveto
          261 227 151 278 182 -81 153 -169 96 hvcurveto
          160 21 136 101 171 vvcurveto
          206 -172 117 -335 vhcurveto
          -776 hlineto
          -24 -110 rlineto
          145 -18 17 -19 -18 -84 -206 -982 rcurveline
          -18 -87 -22 -15 -153 -19 -22 -110 rcurveline
          endchar
        </CharString>
        <CharString name="Geupturncyrillic">
          1209 1434 1309 rmoveto
          96 443 rlineto
          -113 hlineto
          -260 -121 -42 -48 -188 hhcurveto
          -708 hlineto
          -23 -110 141 -18 15 -17 -18 -86 rlinecurve
          -208 -982 -19 -86 -21 -16 -150 -19 rlinecurve
          -24 -110 693 0 23 110 rlineto
          -146 20 -34 16 18 85 230 1078 rcurveline
          endchar
        </CharString>
        <CharString name="Gmacron">
          1591 862 49 callsubr
          -651 -1131 -40 callsubr
        </CharString>
        <CharString name="H">
          2 callsubr
          -7 callsubr
          -51 callgsubr
          endchar
        </CharString>
        <CharString name="Hacyrillic">
          1431 346 314 25 callsubr
        </CharString>
        <CharString name="Hardsigncyrillic">
          1647 1716 -67 callgsubr
          22 110 -939 0 -92 -392 rlineto
          102 hlineto
          100 234 56 22 198 6 rrcurveto
          30 1 -230 -1084 rlineto
          -18 -86 -21 -16 -150 -19 -23 -110 rcurveline
          694 hlineto
          412 303 197 315 hvcurveto
          -361 -3 rmoveto
          -200 -139 -169 -280 -8 vhcurveto
          -97 -3 134 633 rlineto
          107 hlineto
          170 105 -80 -173 hvcurveto
          endchar
        </CharString>
        <CharString name="Hbar">
          2 callsubr
          -20 -18 -141 -16 rlinecurve
          -23 -110 659 0 22 110 -142 17 -14 17 18 87 rlinecurve
          166 782 165 0 26 121 -165 0 17 79 19 87 22 17 149 17 rlinecurve
          24 110 -659 0 -24 -110 135 -16 12 -18 -19 -87 rlinecurve
          -17 -79 -548 0 17 79 18 85 21 19 141 17 rlinecurve
          23 110 -659 0 -23 -110 -81 callgsubr
          -17 -79 -164 0 -25 -121 164 0 -166 -782 -18 -85 -22 -18 -151 -18 rlinecurve
          -23 -110 659 0 23 110 -132 17 -14 19 18 85 rlinecurve
          122 573 rmoveto
          45 209 548 0 -45 -209 rlineto
          endchar
        </CharString>
        <CharString name="Hbrevebelow">
          2 callsubr
          -7 callsubr
          -51 callgsubr
          169 -703 rmoveto
          192 126 124 220 7 hvcurveto
          -112 hlineto
          -96 -17 -76 -55 -111 hhcurveto
          -99 -68 59 72 7 1 8 1 5 hvcurveto
          53 callgsubr
        </CharString>
        <CharString name="Hcaron">
          1665 1417 1882 rmoveto
          -208 -142 -147 142 -125 0 128 -307 229 0 255 307 rlineto
          -942 -1651 rmoveto
          45 callsubr
          -51 callgsubr
          endchar
        </CharString>
        <CharString name="Hcedilla">
          1665 263 -23 callsubr
          -13 callsubr
          96 98 256 0 22 110 -131 17 -17 19 18 85 rlinecurve
          45 callsubr
          271 0 -126 -130 -70 callsubr
          -41 -28 -71 -58 -47 -49 callgsubr
        </CharString>
        <CharString name="Hcircumflex">
          1665 995 1559 rmoveto
          207 143 144 -143 116 0 -126 307 -211 0 -254 -307 rlineto
          -264 -1328 rmoveto
          45 callsubr
          -51 callgsubr
          endchar
        </CharString>
        <CharString name="Hdieresis">
          1665 1015 -79 callsubr
          81 callgsubr
          359 hmoveto
          73 61 81 callgsubr
          -767 -1354 rmoveto
          45 callsubr
          -51 callgsubr
          endchar
        </CharString>
        <CharString name="Hdotaccent">
          1665 1194 1573 70 callgsubr
          -587 -1342 rmoveto
          45 callsubr
          -51 callgsubr
          endchar
        </CharString>
        <CharString name="Hdotbelow">
          2 callsubr
          -7 callsubr
          -51 callgsubr
          168 -392 -85 callsubr
          -49 callsubr
        </CharString>
        <CharString name="I">
          776 608 231 -88 callsubr
        </CharString>
        <CharString name="IAcyrillic">
          1494 351 975 rmoveto
          -160 88 -102 158 -43 vhcurveto
          -197 -231 -138 -163 -137 -147 -79 -26 rlinecurve
          -23 -103 379 0 496 598 rlineto
          -1 13 13 0 14 hhcurveto
          127 hlineto
          -78 -366 -18 -89 -24 -15 -142 -17 -16 callgsubr
          rlineto
          -140 17 -16 15 19 89 208 982 rcurveline
          19 89 20 15 150 17 24 110 rcurveline
          -689 hlineto
          -471 -238 -185 -284 hvcurveto
          356 -11 rmoveto
          208 128 132 278 9 vhcurveto
          103 2 -123 -584 rlineto
          -120 hlineto
          -163 -103 79 154 hvcurveto
          endchar
        </CharString>
        <CharString name="IJ">
          1553 1392 274 106 callgsubr
          -670 0 -23 -110 143 -19 14 -17 -18 -86 rlinecurve
          -195 -920 -71 -332 -105 -122 -239 -143 rlinecurve
          31 -90 420 58 callsubr
          -784 -43 -88 callsubr
        </CharString>
        <CharString name="IJacute">
          1553 815 -98 callsubr
          -83 callsubr
          483 1 rmoveto
          -211 -307 116 0 -61 callsubr
          -478 -1592 106 callgsubr
          -670 0 -23 -110 143 -19 14 -17 -18 -86 rlinecurve
          -195 -920 -71 -332 -105 -122 -239 -143 rlinecurve
          31 -90 420 58 callsubr
          -784 -43 -88 callsubr
        </CharString>
        <CharString name="IUcyrillic">
          2323 51 hmoveto
          663 hlineto
          23 110 rlineto
          -133 17 -17 18 18 86 93 438 rcurveline
          217 hlineto
          -12 0 -13 -13 vvcurveto
          -360 226 -303 444 475 329 387 458 360 -226 304 -444 -1 vhcurveto
          -414 -2 -303 -292 -71 -378 rrcurveto
          -204 hlineto
          86 409 19 87 22 16 143 18 rlinecurve
          -89 callgsubr
          54 callgsubr
          1509 2 rmoveto
          -187 -104 154 284 360 147 422 280 187 104 -154 -284 -360 -148 -422 -279 hvcurveto
          endchar
        </CharString>
        <CharString name="Iacute">
          776 815 -98 callsubr
          -83 callsubr
          -493 -1635 -88 callsubr
        </CharString>
        <CharString name="Ibreve">
          776 759 153 callsubr
          -65 56 70 8 0 -78 callgsubr
          -43 callgsubr
          -151 -1347 -88 callsubr
        </CharString>
        <CharString name="Icaron">
          776 966 -66 callsubr
          -48 callsubr
          -490 -1652 -88 callsubr
        </CharString>
        <CharString name="Icircumflex">
          776 544 -65 callsubr
          -28 callsubr
          188 -1329 -88 callsubr
        </CharString>
        <CharString name="Icyrillic">
          776 608 231 -88 callsubr
        </CharString>
        <CharString name="Idblgrave">
          776 576 1867 rmoveto
          -223 -7 hlineto
          192 -300 rlineto
          109 hlineto
          249 307 rmoveto
          -209 -7 hlineto
          96 -300 rlineto
          101 hlineto
          -283 -1329 -88 callsubr
        </CharString>
        <CharString name="Idieresis">
          776 564 -79 callsubr
          -72 callsubr
          359 hmoveto
          73 62 -63 callsubr
          52 -54 72 vhcurveto
          -315 -1354 -88 callsubr
        </CharString>
        <CharString name="Idieresisacute">
          776 1117 -54 callgsubr
          102 -243 rmoveto
          -12 callsubr
          -14 callsubr
          63 callsubr
          38 callsubr
          -269 -1318 -88 callsubr
        </CharString>
        <CharString name="Idotaccent">
          776 744 163 callsubr
          -136 -1342 -88 callsubr
        </CharString>
        <CharString name="Idotbelow">
          776 608 231 rmoveto
          95 callsubr
          143 -14 13 -22 -18 -85 rlinecurve
          -61 callgsubr
          114 callsubr
          -281 -392 rmoveto
          -80 -47 callgsubr
          -79 hvcurveto
          endchar
        </CharString>
        <CharString name="Iecyrillic">
          1311 1498 1444 -94 callsubr
        </CharString>
        <CharString name="Igrave">
          776 693 1867 rmoveto
          -266 -11 hlineto
          268 -296 rlineto
          104 hlineto
          -191 -1329 -88 callsubr
        </CharString>
        <CharString name="Ihookabove">
          776 784 1902 rmoveto
          -95 -75 -31 -39 -41 hvcurveto
          -17 -81 rlineto
          17 27 45 12 48 -104 callgsubr
          95 callgsubr
          -176 -1671 -88 callsubr
        </CharString>
        <CharString name="Iicyrillic">
          1676 51 hmoveto
          179 callsubr
        </CharString>
        <CharString name="Iinvertedbreve">
          776 748 1909 rmoveto
          -187 -119 -120 -211 -7 hvcurveto
          108 hlineto
          94 17 73 54 107 hhcurveto
          95 65 -57 -70 -8 0 -8 -2 -5 hvcurveto
          108 hlineto
          10 24 7 34 33 vvcurveto
          139 -2 -116 101 -157 hhcurveto
          -140 -1678 -88 callsubr
        </CharString>
        <CharString name="Iishortcyrillic">
          1676 1179 1573 rmoveto
          186 38 callgsubr
          -17 hvcurveto
          24 20 17 31 37 vvcurveto
          77 -55 57 -69 -83 -56 -60 -84 -112 93 -96 162 vhcurveto
          -1128 -1573 rmoveto
          179 callsubr
        </CharString>
        <CharString name="Imacron">
          776 437 49 callsubr
          136 -1552 -88 callsubr
        </CharString>
        <CharString name="Iocyrillic">
          1311 818 -79 callsubr
          -54 callsubr
          359 hmoveto
          73 61 -72 callsubr
          321 -141 -94 callsubr
        </CharString>
        <CharString name="Iogonek">
          776 344 -488 rmoveto
          88 70 29 37 40 hvcurveto
          22 107 rlineto
          -15 -19 -26 -10 -30 hhcurveto
          -63 -41 60 88 68 27 68 54 56 hvcurveto
          257 hlineto
          23 110 -143 18 -13 18 18 85 rlinecurve
          95 callsubr
          rlineto
          143 -14 13 -22 -18 -85 -208 -982 rcurveline
          -18 -85 -22 -77 callgsubr
          282 hlineto
          -144 -82 -90 -105 -113 vvcurveto
          -110 101 -78 142 vhcurveto
          endchar
        </CharString>
        <CharString name="Iotadieresisgreek">
          776 564 -79 callsubr
          -72 callsubr
          359 hmoveto
          73 62 -63 callsubr
          52 -54 72 vhcurveto
          -315 -1354 -88 callsubr
        </CharString>
        <CharString name="Iotagreek">
          776 608 231 -88 callsubr
        </CharString>
        <CharString name="Iotatonosgreek">
          1187 1018 231 105 callgsubr
          -670 0 -23 -110 143 -14 13 -22 -18 -85 rlinecurve
          -208 -982 -18 -85 -21 -18 -151 -18 rlinecurve
          -24 -110 114 callsubr
          -634 1213 47 callsubr
        </CharString>
        <CharString name="Itilde">
          776 855 1586 rmoveto
          94 75 -90 callgsubr
          46 callsubr
          -44 20 -54 hhcurveto
          -93 -76 -62 -220 -25 hvcurveto
          109 hlineto
          91 13 82 callgsubr
          53 hhcurveto
          -247 -1355 -88 callsubr
        </CharString>
        <CharString name="Itildebelow">
          776 608 231 rmoveto
          95 callsubr
          143 -14 13 -22 -18 -85 rlinecurve
          -61 callgsubr
          114 callsubr
          -166 -683 12 callsubr
          -16 -26 -25 -36 hhcurveto
          -24 -22 -106 callgsubr
          -59 hhcurveto
          -101 -84 43 callsubr
          30 -25 rlineto
          -37 47 49 -24 60 hhcurveto
          endchar
        </CharString>
        <CharString name="J">
          776 616 274 86 callsubr
        </CharString>
        <CharString name="Jacute">
          776 808 -98 callsubr
          -83 callsubr
          -478 -1592 86 callsubr
        </CharString>
        <CharString name="Jcircumflex">
          776 537 -65 callsubr
          -28 callsubr
          203 -1286 86 callsubr
        </CharString>
        <CharString name="Jecyrillic">
          776 616 274 86 callsubr
        </CharString>
        <CharString name="K">
          1465 608 231 -8 callsubr
        </CharString>
        <CharString name="Kaacutecyrillic">
          1465 1260 -98 callsubr
          -83 callsubr
          -938 -1635 -8 callsubr
        </CharString>
        <CharString name="Kacute">
          1465 1260 -98 callsubr
          -83 callsubr
          -938 -1635 -8 callsubr
        </CharString>
        <CharString name="Kacyrillic">
          1465 608 231 -8 callsubr
        </CharString>
        <CharString name="Kappagreek">
          1465 608 231 -8 callsubr
        </CharString>
        <CharString name="Kcaron">
          1465 1412 116 callsubr
          -935 -1652 -8 callsubr
        </CharString>
        <CharString name="Kcommaaccent">
          132 callsubr
          162 -723 -16 callsubr
          64 callsubr
          54 42 15 callsubr
        </CharString>
        <CharString name="Kdotbelow">
          132 callsubr
          205 -392 -85 callsubr
          -71 callsubr
        </CharString>
        <CharString name="Klinebelow">
          132 callsubr
          -118 -613 -62 callsubr
        </CharString>
        <CharString name="L">
          5 callsubr
          endchar
        </CharString>
        <CharString name="Lacute">
          1218 819 -98 callsubr
          -83 callsubr
          61 -1866 rmoveto
          -35 callsubr
          -5 callsubr
          endchar
        </CharString>
        <CharString name="Lambdagreek">
          1494 1352 285 rmoveto
          -159 1159 -282 0 -643 -1148 -83 -148 -27 -22 -131 -16 rlinecurve
          -24 -110 494 0 24 110 -158 21 -10 24 98 180 rlinecurve
          443 823 103 -871 15 -133 -21 -24 -158 -20 rlinecurve
          -23 -110 681 0 23 110 -127 15 -17 24 -18 136 rlinecurve
          endchar
        </CharString>
        <CharString name="Lcaron">
          1218 1235 1126 rmoveto
          271 -25 callgsubr
          44 -1126 rmoveto
          -35 callsubr
          -5 callsubr
          endchar
        </CharString>
        <CharString name="Lcircumflexbelow">
          5 callsubr
          299 -479 -58 callsubr
          21 callsubr
        </CharString>
        <CharString name="Lcommaaccent">
          5 callsubr
          475 -492 11 callsubr
          -93 callgsubr
          19 34 5 27 -74 callgsubr
          -71 102 callgsubr
        </CharString>
        <CharString name="Ldot">
          5 callsubr
          1106 698 rmoveto
          96 77 77 95 88 -67 69 -92 -96 -78 -77 -96 -87 68 -69 92 hvcurveto
          endchar
        </CharString>
        <CharString name="Ldotbelow">
          5 callsubr
          518 -161 -85 callsubr
          -49 callsubr
        </CharString>
        <CharString name="Ldotbelowmacron">
          1218 441 49 callsubr
          690 -1783 rmoveto
          -35 callsubr
          -5 callsubr
          518 -161 -85 callsubr
          -49 callsubr
        </CharString>
        <CharString name="Ljecyrillic">
          2176 51 142 rmoveto
          -102 67 -72 116 222 125 197 496 133 vhcurveto
          80 298 45 179 39 168 rrcurveto
          398 hlineto
          -228 -1075 rlineto
          -18 -86 -23 -16 -159 -19 -23 -110 rcurveline
          705 hlineto
          412 303 197 315 221 -169 162 -363 hvcurveto
          223 callsubr
          23 110 -1261 -12 callgsubr
          hvcurveto
          1832 367 150 callsubr
        </CharString>
        <CharString name="Llinebelow">
          5 callsubr
          195 -382 -62 callsubr
        </CharString>
        <CharString name="Lslash">
          1218 176 588 rmoveto
          176 45 -85 -402 -18 -85 -22 -17 -151 -19 rlinecurve
          -23 -110 1113 0 -35 callsubr
          128 601 349 90 29 130 -351 -91 76 357 18 85 22 17 161 20 rlinecurve
          24 109 -681 0 -23 -110 143 -18 13 -17 -18 -86 rlinecurve
          -95 -450 -174 -45 rlineto
          endchar
        </CharString>
        <CharString name="M">
          1890 913 1444 32 callsubr
        </CharString>
        <CharString name="Macute">
          1890 1379 -98 callsubr
          -83 callsubr
          -752 -422 32 callsubr
        </CharString>
        <CharString name="Mdotaccent">
          1890 1308 -17 callsubr
          -42 callsubr
          -395 -129 32 callsubr
        </CharString>
        <CharString name="Mdotbelow">
          1890 913 1444 rmoveto
          -545 hlineto
          -23 -110 138 -16 10 -30 -24 -103 rlinecurve
          -217 -947 -20 -88 -23 -22 -145 -18 rlinecurve
          -23 -110 479 0 23 110 -139 18 189 callsubr
          -254 -615 rmoveto
          -80 -47 callgsubr
          -79 hvcurveto
          endchar
        </CharString>
        <CharString name="Mugreek">
          1890 913 1444 32 callsubr
        </CharString>
        <CharString name="N">
          1554 831 1444 75 callsubr
          endchar
        </CharString>
        <CharString name="Nacute">
          1554 1175 88 callgsubr
          -630 -422 75 callsubr
          endchar
        </CharString>
        <CharString name="Ncaron">
          1554 1327 -66 callsubr
          51 callsubr
          -627 -439 75 callsubr
          endchar
        </CharString>
        <CharString name="Ncircumflexbelow">
          119 callsubr
          -813 -826 -58 callsubr
          21 callsubr
        </CharString>
        <CharString name="Ncommaaccent">
          119 callsubr
          -637 -839 -16 callsubr
          64 callsubr
          55 41 15 callsubr
        </CharString>
        <CharString name="Ndotaccent">
          1554 1104 -17 callsubr
          -42 callsubr
          -273 -129 75 callsubr
          endchar
        </CharString>
        <CharString name="Ndotbelow">
          119 callsubr
          -594 -508 -85 callsubr
          -71 callsubr
        </CharString>
        <CharString name="Ngrave">
          1554 1054 -52 callsubr
          -328 -116 75 callsubr
          endchar
        </CharString>
        <CharString name="Njecyrillic">
          2270 623 231 rmoveto
          99 470 520 0 -99 -470 rlineto
          -19 -86 -21 -16 -151 -19 -22 -110 rcurveline
          694 hlineto
          412 303 184 293 211 -170 154 -362 hvcurveto
          -195 hlineto
          79 371 19 87 27 13 157 21 rlinecurve
          24 110 -682 0 -23 -110 139 -18 17 -17 -18 -86 rlinecurve
          -79 -371 -520 0 79 371 19 87 22 16 143 18 rlinecurve
          23 110 -662 0 -23 -110 139 -18 17 -16 -19 -87 rlinecurve
          -208 -982 -18 -87 -22 -15 -149 -19 rlinecurve
          -24 69 callsubr
          -133 18 -18 16 19 87 rlinecurve
          1354 243 214 callsubr
          579 rlineto
          118 hlineto
          170 104 -74 -160 hvcurveto
          endchar
        </CharString>
        <CharString name="Nlinebelow">
          119 callsubr
          -917 -729 -62 callsubr
        </CharString>
        <CharString name="Ntilde">
          1554 1216 -47 callsubr
          -13 -24 101 callgsubr
          -54 hhcurveto
          -92 -19 callgsubr
          14 23 -70 callgsubr
          -385 -142 75 callsubr
          endchar
        </CharString>
        <CharString name="Nugreek">
          1554 831 1444 75 callsubr
          endchar
        </CharString>
        <CharString name="O">
          1639 918 -29 -105 callsubr
          -107 callsubr
          -100 callsubr
        </CharString>
        <CharString name="OE">
          2097 250 656 rmoveto
          -398 269 -290 415 vhcurveto
          144 89 32 156 hhcurveto
          692 hlineto
          103 431 rlineto
          -96 hlineto
          -110 -252 -67 -35 -240 -9 rrcurveto
          -226 -9 117 545 rlineto
          206 hlineto
          68 17 -27 -168 -7 hvcurveto
          95 hlineto
          111 521 rlineto
          -96 hlineto
          -168 -67 -26 -26 -67 hhcurveto
          -206 hlineto
          109 515 206 -9 233 -8 29 -38 10 -210 rlinecurve
          97 hlineto
          74 391 rlineto
          -799 hlineto
          -140 -89 32 -160 hhcurveto
          -517 -327 -364 -456 hvcurveto
          358 -33 rmoveto
          370 186 339 356 56 48 -8 -14 38 vhcurveto
          -253 -1194 rlineto
          -3 -18 -18 -1 -19 hhcurveto
          -240 -136 200 311 hvcurveto
          endchar
        </CharString>
        <CharString name="Oacute">
          1639 1195 -98 callsubr
          -61 callsubr
          -562 -1895 -105 callsubr
          -107 callsubr
          -100 callsubr
        </CharString>
        <CharString name="Obreve">
          1639 1139 153 callsubr
          -66 56 70 8 1 -78 callgsubr
          -43 callgsubr
          -221 -1607 -105 callsubr
          -107 callsubr
          -100 callsubr
        </CharString>
        <CharString name="Ocaron">
          1639 1346 -66 callsubr
          -48 callsubr
          -560 -1912 -105 callsubr
          -107 callsubr
          -100 callsubr
        </CharString>
        <CharString name="Ocircumflex">
          1639 924 -1 callsubr
          118 -1589 -105 callsubr
          -107 callsubr
          -100 callsubr
        </CharString>
        <CharString name="Ocircumflexacute">
          1639 1493 1854 -101 callgsubr
          -58 -281 -32 callsubr
          152 -1614 -105 callsubr
          -107 callsubr
          -100 callsubr
        </CharString>
        <CharString name="Ocircumflexdotbelow">
          1639 924 -1 callsubr
          118 -1589 -105 callsubr
          -107 callsubr
          hvcurveto
          149 callsubr
          -79 -279 -85 callsubr
          -49 callsubr
        </CharString>
        <CharString name="Ocircumflexgrave">
          1639 822 34 callgsubr
          152 -1614 -105 callsubr
          -107 callsubr
          -100 callsubr
        </CharString>
        <CharString name="Ocircumflexhookabove">
          1639 1463 61 callgsubr
          74 32 11 callgsubr
          -716 -492 -32 callsubr
          152 -1614 -105 callsubr
          -107 callsubr
          -100 callsubr
        </CharString>
        <CharString name="Ocircumflextilde">
          1639 1284 -33 callgsubr
          -26 -28 7 12 -35 hvcurveto
          -33 12 rlineto
          15 -45 -46 12 -53 hhcurveto
          -117 -97 -70 -129 -76 callgsubr
          67 callgsubr
          -537 -305 -32 callsubr
          152 -1614 -105 callsubr
          -107 callsubr
          -100 callsubr
        </CharString>
        <CharString name="Ocyrillic">
          1639 918 -29 -105 callsubr
          -107 callsubr
          -100 callsubr
        </CharString>
        <CharString name="Odblgrave">
          1639 956 1867 rmoveto
          -223 90 callsubr
          -352 -1589 -105 callsubr
          -107 callsubr
          -100 callsubr
        </CharString>
        <CharString name="Odieresis">
          1639 944 -79 callsubr
          -54 callsubr
          359 hmoveto
          73 61 -72 callsubr
          -385 -1614 -105 callsubr
          -107 callsubr
          -100 callsubr
        </CharString>
        <CharString name="Odieresismacron">
          1639 821 217 callsubr
          64 -425 34 callsubr
          -13 hvcurveto
          -56 -11 41 -40 63 hhcurveto
          -339 -1578 -105 callsubr
          -107 callsubr
          -100 callsubr
        </CharString>
        <CharString name="Odotaccent">
          1639 1123 127 callsubr
          -79 -81 -66 -64 -83 -73 58 -59 78 hvcurveto
          -205 -1602 -105 callsubr
          -107 callsubr
          -100 callsubr
        </CharString>
        <CharString name="Odotaccentmacron">
          1639 815 1822 -103 callgsubr
          30 callgsubr
          1 54 -44 69 hhcurveto
          -199 -1569 -105 callsubr
          -107 callsubr
          -100 callsubr
        </CharString>
        <CharString name="Odotbelow">
          1639 918 -29 -105 callsubr
          -107 callsubr
          hvcurveto
          149 callsubr
          -79 -279 -85 callsubr
          -49 callsubr
        </CharString>
        <CharString name="Ograve">
          1639 1073 -52 callsubr
          -260 -1589 -105 callsubr
          -107 callsubr
          -100 callsubr
        </CharString>
        <CharString name="Ohookabove">
          1639 43 callgsubr
          -246 -1931 -105 callsubr
          -107 callsubr
          -100 callsubr
        </CharString>
        <CharString name="Ohorn">
          1668 241 643 27 callsubr
        </CharString>
        <CharString name="Ohornacute">
          1668 1195 -98 callsubr
          -61 callsubr
          -1239 -1223 27 callsubr
        </CharString>
        <CharString name="Ohorndotbelow">
          1668 241 643 rmoveto
          -362 -5 236 -310 446 hhcurveto
          485 302 391 439 228 -92 209 -179 121 hvcurveto
          -7 40 43 -4 46 hhcurveto
          187 148 81 153 94 -53 88 -74 51 hvcurveto
          -105 hlineto
          9 -18 5 -32 -31 vvcurveto
          -157 -102 -133 -170 vhcurveto
          -129 -90 29 -161 hhcurveto
          -486 -296 -391 -439 -5 hvcurveto
          363 -85 rmoveto
          -85 callgsubr
          -64 callgsubr
          -178 -116 140 300 vhcurveto
          225 -719 -85 callsubr
          -49 callsubr
        </CharString>
        <CharString name="Ohorngrave">
          1668 1073 -52 callsubr
          -937 -917 27 callsubr
        </CharString>
        <CharString name="Ohornhookabove">
          1668 43 callgsubr
          -923 -1259 27 callsubr
        </CharString>
        <CharString name="Ohorntilde">
          1668 1235 -47 callsubr
          46 callsubr
          145 callsubr
          -994 -943 27 callsubr
        </CharString>
        <CharString name="Ohungarumlaut">
          1639 1001 1867 238 callsubr
          121 hmoveto
          -181 -307 120 0 302 300 rlineto
          7 vlineto
          -660 -1896 -105 callsubr
          -107 callsubr
          -100 callsubr
        </CharString>
        <CharString name="Oinvertedbreve">
          1639 1128 141 callsubr
          -210 -1938 -105 callsubr
          -107 callsubr
          -100 callsubr
        </CharString>
        <CharString name="Omacron">
          1639 816 7 callsubr
          66 -1812 -105 callsubr
          -107 callsubr
          -100 callsubr
        </CharString>
        <CharString name="Omacronacute">
          1639 1498 1874 rmoveto
          33 158 -703 -148 -19 -91 rlineto
          -45 -210 -103 callgsubr
          127 -1738 -105 callsubr
          -107 callsubr
          -100 callsubr
        </CharString>
        <CharString name="Omacrongrave">
          1639 826 1874 rmoveto
          655 -81 19 91 -641 148 rlineto
          -95 -449 -103 callgsubr
          127 -1738 -105 callsubr
          -107 callsubr
          -100 callsubr
        </CharString>
        <CharString name="Omegagreek">
          1683 136 hmoveto
          618 hlineto
          69 331 rlineto
          -140 70 -81 190 callsubr
          -429 -492 91 callgsubr
          -14 -74 -313 5 -54 38 -41 146 rlinecurve
          -88 hlineto
          endchar
        </CharString>
        <CharString name="Omegatonosgreek">
          1952 405 hmoveto
          619 hlineto
          69 331 rlineto
          -141 70 -80 190 callsubr
          -430 -491 91 callgsubr
          -15 -74 -312 5 -54 38 -42 146 rlinecurve
          -88 hlineto
          -56 1079 47 callsubr
        </CharString>
        <CharString name="Omicrongreek">
          1639 918 -29 -105 callsubr
          -107 callsubr
          -100 callsubr
        </CharString>
        <CharString name="Omicrontonosgreek">
          1870 1149 -29 -105 callsubr
          -295 -391 -438 -6 hvcurveto
          -363 -4 236 -310 445 hhcurveto
          -765 1473 rmoveto
          -163 -406 173 0 302 392 rlineto
          14 vlineto
          432 -1326 rmoveto
          -177 -115 -38 callgsubr
          176 117 -139 -300 -387 -179 -382 -266 hvcurveto
          endchar
        </CharString>
        <CharString name="Oogonek">
          1639 834 -488 177 callsubr
        </CharString>
        <CharString name="Oogonekmacron">
          1639 816 7 callsubr
          -18 -2271 177 callsubr
        </CharString>
        <CharString name="Oslash">
          1639 918 -29 169 callsubr
        </CharString>
        <CharString name="Oslashacute">
          1639 1195 -98 callsubr
          -61 callsubr
          -562 -1895 169 callsubr
        </CharString>
        <CharString name="Otilde">
          1639 1235 -47 callsubr
          46 callsubr
          145 callsubr
          -317 -1615 -105 callsubr
          -107 callsubr
          -100 callsubr
        </CharString>
        <CharString name="Otildeacute">
          1639 1498 1873 rmoveto
          33 159 -703 -149 -19 -91 rlineto
          422 -243 rmoveto
          118 -96 callgsubr
          -8 -30 -20 -42 hhcurveto
          -27 -27 7 12 -36 hvcurveto
          -33 107 callsubr
          106 callsubr
          -11 rlineto
          -16 44 46 -12 53 hhcurveto
          -313 -1578 -105 callsubr
          -107 callsubr
          -100 callsubr
        </CharString>
        <CharString name="Otildedieresis">
          1639 967 1815 rmoveto
          64 59 41 55 12 hvcurveto
          57 12 -41 41 -64 hhcurveto
          -15 hlineto
          -63 -59 -41 -57 -12 hvcurveto
          -55 -12 41 -41 64 hhcurveto
          376 hmoveto
          63 59 41 55 12 hvcurveto
          57 12 -41 41 -63 hhcurveto
          -16 hlineto
          -63 -58 -41 -57 -13 hvcurveto
          -55 -12 41 -41 64 hhcurveto
          -83 -266 rmoveto
          118 -96 callgsubr
          -8 -30 -20 -42 hhcurveto
          -27 -27 7 12 -36 hvcurveto
          -33 107 callsubr
          106 callsubr
          -11 rlineto
          -16 44 46 -12 53 hhcurveto
          -313 -1578 -105 callsubr
          -107 callsubr
          -100 callsubr
        </CharString>
        <CharString name="Otildemacron">
          1639 821 217 callsubr
          383 -425 rmoveto
          118 -96 callgsubr
          -8 -30 -20 -42 hhcurveto
          -27 -27 7 12 -36 hvcurveto
          -33 107 callsubr
          106 callsubr
          -11 rlineto
          -16 44 46 -12 53 hhcurveto
          -313 -1578 -105 callsubr
          -107 callsubr
          -100 callsubr
        </CharString>
        <CharString name="P">
          1417 748 hmoveto
          28 callsubr
        </CharString>
        <CharString name="Pacute">
          1417 1117 -98 callsubr
          381 296 rlineto
          11 vlineto
          -654 -1867 rmoveto
          28 callsubr
        </CharString>
        <CharString name="Pdotaccent">
          1417 1045 1574 70 callgsubr
          -297 -1574 rmoveto
          28 callsubr
        </CharString>
        <CharString name="Pecyrillic">
          1665 1487 231 rmoveto
          -58 callgsubr
          -1550 0 -23 -110 141 -19 17 -16 -18 -86 rlinecurve
          -209 -982 -19 -87 -21 -15 -151 -19 rlinecurve
          -24 69 callsubr
          -131 17 -18 18 19 86 rlinecurve
          229 1075 539 0 66 callgsubr
          22 110 -138 16 -18 16 19 89 rlinecurve
          endchar
        </CharString>
        <CharString name="Phigreek">
          1853 238 719 rmoveto
          -39 -319 220 -160 419 -17 rrcurveto
          -1 -7 -18 -86 -20 -17 -136 -19 rlinecurve
          -22 -99 571 0 22 99 rlineto
          -130 18 -13 18 18 86 2 6 rcurveline
          488 12 282 166 40 323 38 321 -245 158 -393 17 rrcurveto
          1 5 18 86 20 17 136 18 rlinecurve
          20 99 -571 0 -20 -99 129 -15 13 -20 -18 -86 rlinecurve
          -1 -4 -462 -11 -309 -162 -39 -328 rlinecurve
          358 8 rmoveto
          28 230 146 136 252 2 rrcurveto
          -157 -744 -204 22 -93 127 28 227 rlinecurve
          968 -5 rmoveto
          -30 -237 -148 -136 -249 -2 rrcurveto
          157 745 206 -23 90 -126 -26 -221 rlinecurve
          endchar
        </CharString>
        <CharString name="Pigreek">
          1696 1513 231 rmoveto
          208 980 18 87 24 19 158 17 rlinecurve
          23 110 -1579 0 -23 -110 150 -19 17 -15 -19 -87 rlinecurve
          -208 -982 -18 -87 -25 -15 -157 -19 rlinecurve
          -23 -110 682 0 23 110 -141 18 -18 16 18 87 rlinecurve
          228 1077 549 0 -227 -1077 -19 -87 -21 -16 -152 -18 rlinecurve
          -24 -110 681 0 23 110 -150 17 -16 17 18 87 rlinecurve
          endchar
        </CharString>
        <CharString name="Psigreek">
          1849 585 hmoveto
          662 hlineto
          23 109 rlineto
          -159 18 -16 19 18 85 50 234 rcurveline
          349 19 191 139 134 359 68 185 rcurveline
          45 121 32 28 99 8 24 110 rcurveline
          5 -33 -62 5 -62 hhcurveto
          -175 -83 -52 -199 -73 hvcurveto
          -73 -200 -91 -246 -86 -115 -175 -28 rlinecurve
          129 609 18 86 18 18 128 17 rlinecurve
          24 110 -576 0 -23 -110 rlineto
          121 -17 12 -18 -19 -86 -129 -609 rcurveline
          -162 28 -35 115 14 246 11 190 rcurveline
          199 11 -63 62 -179 hhcurveto
          -57 -68 -5 -5 -34 hvcurveto
          -23 -110 97 -8 25 -28 -7 -121 rlinecurve
          -11 -185 -20 -360 131 -138 341 -19 rlinecurve
          -50 -234 -18 -85 -23 -19 -166 -18 rlinecurve
          endchar
        </CharString>
        <CharString name="Q">
          1641 1320 -403 rmoveto
          99 86 18 29 63 hvcurveto
          21 101 rlineto
          -127 3 -75 26 -143 140 -93 90 rcurveline
          347 103 207 330 363 vvcurveto
          363 -232 310 -445 -486 -107 callsubr
          vhcurveto
          -4 -316 179 -276 340 -66 160 -170 rcurveline
          -170 159 113 -49 132 hhcurveto
          -423 521 rmoveto
          -177 -116 -38 callgsubr
          75 callgsubr
          endchar
        </CharString>
        <CharString name="R">
          1466 1097 hmoveto
          26 callsubr
          endchar
        </CharString>
        <CharString name="Racute">
          1466 1094 -98 callsubr
          -61 callsubr
          -282 -1866 rmoveto
          26 callsubr
          endchar
        </CharString>
        <CharString name="Rcaron">
          1466 1245 -66 callsubr
          -48 callsubr
          -280 -1883 rmoveto
          26 callsubr
          endchar
        </CharString>
        <CharString name="Rcommaaccent">
          1466 1097 hmoveto
          26 callsubr
          -462 -1547 -16 callsubr
          64 callsubr
          55 41 15 callsubr
        </CharString>
        <CharString name="Rdblgrave">
          1466 855 1867 rmoveto
          -223 90 callsubr
          -72 -1560 rmoveto
          26 callsubr
          endchar
        </CharString>
        <CharString name="Rdotaccent">
          1466 1022 127 callsubr
          -79 -81 -66 -64 -83 -73 58 -59 78 hvcurveto
          75 -1573 rmoveto
          26 callsubr
          endchar
        </CharString>
        <CharString name="Rdotbelow">
          1466 1097 hmoveto
          26 callsubr
          -419 -1216 -85 callsubr
          -71 callsubr
        </CharString>
        <CharString name="Rdotbelowmacron">
          1466 715 7 callsubr
          346 -1783 rmoveto
          26 callsubr
          -419 -1216 -85 callsubr
          -71 callsubr
        </CharString>
        <CharString name="Rhogreek">
          1417 748 hmoveto
          28 callsubr
        </CharString>
        <CharString name="Rinvertedbreve">
          1466 1027 141 callsubr
          70 -1909 rmoveto
          26 callsubr
          endchar
        </CharString>
        <CharString name="Rlinebelow">
          1466 1097 hmoveto
          26 callsubr
          -742 -1437 -62 callsubr
        </CharString>
        <CharString name="S">
          1199 623 -32 72 callsubr
          endchar
        </CharString>
        <CharString name="Sacute">
          1199 1013 -98 callsubr
          -83 callsubr
          -676 -1898 72 callsubr
          endchar
        </CharString>
        <CharString name="Sacutedotaccent">
          1199 984 -6 callgsubr
          51 -1566 72 callsubr
          endchar
        </CharString>
        <CharString name="Scaron">
          1199 1164 -66 callsubr
          -48 callsubr
          -673 -1915 72 callsubr
          endchar
        </CharString>
        <CharString name="Scarondotaccent">
          1199 988 89 callgsubr
          -68 -51 1 callgsubr
          -663 -1722 72 callsubr
          endchar
        </CharString>
        <CharString name="Scedilla">
          1199 491 -23 callsubr
          -13 callsubr
          65 66 rlineto
          314 13 234 185 274 vvcurveto
          168 -84 121 -196 117 vhcurveto
          -77 46 rlineto
          -139 84 -55 66 94 vvcurveto
          115 101 74 136 176 105 -103 -201 10 vhcurveto
          99 hlineto
          55 331 rlineto
          63 -77 -172 61 -201 hhcurveto
          -374 -188 -208 -235 -173 89 -118 200 -120 hvcurveto
          77 -46 rlineto
          140 -85 45 -67 -99 vvcurveto
          -128 -111 -79 -145 -184 -133 112 197 -8 vhcurveto
          -99 hlineto
          -54 -340 72 -51 149 -49 162 -15 rlinecurve
          -99 -102 -19 -91 rlineto
          31 hlineto
          80 41 -28 -48 -44 -41 -27 -72 -1 hvcurveto
          -57 1 -48 15 -33 20 -24 -102 rcurveline
          -34 53 70 -23 86 hhcurveto
          endchar
        </CharString>
        <CharString name="Schwa">
          1556 813 -32 rmoveto
          481 307 353 465 420 -262 269 -424 -170 -174 -43 -66 -112 hvcurveto
          -78 -345 rlineto
          102 hlineto
          220 99 136 84 170 hhcurveto
          239 103 -193 -310 -36 -1 -35 -2 -33 hvcurveto
          -975 hlineto
          -24 -77 -14 -78 -73 vvcurveto
          -289 189 -233 410 vhcurveto
          -282 476 rmoveto
          47 5 47 10 46 vhcurveto
          666 hlineto
          -288 -47 -137 -184 -213 hhcurveto
          -188 -96 135 197 hvcurveto
          endchar
        </CharString>
        <CharString name="Scircumflex">
          1199 742 -65 callsubr
          -28 callsubr
          5 -1592 72 callsubr
          endchar
        </CharString>
        <CharString name="Scommaaccent">
          1199 623 -32 72 callsubr
          -128 -460 -16 callsubr
          -87 72 -108 122 callgsubr
          54 42 15 callsubr
        </CharString>
        <CharString name="Sdotaccent">
          1199 941 127 callsubr
          -78 -82 -66 -64 -83 -73 58 -59 78 hvcurveto
          -318 -1605 72 callsubr
          endchar
        </CharString>
        <CharString name="Sdotbelow">
          1199 623 -32 72 callsubr
          -85 -129 -85 callsubr
          -71 callsubr
        </CharString>
        <CharString name="Sdotbelowdotaccent">
          1199 941 127 callsubr
          -78 -82 -66 -64 -83 -73 58 -59 78 hvcurveto
          -318 -1605 72 callsubr
          -85 -129 -85 callsubr
          -71 callsubr
        </CharString>
        <CharString name="Shacyrillic">
          2428 473 1213 rmoveto
          -208 -982 -19 -89 -24 -15 -147 -17 rlinecurve
          -24 -110 2326 0 23 110 -139 18 -17 17 18 86 rlinecurve
          208 982 166 callsubr
          201 callsubr
        </CharString>
        <CharString name="Shchacyrillic">
          2451 162 callsubr
          1973 hlineto
          196 17 -42 -266 19 hvcurveto
          113 hlineto
          84 446 -211 0 228 1075 166 callsubr
          201 callsubr
        </CharString>
        <CharString name="Sigmagreek">
          110 callgsubr
          -104 342 -638 -573 -596 -22 -106 1158 0 121 504 rlineto
          -114 hlineto
          -244 -104 -70 -34 -253 hhcurveto
          -388 hlineto
          547 559 7 35 -263 499 333 -9 233 -6 39 -41 10 -211 rlinecurve
          100 hlineto
          endchar
        </CharString>
        <CharString name="Softsigncyrillic">
          1392 1461 -67 callgsubr
          206 callsubr
          -362 -3 150 callsubr
        </CharString>
        <CharString name="T">
          -37 callsubr
          endchar
        </CharString>
        <CharString name="Taugreek">
          -37 callsubr
          endchar
        </CharString>
        <CharString name="Tbar">
          1381 395 679 rmoveto
          270 hlineto
          -95 -449 -18 -85 -24 -17 -166 -19 rlinecurve
          -23 -109 -100 callgsubr
          17 18 85 rlinecurve
          96 449 269 0 26 122 -270 0 110 516 46 -1 235 -8 50 -32 -6 -224 rlinecurve
          100 hlineto
          73 392 -1283 0 -93 -392 rlineto
          99 hlineto
          59 callsubr
          1 -109 -516 rlineto
          -270 hlineto
          endchar
        </CharString>
        <CharString name="Tcaron">
          1381 1275 116 callsubr
          233 -439 rmoveto
          -1283 hlineto
          -93 -392 rlineto
          99 hlineto
          59 callsubr
          108 callsubr
          -100 callgsubr
          96 callsubr
          endchar
        </CharString>
        <CharString name="Tcedilla">
          1381 589 -492 rmoveto
          189 114 84 123 102 -78 71 -125 14 hvcurveto
          97 98 256 0 24 109 -159 19 -15 96 callsubr
          73 392 -1283 0 -93 -392 rlineto
          99 hlineto
          59 callsubr
          108 callsubr
          309 0 -126 -130 -19 -91 rlineto
          30 hlineto
          81 41 -28 -48 -44 -41 -28 -72 -57 -48 16 20 -33 hvcurveto
          -24 -102 rlineto
          -34 53 70 -23 86 hhcurveto
          endchar
        </CharString>
        <CharString name="Tcircumflexbelow">
          -37 callsubr
          -1149 -1531 -58 callsubr
          21 callsubr
        </CharString>
        <CharString name="Tcommaaccent">
          -37 callsubr
          -973 -1544 -16 callsubr
          64 callsubr
          54 42 15 callsubr
        </CharString>
        <CharString name="Tdotaccent">
          1381 1052 -15 callsubr
          23 callsubr
          587 -129 rmoveto
          -1283 hlineto
          -93 -392 rlineto
          99 hlineto
          59 callsubr
          108 callsubr
          -100 callgsubr
          96 callsubr
          endchar
        </CharString>
        <CharString name="Tdotbelow">
          -37 callsubr
          -930 -1213 -85 callsubr
          -71 callsubr
        </CharString>
        <CharString name="Tecyrillic">
          -37 callsubr
          endchar
        </CharString>
        <CharString name="Thetagreek">
          1715 927 -32 rmoveto
          468 351 369 442 22 hvcurveto
          23 402 -259 296 -441 -1 -468 -2 -351 -367 -22 -442 rrcurveto
          -402 -22 258 -295 441 hhcurveto
          17 134 rmoveto
          -235 -115 212 337 19 hvcurveto
          366 19 157 325 285 hhcurveto
          236 114 -212 -337 -19 hvcurveto
          -368 -19 -159 -323 -283 hhcurveto
          -274 354 rmoveto
          86 hlineto
          153 59 29 24 65 hhcurveto
          146 hlineto
          64 20 -24 -153 -6 hvcurveto
          86 hlineto
          107 506 rlineto
          -86 hlineto
          -155 -63 -27 -22 -63 hhcurveto
          -146 hlineto
          -62 -19 22 155 4 hvcurveto
          -87 hlineto
          endchar
        </CharString>
        <CharString name="Thorn">
          1426 262 230 rmoveto
          -19 -87 -21 -15 -150 -19 rrcurveto
          -23 -110 668 0 24 110 rlineto
          -138 18 -19 16 19 87 19 91 rcurveline
          172 hlineto
          356 341 143 307 231 -187 137 -334 hvcurveto
          -175 hlineto
          16 73 18 87 24 16 148 18 rlinecurve
          23 110 -668 0 -24 -110 140 -18 17 -16 -19 -87 rlinecurve
          661 -441 rmoveto
          -150 -95 -163 -285 -8 vhcurveto
          -102 -3 120 566 102 -3 rlineto
          161 -5 99 -96 -138 vvcurveto
          endchar
        </CharString>
        <CharString name="Tlinebelow">
          -37 callsubr
          -1253 -1434 -62 callsubr
        </CharString>
        <CharString name="Tsecyrillic">
          1674 162 callsubr
          1201 hlineto
          196 17 -42 -266 19 hvcurveto
          114 hlineto
          82 446 -215 0 228 1075 166 callsubr
          17 -18 -18 -86 rlinecurve
          -229 -1075 -539 151 callsubr
        </CharString>
        <CharString name="Tshecyrillic">
          1896 1648 1444 rmoveto
          -1294 hlineto
          203 callsubr
          15 65 68 9 78 hhcurveto
          194 74 -104 -224 -47 hvcurveto
          -74 -349 505 0 23 110 rlineto
          -141 14 -13 19 17 85 23 116 rcurveline
          335 67 -160 154 -385 hhcurveto
          -108 -81 -16 -20 -75 hvcurveto
          77 callgsubr
          endchar
        </CharString>
        <CharString name="U">
          1541 807 -32 -89 callsubr
        </CharString>
        <CharString name="Uacute">
          1541 1248 -98 callsubr
          -83 callsubr
          -727 -1898 -89 callsubr
        </CharString>
        <CharString name="Ubreve">
          1541 1193 68 callsubr
          12 callgsubr
          -386 -1610 -89 callsubr
        </CharString>
        <CharString name="Ubrevecyrillic">
          1493 1145 1573 rmoveto
          187 158 96 205 64 hvcurveto
          -116 33 rlineto
          -127 -45 -103 -84 -119 hhcurveto
          -21 -20 2 5 39 callgsubr
          -918 -1436 175 callsubr
        </CharString>
        <CharString name="Ucaron">
          1541 1400 -66 callsubr
          51 callsubr
          -724 -1915 -89 callsubr
        </CharString>
        <CharString name="Ucircumflex">
          1541 977 -65 callsubr
          122 callsubr
          -46 -1592 -89 callsubr
        </CharString>
        <CharString name="Ucircumflexbelow">
          79 callsubr
          -272 -447 -58 callsubr
          21 callsubr
        </CharString>
        <CharString name="Ucyrillic">
          1493 227 137 175 callsubr
        </CharString>
        <CharString name="Udblgrave">
          1541 1009 1867 13 callgsubr
          -517 -1592 -89 callsubr
        </CharString>
        <CharString name="Udieresis">
          1541 998 -79 callsubr
          -63 callsubr
          53 -75 callgsubr
          -54 callsubr
          -550 -1617 -89 callsubr
        </CharString>
        <CharString name="Udieresisacute">
          1541 1551 -54 callgsubr
          102 -243 rmoveto
          -12 callsubr
          -14 callsubr
          63 callsubr
          38 callsubr
          -504 -1581 -89 callsubr
        </CharString>
        <CharString name="Udieresisbelow">
          79 callsubr
          -279 -408 rmoveto
          84 66 65 81 68 callgsubr
          434 hmoveto
          84 67 65 81 -1 68 callgsubr
          endchar
        </CharString>
        <CharString name="Udieresiscaron">
          1541 1584 2029 rmoveto
          -353 -86 -316 86 -20 -92 270 -142 70 0 330 142 rlineto
          -600 -388 rmoveto
          -12 callsubr
          -14 callsubr
          63 callsubr
          38 callsubr
          -504 -1581 -89 callsubr
        </CharString>
        <CharString name="Udieresisgrave">
          1541 880 1873 rmoveto
          654 -81 20 91 -641 149 rlineto
          52 -483 rmoveto
          -12 callsubr
          -14 callsubr
          63 callsubr
          38 callsubr
          -504 -1581 -89 callsubr
        </CharString>
        <CharString name="Udieresismacron">
          1541 875 1849 rmoveto
          671 hlineto
          27 125 rlineto
          -672 hlineto
          64 -425 rmoveto
          -12 callsubr
          -14 callsubr
          63 callsubr
          38 callsubr
          -504 -1581 -89 callsubr
        </CharString>
        <CharString name="Udotbelow">
          79 callsubr
          -53 -129 -85 callsubr
          -71 callsubr
        </CharString>
        <CharString name="Ugrave">
          1541 1127 -52 callsubr
          -425 -1592 -89 callsubr
        </CharString>
        <CharString name="Uhookabove">
          1541 1217 -69 callgsubr
          47 hhcurveto
          47 callgsubr
          63 -112 vhcurveto
          -410 -1934 -89 callsubr
        </CharString>
        <CharString name="Uhorn">
          1659 318 615 rmoveto
          -22 callsubr
          191 callsubr
          endchar
        </CharString>
        <CharString name="Uhornacute">
          1659 1240 1867 rmoveto
          -211 -307 116 0 -61 callsubr
          -1208 -1251 rmoveto
          -22 callsubr
          191 callsubr
          endchar
        </CharString>
        <CharString name="Uhorndotbelow">
          1659 318 615 rmoveto
          -22 callsubr
          191 callsubr
          296 -1364 -85 callsubr
          -71 callsubr
        </CharString>
        <CharString name="Uhorngrave">
          1659 1119 -52 callsubr
          -906 -945 rmoveto
          -22 callsubr
          191 callsubr
          endchar
        </CharString>
        <CharString name="Uhornhookabove">
          1659 1209 -69 callgsubr
          48 -104 callgsubr
          115 hlineto
          145 58 81 55 85 vvcurveto
          84 -81 63 -112 vhcurveto
          -891 -1287 rmoveto
          -22 callsubr
          191 callsubr
          endchar
        </CharString>
        <CharString name="Uhorntilde">
          1659 1281 -47 callsubr
          -13 -24 101 callgsubr
          160 callsubr
          43 45 -20 53 hhcurveto
          -963 -971 rmoveto
          -22 callsubr
          191 callsubr
          endchar
        </CharString>
        <CharString name="Uhungarumlaut">
          1541 1055 1867 238 callsubr
          76 callgsubr
          -825 -1899 -89 callsubr
        </CharString>
        <CharString name="Uinvertedbreve">
          1541 1181 216 callsubr
          107 hlineto
          94 17 102 callsubr
          9 24 7 34 33 vvcurveto
          139 -1 -116 101 -158 hhcurveto
          -374 -1941 -89 callsubr
        </CharString>
        <CharString name="Umacron">
          1541 870 1619 rmoveto
          583 hlineto
          36 164 rlineto
          -583 hlineto
          -99 -1815 -89 callsubr
        </CharString>
        <CharString name="Umacrondieresis">
          1541 1022 9 callgsubr
          63 hhcurveto
          377 hmoveto
          63 59 41 55 12 hvcurveto
          57 12 -41 41 -64 hhcurveto
          -15 hlineto
          -64 -58 -41 -57 -12 hvcurveto
          -55 -12 41 -41 63 hhcurveto
          -525 -232 rmoveto
          623 hlineto
          27 126 rlineto
          -623 hlineto
          -62 -1741 -89 callsubr
        </CharString>
        <CharString name="Uogonek">
          1541 770 90 callgsubr
          -30 hhcurveto
          -62 -42 58 84 59 23 60 45 51 hvcurveto
          294 28 211 200 77 350 rrcurveto
          143 653 20 90 23 19 134 22 rlinecurve
          23 110 -472 0 81 callsubr
          125 -22 15 -19 -19 -90 rlinecurve
          -125 -588 -85 -400 205 -215 299 -29 rlinecurve
          -131 -76 -78 -95 -100 vvcurveto
          -110 100 -78 142 vhcurveto
          endchar
        </CharString>
        <CharString name="Upsilondieresisgreek">
          1395 915 -79 callsubr
          -72 callsubr
          359 hmoveto
          74 61 -63 callsubr
          53 -54 71 vhcurveto
          -811 -435 -74 callsubr
        </CharString>
        <CharString name="Upsilongreek">
          1395 463 1150 -74 callsubr
        </CharString>
        <CharString name="Upsilontonosgreek">
          1840 908 1150 rmoveto
          193 -542 -80 -377 -18 -85 -22 -18 -167 -19 rlinecurve
          -23 -109 703 0 135 callsubr
          27 -27 49 -141 rlinecurve
          -524 294 47 callsubr
        </CharString>
        <CharString name="Uring">
          1541 927 1752 rmoveto
          -121 104 -76 143 179 103 97 118 121 -104 76 -144 -177 -104 -98 92 callgsubr
          -48 -46 -53 -47 -30 34 55 vhcurveto
          -296 -1779 -89 callsubr
        </CharString>
        <CharString name="Utilde">
          1541 1289 -47 callsubr
          -14 -23 101 callgsubr
          -54 hhcurveto
          -92 -19 callgsubr
          13 24 -70 callgsubr
          -482 -1618 -89 callsubr
        </CharString>
        <CharString name="Utildeacute">
          1541 1551 -54 callgsubr
          421 -243 rmoveto
          119 -96 callgsubr
          -9 -29 -20 -43 hhcurveto
          -26 -28 7 12 -35 hvcurveto
          -34 12 rlineto
          15 -45 -45 11 -53 hhcurveto
          -118 -96 -70 -128 -76 callgsubr
          20 42 hhcurveto
          27 27 -7 -12 35 hvcurveto
          34 -11 rlineto
          -16 45 45 -12 53 hhcurveto
          -477 -1581 -89 callsubr
        </CharString>
        <CharString name="Utildebelow">
          79 callsubr
          61 -420 12 callsubr
          -15 -26 -25 -36 hhcurveto
          -25 -21 -106 callgsubr
          -60 hhcurveto
          -101 -83 43 callsubr
          29 62 callsubr
        </CharString>
        <CharString name="V">
          220 callsubr
          endchar
        </CharString>
        <CharString name="Vdotbelow">
          220 callsubr
          243 -1297 -85 callsubr
          -49 callsubr
        </CharString>
        <CharString name="Vecyrillic">
          1457 1466 452 82 callsubr
        </CharString>
        <CharString name="Vtilde">
          1464 1265 -47 callsubr
          46 callsubr
          145 callsubr
          -826 -450 rmoveto
          186 callsubr
          endchar
        </CharString>
        <CharString name="W">
          2211 434 1136 -6 callsubr
        </CharString>
        <CharString name="Wacute">
          2211 1636 -98 callsubr
          -83 callsubr
          -1488 -730 -6 callsubr
        </CharString>
        <CharString name="Wcircumflex">
          2211 1365 -65 callsubr
          122 callsubr
          -807 -424 -6 callsubr
        </CharString>
        <CharString name="Wdieresis">
          2211 1386 -79 callsubr
          -63 callsubr
          53 -75 callgsubr
          -54 callsubr
          -1311 -449 -6 callsubr
        </CharString>
        <CharString name="Wdotaccent">
          2211 1565 -17 callsubr
          -42 callsubr
          -1131 -437 -6 callsubr
        </CharString>
        <CharString name="Wdotbelow">
          2211 434 1136 rmoveto
          99 -1136 281 0 508 997 69 -997 287 0 580 1133 83 162 34 23 124 16 rlinecurve
          23 110 -476 0 -23 -110 139 -15 7 -30 -71 -148 rlinecurve
          -402 -841 -50 834 -9 153 16 26 153 21 rlinecurve
          23 110 -644 0 -23 -110 140 -15 5 -9 callgsubr
          617 -1297 237 callsubr
          -57 58 -79 hvcurveto
          endchar
        </CharString>
        <CharString name="Wgrave">
          2211 1515 -52 callsubr
          -1186 -424 -6 callsubr
        </CharString>
        <CharString name="X">
          1431 346 314 25 callsubr
        </CharString>
        <CharString name="Xdieresis">
          1431 977 -79 callsubr
          -72 callsubr
          359 hmoveto
          74 61 -63 callsubr
          52 -54 72 vhcurveto
          -990 -1271 25 callsubr
        </CharString>
        <CharString name="Xdotaccent">
          1431 1157 163 callsubr
          -811 -1259 25 callsubr
        </CharString>
        <CharString name="Xigreek">
          1399 1636 1444 rmoveto
          -1239 hlineto
          111 callgsubr
          396 hlineto
          226 55 -27 -206 5 hvcurveto
          103 hlineto
          -809 -322 rmoveto
          209 41 callgsubr
          -209 29 callgsubr
          592 -657 rmoveto
          115 callgsubr
          -350 hlineto
          -256 -52 26 246 -1 hvcurveto
          -103 hlineto
          -87 -504 rlineto
          endchar
        </CharString>
        <CharString name="Xigreek.1">
          1428 86 hmoveto
          1252 hlineto
          115 callgsubr
          -120 hlineto
          89 425 rlineto
          51 41 callgsubr
          -50 hlineto
          89 419 rlineto
          144 hlineto
          226 55 -27 -206 5 hvcurveto
          103 hlineto
          81 465 -1239 0 111 callgsubr
          145 hlineto
          -88 -419 rlineto
          -53 29 callgsubr
          52 hlineto
          -90 -425 rlineto
          -123 hlineto
          -256 -52 26 246 -1 hvcurveto
          -103 hlineto
          endchar
        </CharString>
        <CharString name="Y">
          1395 463 1150 -74 callsubr
        </CharString>
        <CharString name="Yacute">
          1395 1166 -98 callsubr
          -83 callsubr
          -989 -716 -74 callsubr
        </CharString>
        <CharString name="Ycircumflex">
          1395 895 -65 callsubr
          -28 callsubr
          -308 -410 -74 callsubr
        </CharString>
        <CharString name="Ydieresis">
          1395 915 -79 callsubr
          -72 callsubr
          359 hmoveto
          74 61 -63 callsubr
          53 -54 71 vhcurveto
          -811 -435 -74 callsubr
        </CharString>
        <CharString name="Ydotaccent">
          1395 1095 -15 callsubr
          -82 -66 -64 -83 -73 58 -59 79 hvcurveto
          -632 -423 -74 callsubr
        </CharString>
        <CharString name="Ydotbelow">
          1395 463 1150 rmoveto
          193 -542 -80 -377 -18 -85 -22 -18 -167 -19 rlinecurve
          -23 -109 703 0 135 callsubr
          26 -27 50 -141 rlinecurve
          183 -1311 -85 callsubr
          -71 callsubr
        </CharString>
        <CharString name="Yericyrillic">
          2108 1461 -67 callgsubr
          206 callsubr
          480 -281 105 callgsubr
          -669 0 -24 -110 143 -14 14 -22 -18 -85 rlinecurve
          -209 -982 -18 -18 callgsubr
          669 0 24 110 -143 18 -14 18 18 85 rlinecurve
          -842 278 150 callsubr
        </CharString>
        <CharString name="Ygrave">
          1395 1044 1867 rmoveto
          -266 -11 hlineto
          268 -296 rlineto
          104 hlineto
          -687 -410 -74 callsubr
        </CharString>
        <CharString name="Yhookabove">
          1395 1135 -69 callgsubr
          47 -104 callgsubr
          95 callgsubr
          -672 -752 -74 callsubr
        </CharString>
        <CharString name="Yicyrillic">
          776 564 -79 callsubr
          -72 callsubr
          359 hmoveto
          73 62 -63 callsubr
          52 -54 72 vhcurveto
          -315 -1354 -88 callsubr
        </CharString>
        <CharString name="Ymacron">
          1395 788 49 callsubr
          -360 -633 -74 callsubr
        </CharString>
        <CharString name="Ytilde">
          1395 1207 1586 rmoveto
          93 75 -90 callgsubr
          46 callsubr
          -44 20 -54 hhcurveto
          -92 -19 callgsubr
          13 82 callgsubr
          54 hhcurveto
          -744 -436 -74 callsubr
        </CharString>
        <CharString name="Z">
          1255 1178 hmoveto
          3 callsubr
        </CharString>
        <CharString name="Zacute">
          1255 1034 -98 callsubr
          -83 callsubr
          -142 -1866 rmoveto
          3 callsubr
        </CharString>
        <CharString name="Zcaron">
          1255 1186 116 callsubr
          -139 -1883 rmoveto
          3 callsubr
        </CharString>
        <CharString name="Zcircumflex">
          1255 763 -65 callsubr
          -28 callsubr
          539 -1560 rmoveto
          3 callsubr
        </CharString>
        <CharString name="Zdotaccent">
          1255 963 -15 callsubr
          23 callsubr
          215 -1573 rmoveto
          3 callsubr
        </CharString>
        <CharString name="Zdotbelow">
          22 callgsubr
          500 -161 237 callsubr
          -57 58 -79 hvcurveto
          endchar
        </CharString>
        <CharString name="Zecyrillic">
          1357 667 -32 rmoveto
          393 302 187 307 170 -135 109 -205 27 hvcurveto
          236 40 174 119 216 vvcurveto
          212 -183 121 -311 -197 -179 -58 -75 -113 vhcurveto
          -79 -337 rlineto
          102 hlineto
          233 101 131 86 167 hhcurveto
          136 76 -80 -129 -203 -133 -109 -208 hvcurveto
          -152 hlineto
          -29 -135 rlineto
          152 hlineto
          183 103 -72 -161 -171 -110 -146 -237 -2 hvcurveto
          -171 -2 -126 85 -9 234 rrcurveto
          -102 hlineto
          -51 -339 rlineto
          -60 78 182 -67 214 hhcurveto
          endchar
        </CharString>
        <CharString name="Zetagreek">
          1255 1178 hmoveto
          3 callsubr
        </CharString>
        <CharString name="Zhecyrillic">
          2188 399 hmoveto
          568 666 105 0 -92 -435 -19 -87 -24 -15 -157 -19 rlinecurve
          -23 -110 689 0 23 110 -148 19 -18 15 18 87 rlinecurve
          92 435 106 0 276 -666 393 0 22 104 -64 28 -35 44 -92 217 rlinecurve
          -215 503 203 185 221 198 60 34 145 21 rlinecurve
          24 110 -537 0 -23 -110 140 -15 5 -34 -141 -139 rlinecurve
          -351 -344 -108 0 87 411 19 87 25 15 156 19 rlinecurve
          23 110 -689 0 -24 -110 150 -15 17 -19 -18 -87 rlinecurve
          -87 -411 -104 0 -211 344 -90 145 43 29 136 14 rlinecurve
          23 110 -548 0 -22 -110 138 -23 48 -29 137 -201 rlinecurve
          119 -173 -441 -515 rlineto
          -182 -215 -48 -47 -73 -27 -23 -104 rcurveline
          endchar
        </CharString>
        <CharString name="Zlinebelow">
          22 callgsubr
          177 -382 -27 callsubr
        </CharString>
        <CharString name="a">
          1240 -77 callsubr
          -101 callsubr
        </CharString>
        <CharString name="a.dnum">
          804 127 207 rmoveto
          -144 79 -77 98 94 71 54 90 39 vhcurveto
          -2 -7 -2 -14 -8 vvcurveto
          -73 -6 37 -38 72 hhcurveto
          75 74 33 45 39 hvcurveto
          16 75 rlineto
          -11 -18 -24 -5 -19 69 callgsubr
          -51 37 -83 hhcurveto
          -186 -139 -169 -228 2 hvcurveto
          219 9 rmoveto
          116 -2 45 166 107 hhcurveto
          38 25 -15 -17 5 hvcurveto
          -50 -236 rlineto
          -73 -15 -42 -42 -46 hhcurveto
          -37 -26 27 74 -2 hvcurveto
          endchar
        </CharString>
        <CharString name="a.numr">
          804 260 837 rmoveto
          -144 80 -77 98 93 72 54 90 39 vhcurveto
          -2 -6 -2 -14 -8 vvcurveto
          -74 -6 37 -38 72 hhcurveto
          74 74 33 45 40 hvcurveto
          16 76 rlineto
          -12 -18 -24 -5 -20 hhcurveto
          -29 -11 19 44 10 hvcurveto
          85 400 -121 0 -77 -66 rlineto
          44 -22 -51 36 -84 hhcurveto
          -185 -139 -168 -229 1 84 callgsubr
          6 hvcurveto
          -51 -235 rlineto
          -73 -15 -41 -42 -46 hhcurveto
          -38 -26 26 75 -2 hvcurveto
          endchar
        </CharString>
        <CharString name="a.sups">
          804 298 1013 rmoveto
          -144 79 -77 99 93 72 54 90 39 vhcurveto
          -2 -6 -3 -15 -8 vvcurveto
          -73 -6 38 -38 72 hhcurveto
          74 74 33 45 39 hvcurveto
          16 76 rlineto
          -12 -17 -24 -5 -20 69 callgsubr
          -50 37 -84 hhcurveto
          -186 -139 -168 -229 2 84 callgsubr
          5 hvcurveto
          -50 -236 rlineto
          -72 -15 -42 -43 -45 hhcurveto
          -38 -26 27 75 -2 hvcurveto
          endchar
        </CharString>
        <CharString name="aacute">
          1240 941 118 callsubr
          -1110 -1215 -106 callsubr
          -101 callsubr
        </CharString>
        <CharString name="abreve">
          1240 876 -51 callsubr
          57 callsubr
          20 callsubr
          -60 callgsubr
          177 vhcurveto
          -693 -825 -106 callsubr
          -101 callsubr
        </CharString>
        <CharString name="abreveacute">
          1240 1235 111 callsubr
          259 -327 -45 callsubr
          31 hvcurveto
          -124 hlineto
          -67 -17 -95 -45 -116 hhcurveto
          -116 -76 46 66 12 56 callsubr
          201 hhcurveto
          -635 -780 -106 callsubr
          -101 callsubr
        </CharString>
        <CharString name="abrevecyrillic">
          1240 831 164 callsubr
          23 callgsubr
          -648 -823 -106 callsubr
          -101 callsubr
        </CharString>
        <CharString name="abrevedotbelow">
          1240 876 -51 callsubr
          57 callsubr
          20 callsubr
          -60 callgsubr
          177 vhcurveto
          -693 -825 -106 callsubr
          -81 callsubr
          39 callsubr
          133 -822 -80 callsubr
        </CharString>
        <CharString name="abrevegrave">
          62 callgsubr
          199 -608 -45 callsubr
          31 hvcurveto
          -124 hlineto
          -67 -17 -95 -45 -116 hhcurveto
          -116 -76 46 66 12 56 callsubr
          201 hhcurveto
          -635 -780 -106 callsubr
          -101 callsubr
        </CharString>
        <CharString name="abrevehookabove">
          1240 925 -7 callgsubr
          -107 -602 -45 callsubr
          31 hvcurveto
          -124 hlineto
          -67 -17 -95 -45 -116 hhcurveto
          -116 -76 46 66 12 56 callsubr
          201 hhcurveto
          -635 -780 -106 callsubr
          -101 callsubr
        </CharString>
        <CharString name="abrevetilde">
          193 callsubr
          -210 -351 -45 callsubr
          31 hvcurveto
          -124 hlineto
          -67 -17 -95 -45 -116 hhcurveto
          -116 -76 46 66 12 56 callsubr
          201 hhcurveto
          -635 -780 -106 callsubr
          -101 callsubr
        </CharString>
        <CharString name="acaron">
          1240 1102 -2 callsubr
          -1057 -1215 -106 callsubr
          -101 callsubr
        </CharString>
        <CharString name="acircumflex">
          1240 636 -73 callsubr
          -314 -819 -106 callsubr
          -101 callsubr
        </CharString>
        <CharString name="acircumflexacute">
          1240 1235 111 callsubr
          -66 -323 rmoveto
          349 105 305 -105 236 callsubr
          -334 -896 -106 callsubr
          -101 callsubr
        </CharString>
        <CharString name="acircumflexdotbelow">
          1240 636 -73 callsubr
          -314 -819 -106 callsubr
          -81 callsubr
          39 callsubr
          133 -822 -80 callsubr
        </CharString>
        <CharString name="acircumflexgrave">
          62 callgsubr
          -126 -604 rmoveto
          349 105 305 -105 236 callsubr
          -334 -896 -106 callsubr
          -101 callsubr
        </CharString>
        <CharString name="acircumflexhookabove">
          1240 1186 1739 rmoveto
          -82 -85 -29 -37 -55 hvcurveto
          -19 109 callsubr
          167 callsubr
          225 callsubr
          236 callsubr
          -334 -896 -106 callsubr
          -101 callsubr
        </CharString>
        <CharString name="acircumflextilde">
          193 callsubr
          -535 -347 rmoveto
          349 105 305 -105 236 callsubr
          -334 -896 -106 callsubr
          -101 callsubr
        </CharString>
        <CharString name="acute">
          1024 877 -87 callsubr
          -78 callsubr
          endchar
        </CharString>
        <CharString name="acutecmb">
          0 365 -87 callsubr
          -78 callsubr
          endchar
        </CharString>
        <CharString name="acutecmb.short">
          0 342 1450 rmoveto
          -212 -307 116 0 -83 callsubr
          endchar
        </CharString>
        <CharString name="acutedotaccentcmb">
          31 callgsubr
          257 -208 rmoveto
          40 185 -693 -174 -23 -108 rlineto
          endchar
        </CharString>
        <CharString name="acutedotaccentcmb.short">
          0 402 -6 callgsubr
          endchar
        </CharString>
        <CharString name="acyrillic">
          1240 -77 callsubr
          -101 callsubr
        </CharString>
        <CharString name="adblgrave">
          1240 658 -4 callsubr
          126 hlineto
          -866 -819 -106 callsubr
          -101 callsubr
        </CharString>
        <CharString name="adieresis">
          1240 629 -26 callsubr
          55 callsubr
          -91 -73 -72 -90 -82 64 -64 87 hvcurveto
          -913 -860 -106 callsubr
          -101 callsubr
        </CharString>
        <CharString name="adieresismacron">
          1240 571 1516 -28 callgsubr
          30 -505 67 callsubr
          52 callsubr
          42 -48 67 hhcurveto
          395 hmoveto
          67 13 callsubr
          -16 hlineto
          -10 callsubr
          -14 43 -48 66 hhcurveto
          -814 -801 -106 callsubr
          -101 callsubr
        </CharString>
        <CharString name="adotaccent">
          1240 863 48 callgsubr
          -680 -850 -106 callsubr
          -101 callsubr
        </CharString>
        <CharString name="adotbelow">
          1240 -77 callsubr
          -81 callsubr
          39 callsubr
          133 -822 -80 callsubr
        </CharString>
        <CharString name="adotmacron">
          1240 569 1503 16 callsubr
          45 callgsubr
          -666 -800 -106 callsubr
          -101 callsubr
        </CharString>
        <CharString name="ae">
          1596 261 793 130 callsubr
        </CharString>
        <CharString name="aeacute">
          1596 1167 -87 callsubr
          -78 callsubr
          -1257 -779 130 callsubr
        </CharString>
        <CharString name="aemacron">
          1596 747 50 callsubr
          -524 -652 130 callsubr
        </CharString>
        <CharString name="agrave">
          1240 854 1572 rmoveto
          -332 -13 hlineto
          307 -383 rlineto
          128 hlineto
          -774 -819 -106 callsubr
          -101 callsubr
        </CharString>
        <CharString name="ahookabove">
          1240 914 1577 rmoveto
          -108 -86 -36 -46 -47 hvcurveto
          -20 -95 rlineto
          19 30 52 15 53 hhcurveto
          79 40 -30 -49 -60 -61 -59 -105 -65 hvcurveto
          133 hlineto
          167 69 91 63 100 vvcurveto
          100 -93 74 -125 vhcurveto
          -731 -1220 -106 callsubr
          -101 callsubr
        </CharString>
        <CharString name="ainvertedbreve">
          1240 868 1565 rmoveto
          -208 -39 callgsubr
          146 callsubr
          -685 -1208 -106 callsubr
          -101 callsubr
        </CharString>
        <CharString name="alphagreek">
          1307 497 -23 171 callsubr
        </CharString>
        <CharString name="alphatonosgreek">
          1307 908 24 callsubr
          19 callsubr
          -723 -1595 171 callsubr
        </CharString>
        <CharString name="amacron">
          1240 522 221 callsubr
          -377 -1088 -106 callsubr
          -101 callsubr
        </CharString>
        <CharString name="ampersand">
          1579 134 345 rmoveto
          -211 149 -166 278 170 140 75 149 154 vhcurveto
          162 -192 370 0 17 82 -104 77 -88 106 -105 126 rlinecurve
          -23 27 144 156 154 162 47 24 119 18 rlinecurve
          22 110 -483 0 -23 -110 149 -17 9 -28 -96 -117 rlinecurve
          -106 -122 -277 330 rlineto
          257 84 121 113 147 vvcurveto
          186 -156 122 -262 -278 -172 -162 -216 -3 vhcurveto
          -2 -101 34 -97 80 -115 rrcurveto
          -258 -80 -140 -142 -218 vvcurveto
          587 823 rmoveto
          99 64 61 95 100 50 -79 -94 -103 -54 -83 -128 -66 vhcurveto
          -93 119 -34 72 74 vvcurveto
          -283 -716 rmoveto
          116 63 75 96 57 vhcurveto
          4 -6 5 -5 4 -6 352 -416 rcurveline
          -57 -70 -66 -34 -85 hhcurveto
          -178 -125 119 157 hvcurveto
          endchar
        </CharString>
        <CharString name="anoteleiagreek">
          589 478 695 rmoveto
          105 86 80 108 98 -79 78 -108 -105 -86 -80 -108 -98 80 -78 107 hvcurveto
          endchar
        </CharString>
        <CharString name="aogonek">
          1240 -77 callsubr
          -81 callsubr
          55 -70 118 9 9 1 8 hhcurveto
          -186 -106 -77 -91 -102 vvcurveto
          -106 85 -66 126 89 82 31 35 35 vhcurveto
          118 callgsubr
          106 167 138 hvcurveto
          1 1 2 0 1 1 23 112 rcurveline
          -26 -33 -46 -11 -11 callgsubr
          endchar
        </CharString>
        <CharString name="approxequal">
          1253 1043 846 rmoveto
          -145 -125 205 -206 hhcurveto
          -183 -142 -140 -287 -31 hvcurveto
          178 hlineto
          144 22 70 62 83 146 124 -206 206 hhcurveto
          183 142 140 287 31 hvcurveto
          -178 hlineto
          -144 -23 -69 -61 -83 hhcurveto
          -107 -502 rmoveto
          -145 -124 206 -207 hhcurveto
          -183 -142 -141 -286 -31 hvcurveto
          178 hlineto
          144 22 70 61 84 145 124 -205 207 hhcurveto
          182 142 140 287 31 hvcurveto
          -177 hlineto
          -144 -24 -68 -62 -84 hhcurveto
          endchar
        </CharString>
        <CharString name="aring">
          1240 575 10 callsubr
          165 callsubr
          94 callgsubr
          -52 -33 39 62 vhcurveto
          -587 -1001 -106 callsubr
          -101 callsubr
        </CharString>
        <CharString name="aringacute">
          1240 1236 1563 rmoveto
          40 186 -693 -174 -23 -108 rlineto
          300 196 callsubr
          -31 -23 -45 hhcurveto
          -681 -866 -106 callsubr
          -101 callsubr
        </CharString>
        <CharString name="aringbelow">
          1240 -77 callsubr
          -81 callsubr
          39 callsubr
          -159 -682 136 callsubr
          -34 31 49 -3 hvcurveto
          endchar
        </CharString>
        <CharString name="asciicircum">
          1253 833 1444 rmoveto
          -548 -602 126 -114 489 497 278 -497 149 114 -293 602 rlineto
          endchar
        </CharString>
        <CharString name="asciitilde">
          1253 988 591 rmoveto
          -144 -125 205 -206 hhcurveto
          -183 -142 -140 -286 -31 hvcurveto
          177 hlineto
          143 23 70 62 83 145 125 -205 206 hhcurveto
          182 142 139 287 31 hvcurveto
          -177 hlineto
          -143 -23 -69 -62 -84 hhcurveto
          endchar
        </CharString>
        <CharString name="asterisk">
          848 713 1473 rmoveto
          -60 -39 -42 -75 -19 2 -20 3 -29 hvcurveto
          22 -185 30 0 100 185 rlineto
          23 40 8 30 25 vvcurveto
          53 -37 37 -52 vhcurveto
          -294 -129 rmoveto
          -56 -38 -44 -49 -46 29 -40 88 -26 hvcurveto
          181 -62 18 26 -93 148 rlineto
          69 -42 -46 24 -41 hhcurveto
          528 -56 rmoveto
          -42 -32 -18 -51 -61 hvcurveto
          -141 -116 11 -28 173 19 rlineto
          133 7 50 42 60 vvcurveto
          50 -37 35 -54 vhcurveto
          -589 -423 rmoveto
          43 32 18 51 61 hvcurveto
          140 115 -11 28 -173 -17 rlineto
          -132 -8 -50 -43 -59 vvcurveto
          -49 36 -36 54 vhcurveto
          622 37 rmoveto
          46 -29 40 -88 26 vhcurveto
          -181 61 -17 -26 92 -146 rlineto
          -70 43 46 -24 40 hhcurveto
          56 38 44 49 hvcurveto
          -388 -223 rmoveto
          61 38 43 75 19 -1 21 -3 28 hvcurveto
          -22 184 -31 0 -100 -184 rlineto
          -22 -41 -8 -29 -25 vvcurveto
          -53 36 -38 52 vhcurveto
          endchar
        </CharString>
        <CharString name="at">
          2081 1494 -292 rmoveto
          2 110 rlineto
          -66 -127 -128 -22 -168 hhcurveto
          -402 -288 267 448 430 316 440 543 445 262 -241 -374 -319 -187 -186 -168 -82 -10 44 77 16 hvcurveto
          144 669 -182 0 -96 -122 rlineto
          94 -32 -83 57 -117 hhcurveto
          -271 -189 -310 -315 -219 96 -121 156 123 103 72 157 82 hvcurveto
          -4 -20 -1 -18 -19 vvcurveto
          -124 111 -73 144 329 282 272 424 437 -343 302 -530 -645 -377 -507 -515 -525 362 -327 463 188 183 55 68 80 vhcurveto
          -513 685 rmoveto
          213 103 286 143 72 42 -55 -90 -7 vhcurveto
          -63 -296 rlineto
          -134 -28 -79 -93 -81 hhcurveto
          -72 -30 64 105 hvcurveto
          endchar
        </CharString>
        <CharString name="atilde">
          1240 995 -44 callsubr
          8 callsubr
          1 callsubr
          42 callsubr
          -812 -848 -106 callsubr
          -101 callsubr
        </CharString>
        <CharString name="austral">
          1471 84 372 rmoveto
          223 hlineto
          -64 -115 -61 -109 -26 -25 -127 -13 rlinecurve
          -23 -110 467 0 24 110 -132 15 -15 24 58 107 rlinecurve
          62 116 522 0 12 -116 13 -110 -16 -19 -150 -17 rlinecurve
          -22 -110 627 0 23 110 -123 13 -15 24 -14 110 rlinecurve
          -15 115 232 0 20 91 -263 0 -24 186 326 0 20 92 -358 0 -90 703 -267 0 -394 -703 -351 0 -20 -92 320 0 -104 -186 rlineto
          -255 hlineto
          563 278 rmoveto
          235 437 49 -437 rlineto
          -432 -278 rmoveto
          99 186 343 0 20 -186 rlineto
          endchar
        </CharString>
        <CharString name="austral.tnum">
          1282 94 458 rmoveto
          -20 -92 182 0 -56 -109 -56 -109 -20 -27 -103 -11 rlinecurve
          -24 -110 420 0 24 110 -122 14 -9 21 54 111 rlinecurve
          54 110 437 0 7 -110 6 -111 -16 -19 -134 -16 rlinecurve
          -23 -110 590 0 23 110 -100 11 -9 26 -9 110 rlinecurve
          -9 109 183 0 20 92 -210 0 -15 185 264 0 20 92 -292 0 -58 709 -288 0 -361 -709 -291 0 -20 -92 264 0 -95 -185 rlineto
          297 277 rmoveto
          209 426 25 -426 rlineto
          -370 -277 rmoveto
          91 185 285 0 11 -185 rlineto
          endchar
        </CharString>
        <CharString name="b">
          54 callsubr
          78 callsubr
          endchar
        </CharString>
        <CharString name="backslash">
          760 461 -280 rmoveto
          216 hlineto
          -103 1860 rlineto
          -216 hlineto
          endchar
        </CharString>
        <CharString name="baht">
          1407 1419 459 rmoveto
          155 -117 134 -230 31 vhcurveto
          224 24 178 108 2 191 2 165 -120 111 -279 28 rrcurveto
          48 226 -91 0 -47 -219 rlineto
          1 -21 -23 0 -23 hhcurveto
          -556 -34 callgsubr
          -197 -921 rcurveline
          -19 -85 -21 -18 -150 -18 -24 -110 rcurveline
          613 hlineto
          4 3 0 4 hhcurveto
          -46 -219 91 0 47 222 rlineto
          395 22 237 154 250 vvcurveto
          -700 355 rmoveto
          101 475 80 -2 rlineto
          22 21 -2 -3 19 hvcurveto
          -100 -467 rlineto
          -9 -9 -1 -10 hhcurveto
          313 269 rmoveto
          -125 -67 -92 -123 -36 vhcurveto
          91 427 rlineto
          66 -31 33 -58 -85 vvcurveto
          -454 -393 rmoveto
          114 -1 rlineto
          10 9 -1 9 hhcurveto
          -112 -529 rlineto
          -2 -20 -21 -1 -22 hhcurveto
          -83 -2 rlineto
          496 294 rmoveto
          -146 -81 -95 -175 -35 vhcurveto
          106 499 rlineto
          99 -33 51 -78 -112 vvcurveto
          endchar
        </CharString>
        <CharString name="baht.tnum">
          7 callgsubr
          157 -107 106 -249 28 vhcurveto
          48 226 -92 0 -46 -219 rlineto
          1 -18 -19 0 -18 hhcurveto
          -523 hlineto
          20 callgsubr
          577 0 -46 -219 91 0 47 221 rlineto
          368 21 223 154 252 vvcurveto
          -640 355 rmoveto
          100 475 76 -2 rlineto
          17 16 -2 -2 15 hvcurveto
          -100 -468 rlineto
          -6 -7 -1 -6 hhcurveto
          284 283 rmoveto
          -124 -61 -100 -108 -40 vhcurveto
          90 423 rlineto
          52 -30 27 -52 -77 vvcurveto
          -415 -407 rmoveto
          93 -1 rlineto
          11 10 -1 -1 9 hvcurveto
          -112 -529 rlineto
          -1 -15 -15 -1 -15 hhcurveto
          -82 -2 rlineto
          455 315 rmoveto
          -153 -77 -105 -157 -38 vhcurveto
          106 496 rlineto
          86 -33 42 -71 -96 vvcurveto
          endchar
        </CharString>
        <CharString name="bar">
          760 212 -280 rmoveto
          216 hlineto
          395 1860 rlineto
          -216 hlineto
          endchar
        </CharString>
        <CharString name="bdotaccent">
          1235 710 1624 rmoveto
          96 77 77 95 87 125 callsubr
          560 -953 rmoveto
          250 78 callsubr
          endchar
        </CharString>
        <CharString name="bdotbelow">
          54 callsubr
          78 callsubr
          -353 -1101 -80 callsubr
        </CharString>
        <CharString name="becyrillic">
          1213 1233 580 rmoveto
          262 -151 181 -256 -201 -151 -115 -159 -80 vhcurveto
          18 236 105 177 305 19 rrcurveto
          144 8 285 17 108 82 49 237 rlinecurve
          -109 hlineto
          -21 -47 -72 -17 -128 -3 rrcurveto
          -573 -12 -302 -420 -537 vvcurveto
          -319 152 -194 293 336 249 271 333 vhcurveto
          -319 78 rmoveto
          -224 -91 -316 -165 -86 -53 75 154 223 91 317 166 85 53 -76 -153 vhcurveto
          endchar
        </CharString>
        <CharString name="betagreek">
          1215 16 -460 rmoveto
          328 hlineto
          97 561 rlineto
          -68 60 108 -56 126 hhcurveto
          297 198 217 253 16 hvcurveto
          19 226 -123 143 -191 32 193 65 114 120 10 170 rrcurveto
          194 14 -127 140 -276 hhcurveto
          -277 -197 -177 -356 -76 hvcurveto
          327 102 rmoveto
          179 39 52 102 112 hhcurveto
          82 54 -64 -142 -14 hvcurveto
          -12 -175 -87 -96 -178 -5 rrcurveto
          -44 -207 189 -2 85 -86 -13 -187 rlinecurve
          -186 -11 -119 -107 -133 hhcurveto
          -79 -60 30 63 -54 hvcurveto
          endchar
        </CharString>
        <CharString name="bitcoin">
          1407 1419 459 rmoveto
          155 -116 134 -231 31 vhcurveto
          224 24 178 108 2 191 1 141 -87 102 -200 44 rrcurveto
          52 243 -92 0 -49 -228 rlineto
          7 -53 -58 3 -66 hhcurveto
          47 219 -92 -1 -47 -218 -466 0 -11 callsubr
          -17 -18 -87 rlinecurve
          -197 -921 -19 -85 -21 -18 -150 -18 rlinecurve
          -24 -110 468 0 -47 -219 91 0 47 219 rlineto
          54 hlineto
          44 42 1 3 40 hvcurveto
          -47 -223 92 0 49 233 rlineto
          324 44 191 147 224 vvcurveto
          -272 624 rmoveto
          -162 -113 -107 -200 vhcurveto
          -115 hlineto
          101 475 80 -2 rlineto
          164 -5 83 -64 -135 vvcurveto
          -74 -635 rmoveto
          -184 -129 -103 -284 -5 vhcurveto
          -83 -2 116 536 114 -1 rlineto
          174 -2 92 -89 -150 vvcurveto
          endchar
        </CharString>
        <CharString name="bitcoin.tnum">
          7 callgsubr
          133 -77 96 -175 44 vhcurveto
          52 244 -92 0 -48 -228 rlineto
          7 -48 -54 3 -59 hhcurveto
          -16 hlineto
          46 219 -92 -1 -46 -218 -415 0 20 callgsubr
          415 0 -47 -219 91 0 47 219 rlineto
          78 hlineto
          36 34 1 2 33 hvcurveto
          -48 -222 92 0 49 232 rlineto
          301 43 179 147 226 vvcurveto
          -251 638 rmoveto
          -163 -104 -120 -180 vhcurveto
          -105 hlineto
          100 475 76 -2 rlineto
          141 -7 72 -57 -126 vvcurveto
          -76 -628 rmoveto
          -192 -122 -113 -251 -8 vhcurveto
          -82 -2 116 536 93 -1 rlineto
          166 -3 80 -85 -132 vvcurveto
          endchar
        </CharString>
        <CharString name="blinebelow">
          54 callsubr
          78 callsubr
          -666 -1035 -27 callsubr
        </CharString>
        <CharString name="braceleft">
          760 767 1042 rmoveto
          50 225 rlineto
          141 31 46 62 151 hhcurveto
          24 110 rlineto
          -48 hlineto
          -280 -158 -104 -220 -50 hvcurveto
          -62 -284 rlineto
          -154 -34 -86 -54 -117 hhcurveto
          -22 -104 rlineto
          120 61 -53 -155 -33 hvcurveto
          -74 -352 rlineto
          -240 -51 106 -140 283 hhcurveto
          48 hlineto
          23 110 rlineto
          -160 -4 101 145 31 hvcurveto
          53 247 rlineto
          46 217 -62 125 -207 44 217 31 112 94 46 208 rrcurveto
          endchar
        </CharString>
        <CharString name="braceright">
          760 435 1042 rmoveto
          -42 -208 72 -94 204 -31 -226 -44 -115 -125 -46 -217 -52 -247 rcurveline
          -145 -31 -47 -101 -160 hhcurveto
          -24 -110 rlineto
          48 hlineto
          283 165 140 240 52 hvcurveto
          75 352 rlineto
          155 33 84 53 120 hhcurveto
          21 104 rlineto
          -116 -63 54 154 32 hvcurveto
          58 284 rlineto
          220 45 -114 104 -280 hhcurveto
          -48 hlineto
          -24 -110 rlineto
          152 20 -62 -141 -30 hvcurveto
          endchar
        </CharString>
        <CharString name="bracketleft">
          760 161 -280 rmoveto
          511 hlineto
          23 110 -261 0 350 1640 261 0 24 110 rlineto
          -511 hlineto
          endchar
        </CharString>
        <CharString name="bracketright">
          760 874 1580 rmoveto
          -510 hlineto
          -23 -110 261 0 -350 -1640 -262 0 -23 -110 rlineto
          510 hlineto
          endchar
        </CharString>
        <CharString name="breve">
          1024 811 -51 callsubr
          -59 callgsubr
          101 callsubr
          endchar
        </CharString>
        <CharString name="breveacutecmb">
          103 callsubr
          259 -327 -45 callsubr
          88 callsubr
        </CharString>
        <CharString name="breveacutecmb.short">
          -66 callgsubr
          279 -267 -31 callsubr
          -92 callgsubr
        </CharString>
        <CharString name="brevebelowcmb">
          0 -59 -472 215 callsubr
          -16 -76 -55 -112 hhcurveto
          -98 -68 59 72 7 0 8 1 5 hvcurveto
          -111 hlineto
          -11 -26 -6 -34 -34 vvcurveto
          -145 1 119 -105 164 hhcurveto
          endchar
        </CharString>
        <CharString name="brevecmb">
          0 299 -51 callsubr
          -59 callgsubr
          101 callsubr
          endchar
        </CharString>
        <CharString name="brevecmb.short">
          0 287 1161 60 callgsubr
          12 callgsubr
          endchar
        </CharString>
        <CharString name="brevecyrilliccmb">
          0 254 164 callsubr
          -109 -78 -124 hhcurveto
          -27 -25 4 8 -22 hvcurveto
          38 23 28 45 51 vvcurveto
          86 -67 233 callsubr
          endchar
        </CharString>
        <CharString name="brevecyrilliccmb.short">
          0 325 1573 rmoveto
          186 159 97 204 64 hvcurveto
          -116 33 rlineto
          -127 -45 -104 -83 -119 hhcurveto
          -21 -20 2 4 -17 hvcurveto
          24 20 17 32 36 vvcurveto
          77 -55 57 -69 -83 -56 -59 -85 -112 93 -96 162 vhcurveto
          endchar
        </CharString>
        <CharString name="brevegravecmb">
          -63 callgsubr
          199 -608 -45 callsubr
          88 callsubr
        </CharString>
        <CharString name="brevegravecmb.short">
          98 callgsubr
          229 -507 -31 callsubr
          -92 callgsubr
        </CharString>
        <CharString name="brevehookabovecmb">
          0 348 -7 callgsubr
          -106 -602 -45 callsubr
          88 callsubr
        </CharString>
        <CharString name="brevehookabovecmb.short">
          0 409 2030 rmoveto
          -84 -86 -26 -31 -56 59 callgsubr
          -95 -17 rrcurveto
          86 32 callgsubr
          -92 callgsubr
        </CharString>
        <CharString name="brevetildecmb">
          0 451 1488 -9 callsubr
          14 callsubr
          -62 callgsubr
          -31 hvcurveto
          123 -41 callgsubr
          -209 -351 -45 callsubr
          88 callsubr
        </CharString>
        <CharString name="brevetildecmb.short">
          0 524 1815 -55 callgsubr
          -19 -43 hhcurveto
          -26 -27 7 12 -36 hvcurveto
          -33 11 -27 callgsubr
          -128 -26 hvcurveto
          126 hlineto
          43 9 30 19 43 hhcurveto
          26 27 -7 -11 35 hvcurveto
          35 -12 rlineto
          -15 45 44 -12 54 hhcurveto
          -200 -290 -31 callsubr
          -92 callgsubr
        </CharString>
        <CharString name="brokenbar">
          760 439 789 rmoveto
          217 hlineto
          168 791 rlineto
          -217 hlineto
          -395 -1860 rmoveto
          216 hlineto
          168 791 rlineto
          -216 hlineto
          endchar
        </CharString>
        <CharString name="bullet">
          852 551 74 callgsubr
          -151 224 callsubr
          151 hvcurveto
          endchar
        </CharString>
        <CharString name="c">
          1004 622 -24 0 callsubr
        </CharString>
        <CharString name="cacute">
          1004 900 -87 callsubr
          -46 callsubr
          -630 -1596 0 callsubr
        </CharString>
        <CharString name="caret">
          589 212 hmoveto
          -337 -364 96 -96 297 290 177 -290 115 96 -183 364 rlineto
          endchar
        </CharString>
        <CharString name="caron">
          1024 1037 -2 callsubr
          endchar
        </CharString>
        <CharString name="caroncmb">
          0 525 -2 callsubr
          endchar
        </CharString>
        <CharString name="caroncmb.short">
          0 494 1466 rmoveto
          -208 -142 -147 142 -125 0 51 callsubr
          endchar
        </CharString>
        <CharString name="carondotaccentcmb">
          31 callgsubr
          298 120 callgsubr
          69 0 329 175 rlineto
          endchar
        </CharString>
</ttFont>
